<svg width="243" height="141" viewBox="0 0 243 141" fill="none" xmlns="http://www.w3.org/2000/svg">
<path d="M169.916 54.7805C171.083 54.7805 172.056 54.572 172.835 54.155C173.613 53.738 174.239 53.182 174.711 52.487C175.184 51.7642 175.517 50.944 175.712 50.0266C175.907 49.0814 176.004 48.1084 176.004 47.1076C176.004 46.0234 175.837 45.0226 175.504 44.1052C175.198 43.1877 174.739 42.3954 174.127 41.7282C173.516 41.061 172.765 40.5467 171.876 40.1853C170.986 39.7961 169.985 39.6015 168.873 39.6015C167.872 39.6015 167.038 39.8517 166.371 40.3521C165.732 40.8525 165.217 41.478 164.828 42.2286C164.467 42.9792 164.217 43.8133 164.078 44.7307C163.939 45.6203 163.869 46.4682 163.869 47.2744C163.869 48.0528 164.022 48.8868 164.328 49.7764C164.634 50.666 165.051 51.4862 165.579 52.2368C166.107 52.9596 166.746 53.5712 167.497 54.0716C168.248 54.5442 169.054 54.7805 169.916 54.7805ZM159.074 24.7978C159.546 24.7978 160.13 24.5893 160.825 24.1723C161.548 23.7275 162.34 23.2549 163.202 22.7545C164.064 22.2263 164.981 21.7536 165.954 21.3366C166.955 20.8918 167.97 20.6694 168.998 20.6694C171.361 20.6694 173.544 21.1837 175.545 22.2124C177.547 23.241 179.354 24.6032 180.966 26.299C182.579 27.9948 183.997 29.9548 185.22 32.1788C186.471 34.4028 187.513 36.7103 188.347 39.1011C189.181 41.4641 189.807 43.841 190.224 46.2319C190.641 48.5949 190.849 50.7911 190.849 52.8206C190.849 55.128 190.641 57.5188 190.224 59.9931C189.835 62.4673 189.223 64.8998 188.389 67.2907C187.555 69.6537 186.499 71.9055 185.22 74.0462C183.969 76.159 182.481 78.0216 180.758 79.634C179.312 80.9963 177.672 82.0527 175.837 82.8033C174.002 83.5539 172.084 84.096 170.082 84.4296C168.109 84.791 166.093 84.9995 164.036 85.0551C161.979 85.1385 159.991 85.1802 158.073 85.1802H157.405C155.571 85.1802 153.889 84.9578 152.36 84.513C150.858 84.096 149.552 83.4566 148.44 82.5948C147.328 81.7052 146.466 80.5931 145.854 79.2587C145.243 77.9243 144.937 76.3536 144.937 74.5466C144.937 73.0175 145.159 71.5302 145.604 70.0846C146.077 68.6112 146.591 67.1239 147.147 65.6226C147.703 64.0936 148.204 62.509 148.648 60.8688C149.121 59.2286 149.357 57.4493 149.357 55.5311C149.357 53.5573 149.163 51.5974 148.773 49.6513C148.412 47.7053 148.009 45.7732 147.564 43.8549C147.147 41.9089 146.744 39.9629 146.355 38.0169C145.993 36.0708 145.813 34.097 145.813 32.0954C145.813 31.2058 145.882 30.2189 146.021 29.1346C146.188 28.0226 146.48 26.994 146.897 26.0488C147.314 25.1036 147.884 24.3113 148.607 23.6719C149.357 23.0325 150.316 22.7128 151.484 22.7128C152.568 22.7128 153.458 22.824 154.153 23.0464C154.876 23.2688 155.501 23.5051 156.029 23.7553C156.558 24.0055 157.044 24.2418 157.489 24.4642C157.961 24.6866 158.49 24.7978 159.074 24.7978Z" fill="#FFFDFD"/>
<path d="M121.042 54.7805C122.21 54.7805 123.183 54.572 123.961 54.155C124.74 53.738 125.365 53.182 125.838 52.487C126.311 51.7642 126.644 50.944 126.839 50.0266C127.033 49.0814 127.131 48.1084 127.131 47.1076C127.131 46.0234 126.964 45.0226 126.63 44.1052C126.324 43.1877 125.866 42.3954 125.254 41.7282C124.643 41.061 123.892 40.5467 123.002 40.1853C122.113 39.7961 121.112 39.6015 120 39.6015C118.999 39.6015 118.165 39.8517 117.498 40.3521C116.858 40.8525 116.344 41.478 115.955 42.2286C115.593 42.9792 115.343 43.8133 115.204 44.7307C115.065 45.6203 114.996 46.4682 114.996 47.2744C114.996 48.0528 115.149 48.8868 115.454 49.7764C115.76 50.666 116.177 51.4862 116.706 52.2368C117.234 52.9596 117.873 53.5712 118.624 54.0716C119.374 54.5442 120.181 54.7805 121.042 54.7805ZM110.2 24.7978C110.673 24.7978 111.257 24.5893 111.952 24.1723C112.674 23.7275 113.467 23.2549 114.329 22.7545C115.19 22.2263 116.108 21.7536 117.081 21.3366C118.082 20.8918 119.096 20.6694 120.125 20.6694C122.488 20.6694 124.67 21.1837 126.672 22.2124C128.674 23.241 130.481 24.6032 132.093 26.299C133.705 27.9948 135.123 29.9548 136.346 32.1788C137.597 34.4028 138.64 36.7103 139.474 39.1011C140.308 41.4641 140.934 43.841 141.351 46.2319C141.768 48.5949 141.976 50.7911 141.976 52.8206C141.976 55.128 141.768 57.5188 141.351 59.9931C140.961 62.4673 140.35 64.8998 139.516 67.2907C138.682 69.6537 137.625 71.9055 136.346 74.0462C135.095 76.159 133.608 78.0216 131.885 79.634C130.439 80.9963 128.799 82.0527 126.964 82.8033C125.129 83.5539 123.211 84.096 121.209 84.4296C119.235 84.791 117.22 84.9995 115.163 85.0551C113.105 85.1385 111.118 85.1802 109.199 85.1802H108.532C106.697 85.1802 105.015 84.9578 103.486 84.513C101.985 84.096 100.679 83.4566 99.5666 82.5948C98.4546 81.7052 97.5927 80.5931 96.9811 79.2587C96.3695 77.9243 96.0637 76.3536 96.0637 74.5466C96.0637 73.0175 96.2861 71.5302 96.7309 70.0846C97.2035 68.6112 97.7178 67.1239 98.2739 65.6226C98.8299 64.0936 99.3303 62.509 99.7751 60.8688C100.248 59.2286 100.484 57.4493 100.484 55.5311C100.484 53.5573 100.289 51.5974 99.9002 49.6513C99.5388 47.7053 99.1357 45.7732 98.6909 43.8549C98.2738 41.9089 97.8707 39.9629 97.4815 38.0169C97.1201 36.0708 96.9394 34.097 96.9394 32.0954C96.9394 31.2058 97.0089 30.2189 97.1479 29.1346C97.3147 28.0226 97.6066 26.994 98.0236 26.0488C98.4407 25.1036 99.0106 24.3113 99.7334 23.6719C100.484 23.0325 101.443 22.7128 102.611 22.7128C103.695 22.7128 104.585 22.824 105.28 23.0464C106.002 23.2688 106.628 23.5051 107.156 23.7553C107.684 24.0055 108.171 24.2418 108.616 24.4642C109.088 24.6866 109.616 24.7978 110.2 24.7978Z" fill="#FFFDFD"/>
<path d="M70.9603 61.0357C70.9603 60.3129 70.8213 59.7847 70.5433 59.451C70.2931 59.0896 69.9456 58.8394 69.5008 58.7004C69.0838 58.5614 68.6112 58.4919 68.0829 58.4919C67.5547 58.4919 67.0265 58.4919 66.4983 58.4919C65.6643 58.4919 64.7469 58.5058 63.7461 58.5336C62.7731 58.5336 61.8696 58.6726 61.0356 58.9506C60.2015 59.2008 59.5065 59.6317 58.9505 60.2434C58.3945 60.855 58.1165 61.7446 58.1165 62.9122C58.1165 63.8574 58.325 64.8721 58.742 65.9563C59.159 67.0127 59.6177 68.1248 60.1181 69.2924C60.6185 70.46 61.0773 71.6971 61.4943 73.0037C61.9113 74.2825 62.1198 75.6309 62.1198 77.0487C62.1198 77.9939 61.8974 78.8696 61.4526 79.6758C61.0078 80.482 60.41 81.2187 59.6594 81.886C58.9366 82.5532 58.0887 83.1509 57.1157 83.6791C56.1705 84.1795 55.1975 84.5965 54.1967 84.9301C53.1958 85.2915 52.2089 85.5556 51.2359 85.7224C50.2629 85.917 49.3872 86.0143 48.6088 86.0143C48.0528 86.0143 47.4551 85.9865 46.8157 85.9309C46.1762 85.9031 45.5368 85.8197 44.8974 85.6807C44.2858 85.5695 43.702 85.3888 43.146 85.1386C42.59 84.8884 42.1174 84.5548 41.7282 84.1378C40.505 82.8312 39.6154 81.3438 39.0594 79.6758C38.5033 78.0078 38.2253 76.2981 38.2253 74.5466C38.2253 72.5728 38.4616 70.6407 38.9343 68.7503C39.4069 66.832 39.9212 64.9416 40.4772 63.079C41.0332 61.1886 41.5475 59.2981 42.0201 57.4077C42.4927 55.4895 42.729 53.5574 42.729 51.6113C42.729 49.8043 42.59 48.039 42.312 46.3154C42.034 44.5917 41.7282 42.8959 41.3946 41.2279C41.0888 39.5321 40.7969 37.8502 40.5189 36.1821C40.2409 34.4863 40.1019 32.7905 40.1019 31.0947C40.1019 29.0374 40.3799 27.3972 40.9359 26.174C41.5197 24.9508 42.2981 24.0056 43.2711 23.3384C44.2719 22.6711 45.4395 22.2402 46.774 22.0456C48.1362 21.8232 49.5957 21.712 51.1525 21.712C52.8205 21.712 54.3496 21.9622 55.7396 22.4626C57.1574 22.9353 58.3806 23.5608 59.4092 24.3392C60.4656 25.0898 61.2858 25.9516 61.8696 26.9246C62.4534 27.8976 62.7453 28.8845 62.7453 29.8853C62.7453 31.1086 62.6341 32.1928 62.4117 33.138C62.2171 34.0832 61.9669 34.945 61.6611 35.7234C61.3831 36.474 61.0634 37.1551 60.7019 37.7668C60.3405 38.3784 60.0069 38.9622 59.7011 39.5182C59.4231 40.0742 59.1729 40.6163 58.9505 41.1445C58.7559 41.6727 58.6586 42.2287 58.6586 42.8125C58.6586 43.7021 58.8949 44.2859 59.3675 44.5639C59.8679 44.842 60.5212 44.981 61.3275 44.981C62.0225 44.981 62.7036 44.9254 63.3708 44.8141C64.0658 44.6751 64.7608 44.6056 65.4558 44.6056C66.2064 44.6056 67.0265 44.5361 67.9161 44.3971C68.8336 44.2581 69.6676 44.0079 70.4182 43.6465C71.1966 43.2573 71.836 42.7569 72.3364 42.1453C72.8646 41.5059 73.1287 40.6997 73.1287 39.7267C73.1287 38.9205 72.948 38.1143 72.5866 37.308C72.253 36.474 71.8638 35.64 71.419 34.806C71.002 33.972 70.6128 33.138 70.2514 32.304C69.9178 31.4422 69.751 30.5526 69.751 29.6351C69.751 28.4119 70.0985 27.3277 70.7935 26.3825C71.5163 25.4095 72.4059 24.6033 73.4623 23.9639C74.5187 23.2967 75.6585 22.7962 76.8818 22.4626C78.105 22.1012 79.2448 21.9205 80.3012 21.9205C82.3028 21.9205 83.9987 22.3653 85.3887 23.255C86.8065 24.1446 87.9463 25.2983 88.8081 26.7161C89.6977 28.1339 90.3371 29.7185 90.7264 31.47C91.1156 33.2214 91.3102 34.9589 91.3102 36.6825C91.3102 38.1004 91.1017 39.3792 90.6846 40.519C90.2676 41.631 89.8089 42.6874 89.3085 43.6882C88.8081 44.6612 88.3494 45.6343 87.9324 46.6073C87.5154 47.5525 87.3069 48.5672 87.3069 49.6514C87.3069 51.5696 87.6127 53.5296 88.2243 55.5312C88.8637 57.5328 89.5448 59.5622 90.2676 61.6195C91.0183 63.6489 91.6994 65.6922 92.311 67.7495C92.9504 69.7789 93.2701 71.7944 93.2701 73.796C93.2701 75.5475 92.8114 77.1043 91.894 78.4665C90.9766 79.8287 89.8089 80.9824 88.3911 81.9276C87.0011 82.8451 85.4721 83.554 83.8041 84.0544C82.136 84.5548 80.5375 84.805 79.0085 84.805C77.5073 84.805 75.9922 84.6382 74.4631 84.3046C72.9619 83.971 71.5997 83.4567 70.3765 82.7617C69.1811 82.0388 68.208 81.1075 67.4574 79.9677C66.7068 78.8279 66.3315 77.4657 66.3315 75.8811C66.3315 74.5744 66.5678 73.2817 67.0404 72.0029C67.5408 70.6963 68.069 69.4175 68.6251 68.1665C69.2089 66.8876 69.7371 65.6505 70.2097 64.4551C70.7101 63.2597 70.9603 62.1199 70.9603 61.0357Z" fill="#FFFDFD"/>
<path d="M120.684 13.6064C121.491 18.4814 119.446 19.4922 116.1 20.046C112.754 20.5997 108.368 26.1701 107.561 21.2951C107.298 19.7049 108.537 13.5895 108.763 11.8188C108.937 10.4581 109.017 10.2285 109.055 8.89519C108.698 6.74229 106.641 3.10135 108.057 2.86707C109.538 2.62203 114.232 4.2783 116.493 5.45247C116.763 5.93154 117.836 6.55734 118.681 7.7447C119.272 8.57664 119.846 9.63357 120.114 10.1618C120.793 12.7036 120.421 12.0162 120.684 13.6064Z" fill="#FF84AD"/>
<path d="M170.117 11.9219C170.886 16.5691 168.837 17.5494 165.49 18.1031C162.144 18.6568 157.721 24.0069 156.952 19.3597C156.702 17.8438 157.985 11.9971 158.225 10.3052C158.408 9.00509 158.49 8.7854 158.537 7.51239C158.198 5.46006 156.171 2.00016 157.586 1.76587C159.067 1.52084 163.743 3.06647 165.992 4.17024C166.258 4.62549 167.326 5.21477 168.16 6.34179C168.745 7.13144 169.309 8.136 169.573 8.63815C170.232 11.0593 169.866 10.4059 170.117 11.9219Z" fill="#FF84AD"/>
<path d="M190.888 51.5078C190.888 51.5078 190.378 66.7995 196.24 66.0349C202.101 65.2704 201.337 79.0329 201.337 79.0329C201.337 79.0329 208.331 77.5693 211.786 80.3072C224.034 90.0116 171.263 84.385 171.263 84.385L190.888 51.5078Z" fill="#FFFDFD"/>
<path d="M11.1978 122.617C11.1978 122.38 11.1522 122.207 11.0611 122.097C10.979 121.979 10.8651 121.897 10.7193 121.851C10.5825 121.806 10.4276 121.783 10.2544 121.783C10.0812 121.783 9.90803 121.783 9.73484 121.783C9.46139 121.783 9.1606 121.787 8.83246 121.796C8.51343 121.796 8.21719 121.842 7.94374 121.933C7.67029 122.015 7.44242 122.157 7.26012 122.357C7.07781 122.558 6.98666 122.849 6.98666 123.232C6.98666 123.542 7.05503 123.875 7.19175 124.23C7.32848 124.577 7.47888 124.941 7.64295 125.324C7.80702 125.707 7.95741 126.112 8.09414 126.541C8.23087 126.96 8.29923 127.402 8.29923 127.867C8.29923 128.177 8.22631 128.464 8.08047 128.728C7.93463 128.993 7.73865 129.234 7.49255 129.453C7.25556 129.672 6.97755 129.868 6.65852 130.041C6.34861 130.205 6.02959 130.342 5.70145 130.451C5.37331 130.57 5.04972 130.656 4.7307 130.711C4.41167 130.775 4.12455 130.807 3.86933 130.807C3.68703 130.807 3.49105 130.798 3.28141 130.779C3.07176 130.77 2.86212 130.743 2.65247 130.697C2.45194 130.661 2.26053 130.602 2.07823 130.52C1.89592 130.438 1.74097 130.328 1.61336 130.191C1.2123 129.763 0.920617 129.275 0.738317 128.728C0.556016 128.182 0.464866 127.621 0.464866 127.047C0.464866 126.4 0.542344 125.766 0.697299 125.146C0.852255 124.517 1.02088 123.897 1.20318 123.287C1.38548 122.667 1.55411 122.047 1.70907 121.427C1.86402 120.798 1.9415 120.165 1.9415 119.527C1.9415 118.934 1.89592 118.356 1.80477 117.79C1.71362 117.225 1.61336 116.669 1.50398 116.122C1.40371 115.566 1.30801 115.015 1.21686 114.468C1.12571 113.912 1.08013 113.356 1.08013 112.8C1.08013 112.125 1.17128 111.588 1.35358 111.187C1.545 110.786 1.80022 110.476 2.11924 110.257C2.44738 110.038 2.83021 109.897 3.26774 109.833C3.71437 109.76 4.19291 109.724 4.70335 109.724C5.25025 109.724 5.75158 109.806 6.20733 109.97C6.6722 110.125 7.07326 110.33 7.41051 110.585C7.75688 110.831 8.02578 111.114 8.21719 111.433C8.40861 111.752 8.50432 112.075 8.50432 112.403C8.50432 112.805 8.46786 113.16 8.39494 113.47C8.33113 113.78 8.2491 114.062 8.14883 114.318C8.05768 114.564 7.95286 114.787 7.83436 114.988C7.71587 115.188 7.60649 115.379 7.50622 115.562C7.41507 115.744 7.33304 115.922 7.26012 116.095C7.19631 116.268 7.16441 116.451 7.16441 116.642C7.16441 116.934 7.24189 117.125 7.39684 117.216C7.56091 117.307 7.77511 117.353 8.03945 117.353C8.26733 117.353 8.49064 117.335 8.7094 117.298C8.93728 117.253 9.16515 117.23 9.39303 117.23C9.63914 117.23 9.90803 117.207 10.1997 117.161C10.5005 117.116 10.774 117.034 11.0201 116.915C11.2753 116.788 11.4849 116.624 11.649 116.423C11.8222 116.214 11.9088 115.949 11.9088 115.63C11.9088 115.366 11.8495 115.101 11.731 114.837C11.6217 114.564 11.494 114.29 11.3482 114.017C11.2115 113.743 11.0839 113.47 10.9654 113.196C10.856 112.914 10.8013 112.622 10.8013 112.321C10.8013 111.92 10.9152 111.565 11.1431 111.255C11.3801 110.936 11.6718 110.672 12.0182 110.462C12.3645 110.243 12.7382 110.079 13.1393 109.97C13.5404 109.851 13.9141 109.792 14.2605 109.792C14.9167 109.792 15.4728 109.938 15.9285 110.23C16.3934 110.521 16.7671 110.899 17.0496 111.364C17.3413 111.829 17.551 112.349 17.6786 112.923C17.8062 113.497 17.87 114.067 17.87 114.632C17.87 115.097 17.8016 115.516 17.6649 115.89C17.5282 116.255 17.3778 116.601 17.2137 116.929C17.0496 117.248 16.8993 117.567 16.7625 117.886C16.6258 118.196 16.5574 118.529 16.5574 118.884C16.5574 119.513 16.6577 120.156 16.8582 120.812C17.0679 121.468 17.2912 122.134 17.5282 122.808C17.7743 123.474 17.9976 124.144 18.1981 124.818C18.4078 125.484 18.5126 126.144 18.5126 126.801C18.5126 127.375 18.3622 127.885 18.0614 128.332C17.7606 128.779 17.3778 129.157 16.9129 129.467C16.4572 129.768 15.9558 130 15.4089 130.164C14.862 130.328 14.3379 130.41 13.8366 130.41C13.3444 130.41 12.8476 130.355 12.3463 130.246C11.8541 130.137 11.4075 129.968 11.0064 129.74C10.6144 129.503 10.2954 129.198 10.0493 128.824C9.80321 128.45 9.68015 128.004 9.68015 127.484C9.68015 127.056 9.75763 126.632 9.91259 126.213C10.0767 125.784 10.2498 125.365 10.4321 124.955C10.6236 124.536 10.7967 124.13 10.9517 123.738C11.1158 123.346 11.1978 122.972 11.1978 122.617ZM28.1517 118.898C28.4161 118.898 28.6622 118.866 28.8901 118.802C29.1179 118.729 29.3139 118.638 29.478 118.529C29.6512 118.419 29.7833 118.296 29.8745 118.16C29.9748 118.014 30.0249 117.868 30.0249 117.722C30.0249 117.558 29.9611 117.367 29.8335 117.148C29.7059 116.929 29.5463 116.724 29.3549 116.533C29.1726 116.332 28.9721 116.168 28.7533 116.04C28.5437 115.904 28.3477 115.835 28.1654 115.835C27.9467 115.835 27.7279 115.89 27.5091 115.999C27.2995 116.1 27.1081 116.232 26.9349 116.396C26.7617 116.56 26.6204 116.747 26.511 116.956C26.4108 117.157 26.3606 117.357 26.3606 117.558C26.3606 117.667 26.4017 117.8 26.4837 117.954C26.5748 118.109 26.6979 118.255 26.8529 118.392C27.0169 118.529 27.2083 118.647 27.4271 118.747C27.6459 118.848 27.8874 118.898 28.1517 118.898ZM28.1244 110.257C28.4799 110.266 28.8718 110.271 29.3002 110.271C29.7378 110.261 30.1844 110.271 30.6401 110.298C31.0959 110.325 31.5471 110.38 31.9937 110.462C32.4404 110.544 32.846 110.676 33.2106 110.858C33.5752 111.041 33.8851 111.287 34.1403 111.597C34.4047 111.907 34.5778 112.303 34.6599 112.786C34.7328 113.196 34.7738 113.625 34.7829 114.071C34.792 114.518 34.7966 114.974 34.7966 115.439C34.8057 115.904 34.8194 116.378 34.8376 116.861C34.8558 117.344 34.9105 117.827 35.0017 118.31C35.1475 119.085 35.3207 119.864 35.5212 120.648C35.7309 121.432 35.9314 122.207 36.1228 122.972C36.3142 123.729 36.4829 124.467 36.6287 125.187C36.7837 125.898 36.8794 126.577 36.9158 127.224C36.9341 127.626 36.8384 127.995 36.6287 128.332C36.4191 128.669 36.1502 128.938 35.822 129.139C35.6215 129.257 35.38 129.371 35.0974 129.48C34.8148 129.581 34.5049 129.672 34.1677 129.754C33.8304 129.827 33.4795 129.886 33.1149 129.932C32.7503 129.977 32.3857 130 32.0211 130C31.7112 130 31.4058 129.982 31.105 129.945C30.8133 129.909 30.5399 129.85 30.2847 129.768C30.0294 129.676 29.797 129.562 29.5874 129.426C29.3868 129.289 29.2228 129.125 29.0952 128.934C28.8673 128.587 28.6804 128.223 28.5346 127.84C28.3979 127.448 28.3386 127.042 28.3568 126.623C28.3659 126.313 28.4343 126.03 28.5619 125.775C28.6986 125.511 28.8627 125.265 29.0541 125.037C29.2455 124.8 29.4461 124.577 29.6557 124.367C29.8745 124.148 30.0705 123.934 30.2436 123.724C30.4168 123.506 30.5536 123.287 30.6538 123.068C30.7541 122.849 30.786 122.621 30.7495 122.384C30.7222 122.202 30.6174 122.056 30.4351 121.947C30.2619 121.837 30.0568 121.755 29.8198 121.701C29.5919 121.646 29.3595 121.614 29.1225 121.605C28.8855 121.587 28.6941 121.578 28.5482 121.578C28.2566 121.578 27.9512 121.596 27.6322 121.632C27.3132 121.669 27.026 121.737 26.7708 121.837C26.5156 121.929 26.3105 122.056 26.1556 122.22C26.0006 122.375 25.9368 122.576 25.9641 122.822C26.0006 123.114 26.0553 123.36 26.1282 123.56C26.2102 123.761 26.2968 123.948 26.388 124.121C26.4791 124.285 26.5703 124.454 26.6614 124.627C26.7617 124.8 26.8483 125.005 26.9212 125.242C26.9941 125.479 27.0488 125.766 27.0853 126.103C27.1309 126.441 27.1445 126.86 27.1263 127.361C27.1263 127.507 27.0944 127.671 27.0306 127.853C26.9668 128.027 26.8848 128.204 26.7845 128.387C26.6842 128.56 26.5748 128.724 26.4564 128.879C26.3379 129.034 26.2239 129.157 26.1145 129.248C25.7591 129.531 25.3215 129.745 24.802 129.891C24.2915 130.027 23.7583 130.096 23.2023 130.096C22.8286 130.096 22.4549 130.064 22.0811 130C21.7074 129.936 21.3519 129.84 21.0147 129.713C20.6865 129.585 20.3812 129.426 20.0986 129.234C19.8252 129.043 19.5973 128.82 19.415 128.564C19.2054 128.273 19.0823 127.949 19.0458 127.594C19.0094 127.238 19.0458 126.896 19.1552 126.568C19.3375 126.021 19.5517 125.415 19.7978 124.75C20.0439 124.084 20.29 123.41 20.5361 122.726C20.7823 122.033 21.0147 121.354 21.2334 120.689C21.4613 120.014 21.6391 119.395 21.7667 118.83C21.9216 118.146 22.031 117.517 22.0948 116.943C22.1586 116.368 22.2179 115.808 22.2726 115.261C22.3364 114.714 22.4093 114.158 22.4913 113.593C22.5825 113.019 22.7283 112.399 22.9288 111.733C23.0291 111.387 23.1841 111.095 23.3937 110.858C23.6125 110.612 23.8631 110.416 24.1457 110.271C24.4283 110.116 24.7336 110.002 25.0618 109.929C25.3899 109.856 25.7226 109.819 26.0598 109.819C26.2239 109.819 26.3834 109.828 26.5384 109.847C26.7025 109.856 26.862 109.879 27.0169 109.915C27.2083 109.961 27.3906 110.029 27.5638 110.12C27.737 110.202 27.9239 110.248 28.1244 110.257ZM46.8694 117.831C47.0973 117.831 47.348 117.8 47.6214 117.736C47.904 117.672 48.1683 117.572 48.4144 117.435C48.6605 117.298 48.8656 117.12 49.0297 116.902C49.1938 116.674 49.2758 116.4 49.2758 116.081C49.2758 115.781 49.1892 115.539 49.016 115.357C48.852 115.174 48.6469 115.033 48.4008 114.933C48.1547 114.833 47.8949 114.769 47.6214 114.741C47.348 114.705 47.111 114.687 46.9105 114.687C46.6735 114.687 46.4183 114.741 46.1448 114.851C45.8805 114.951 45.6344 115.097 45.4065 115.288C45.1786 115.471 44.9872 115.694 44.8322 115.958C44.6864 116.214 44.6135 116.492 44.6135 116.792C44.6135 117.029 44.7001 117.216 44.8733 117.353C45.0464 117.49 45.2515 117.594 45.4885 117.667C45.7346 117.74 45.9853 117.786 46.2405 117.804C46.4957 117.822 46.7054 117.831 46.8694 117.831ZM41.3731 110.106C41.5827 110.106 41.7833 110.134 41.9747 110.188C42.1752 110.243 42.3712 110.302 42.5626 110.366C42.7631 110.43 42.9591 110.489 43.1505 110.544C43.351 110.599 43.5516 110.626 43.7521 110.626C44.0529 110.626 44.3446 110.576 44.6271 110.476C44.9188 110.375 45.206 110.266 45.4885 110.147C45.7711 110.02 46.0582 109.906 46.3499 109.806C46.6416 109.705 46.9469 109.655 47.2659 109.655C48.0407 109.655 48.7563 109.756 49.4125 109.956C50.0779 110.147 50.675 110.416 51.2036 110.763C51.7414 111.1 52.2108 111.501 52.6119 111.966C53.0221 112.422 53.3639 112.918 53.6373 113.456C53.9108 113.985 54.1159 114.536 54.2526 115.111C54.3985 115.685 54.4714 116.255 54.4714 116.82C54.4714 117.421 54.3848 118.027 54.2116 118.638C54.0475 119.249 53.8105 119.837 53.5006 120.402C53.1998 120.967 52.8352 121.496 52.4068 121.988C51.9784 122.471 51.5044 122.895 50.9849 123.259C50.4653 123.615 49.9093 123.897 49.3168 124.107C48.7244 124.308 48.1136 124.408 47.4847 124.408C47.2477 124.408 47.0198 124.376 46.8011 124.312C46.5823 124.248 46.3727 124.18 46.1721 124.107C45.9716 124.034 45.7756 123.966 45.5842 123.902C45.3928 123.838 45.2014 123.806 45.01 123.806C44.8368 123.806 44.7229 123.861 44.6682 123.97C44.6226 124.071 44.5998 124.198 44.5998 124.353C44.5998 124.563 44.6545 124.768 44.7639 124.969C44.8733 125.16 45.01 125.351 45.174 125.543C45.3472 125.734 45.5295 125.926 45.721 126.117C45.9215 126.299 46.1038 126.486 46.2679 126.678C46.441 126.869 46.5823 127.065 46.6917 127.265C46.8011 127.457 46.8558 127.657 46.8558 127.867C46.8558 128.332 46.7054 128.747 46.4046 129.111C46.1038 129.476 45.7346 129.79 45.2971 130.055C44.8596 130.31 44.3947 130.506 43.9025 130.643C43.4194 130.779 42.991 130.848 42.6173 130.848C41.9975 130.848 41.4004 130.766 40.8262 130.602C40.2519 130.447 39.7461 130.205 39.3085 129.877C38.871 129.549 38.5201 129.139 38.2557 128.646C37.9914 128.145 37.8592 127.562 37.8592 126.896C37.8592 126.286 37.9367 125.693 38.0917 125.119C38.2466 124.536 38.4198 123.957 38.6112 123.382C38.8026 122.799 38.9758 122.216 39.1308 121.632C39.2857 121.04 39.3632 120.429 39.3632 119.8C39.3632 119.226 39.2857 118.675 39.1308 118.146C38.9758 117.608 38.8026 117.079 38.6112 116.56C38.4198 116.031 38.2466 115.503 38.0917 114.974C37.9367 114.445 37.8592 113.898 37.8592 113.333C37.8592 112.732 37.9458 112.226 38.119 111.816C38.2922 111.396 38.5338 111.064 38.8437 110.817C39.1536 110.562 39.5227 110.38 39.9511 110.271C40.3795 110.161 40.8535 110.106 41.3731 110.106ZM64.1242 117.831C64.3521 117.831 64.6027 117.8 64.8762 117.736C65.1587 117.672 65.4231 117.572 65.6692 117.435C65.9153 117.298 66.1204 117.12 66.2844 116.902C66.4485 116.674 66.5305 116.4 66.5305 116.081C66.5305 115.781 66.444 115.539 66.2708 115.357C66.1067 115.174 65.9016 115.033 65.6555 114.933C65.4094 114.833 65.1496 114.769 64.8762 114.741C64.6027 114.705 64.3657 114.687 64.1652 114.687C63.9282 114.687 63.673 114.741 63.3995 114.851C63.1352 114.951 62.8891 115.097 62.6612 115.288C62.4333 115.471 62.2419 115.694 62.087 115.958C61.9411 116.214 61.8682 116.492 61.8682 116.792C61.8682 117.029 61.9548 117.216 62.128 117.353C62.3012 117.49 62.5063 117.594 62.7433 117.667C62.9894 117.74 63.24 117.786 63.4952 117.804C63.7505 117.822 63.9601 117.831 64.1242 117.831ZM58.6278 110.106C58.8375 110.106 59.038 110.134 59.2294 110.188C59.4299 110.243 59.6259 110.302 59.8173 110.366C60.0179 110.43 60.2138 110.489 60.4053 110.544C60.6058 110.599 60.8063 110.626 61.0068 110.626C61.3076 110.626 61.5993 110.576 61.8819 110.476C62.1736 110.375 62.4607 110.266 62.7433 110.147C63.0258 110.02 63.3129 109.906 63.6046 109.806C63.8963 109.705 64.2017 109.655 64.5207 109.655C65.2955 109.655 66.011 109.756 66.6673 109.956C67.3327 110.147 67.9297 110.416 68.4584 110.763C68.9962 111.1 69.4656 111.501 69.8666 111.966C70.2768 112.422 70.6186 112.918 70.8921 113.456C71.1655 113.985 71.3706 114.536 71.5073 115.111C71.6532 115.685 71.7261 116.255 71.7261 116.82C71.7261 117.421 71.6395 118.027 71.4663 118.638C71.3023 119.249 71.0653 119.837 70.7554 120.402C70.4546 120.967 70.09 121.496 69.6616 121.988C69.2332 122.471 68.7592 122.895 68.2396 123.259C67.7201 123.615 67.164 123.897 66.5716 124.107C65.9791 124.308 65.3684 124.408 64.7394 124.408C64.5025 124.408 64.2746 124.376 64.0558 124.312C63.8371 124.248 63.6274 124.18 63.4269 124.107C63.2264 124.034 63.0304 123.966 62.839 123.902C62.6475 123.838 62.4561 123.806 62.2647 123.806C62.0915 123.806 61.9776 123.861 61.9229 123.97C61.8773 124.071 61.8545 124.198 61.8545 124.353C61.8545 124.563 61.9092 124.768 62.0186 124.969C62.128 125.16 62.2647 125.351 62.4288 125.543C62.602 125.734 62.7843 125.926 62.9757 126.117C63.1762 126.299 63.3585 126.486 63.5226 126.678C63.6958 126.869 63.8371 127.065 63.9464 127.265C64.0558 127.457 64.1105 127.657 64.1105 127.867C64.1105 128.332 63.9601 128.747 63.6593 129.111C63.3585 129.476 62.9894 129.79 62.5518 130.055C62.1143 130.31 61.6495 130.506 61.1572 130.643C60.6741 130.779 60.2457 130.848 59.872 130.848C59.2522 130.848 58.6552 130.766 58.0809 130.602C57.5067 130.447 57.0008 130.205 56.5633 129.877C56.1257 129.549 55.7748 129.139 55.5105 128.646C55.2461 128.145 55.114 127.562 55.114 126.896C55.114 126.286 55.1915 125.693 55.3464 125.119C55.5014 124.536 55.6746 123.957 55.866 123.382C56.0574 122.799 56.2306 122.216 56.3855 121.632C56.5405 121.04 56.618 120.429 56.618 119.8C56.618 119.226 56.5405 118.675 56.3855 118.146C56.2306 117.608 56.0574 117.079 55.866 116.56C55.6746 116.031 55.5014 115.503 55.3464 114.974C55.1915 114.445 55.114 113.898 55.114 113.333C55.114 112.732 55.2006 112.226 55.3738 111.816C55.5469 111.396 55.7885 111.064 56.0984 110.817C56.4083 110.562 56.7775 110.38 57.2059 110.271C57.6343 110.161 58.1083 110.106 58.6278 110.106ZM77.5233 110.763C77.9152 110.708 78.2525 110.781 78.535 110.982C78.8267 111.182 79.0865 111.446 79.3144 111.775C79.5422 112.103 79.7473 112.472 79.9296 112.882C80.1119 113.283 80.2897 113.657 80.4629 114.003C80.6452 114.35 80.832 114.641 81.0234 114.878C81.224 115.115 81.4473 115.234 81.6934 115.234C81.8301 115.234 81.9532 115.206 82.0625 115.152C82.4545 114.969 82.7553 114.71 82.9649 114.372C83.1746 114.026 83.3478 113.652 83.4845 113.251C83.6303 112.841 83.7625 112.426 83.881 112.007C84.0086 111.579 84.1818 111.196 84.4005 110.858C84.6193 110.512 84.9064 110.23 85.2619 110.011C85.6265 109.792 86.1142 109.683 86.7249 109.683C87.1989 109.683 87.6774 109.756 88.1605 109.901C88.6527 110.047 89.0948 110.261 89.4867 110.544C89.8787 110.827 90.1977 111.177 90.4438 111.597C90.699 112.007 90.8266 112.476 90.8266 113.005C90.8266 113.178 90.8221 113.37 90.813 113.579C90.8038 113.789 90.7811 113.999 90.7446 114.208C90.7173 114.418 90.6671 114.623 90.5942 114.823C90.5304 115.015 90.4392 115.179 90.3208 115.316C90.0929 115.589 89.8012 115.867 89.4457 116.15C89.0902 116.432 88.712 116.719 88.3109 117.011C87.9189 117.294 87.5224 117.59 87.1214 117.9C86.7294 118.201 86.3739 118.52 86.0549 118.857C85.745 119.194 85.4898 119.545 85.2893 119.91C85.0887 120.274 84.9885 120.662 84.9885 121.072C84.9885 121.737 85.0705 122.325 85.2346 122.836C85.3986 123.337 85.5764 123.815 85.7678 124.271C85.9592 124.727 86.137 125.183 86.301 125.638C86.4651 126.094 86.5471 126.605 86.5471 127.17C86.5471 127.48 86.4651 127.767 86.301 128.031C86.1461 128.295 85.9364 128.537 85.6721 128.756C85.4078 128.975 85.107 129.166 84.7697 129.33C84.4416 129.494 84.1043 129.635 83.7579 129.754C83.4116 129.863 83.0743 129.95 82.7462 130.014C82.418 130.068 82.1309 130.096 81.8848 130.096C81.4199 130.096 80.9095 130.073 80.3535 130.027C79.8066 129.973 79.2916 129.854 78.8085 129.672C78.3254 129.49 77.9198 129.216 77.5916 128.852C77.2726 128.478 77.1131 127.976 77.1131 127.348C77.1131 127.083 77.1404 126.823 77.1951 126.568C77.2589 126.313 77.3273 126.062 77.4002 125.816C77.4822 125.561 77.5506 125.306 77.6053 125.051C77.6691 124.786 77.701 124.522 77.701 124.258C77.701 123.328 77.6235 122.53 77.4686 121.865C77.3227 121.199 77.1222 120.625 76.867 120.142C76.6209 119.659 76.3383 119.249 76.0193 118.912C75.7094 118.574 75.3858 118.269 75.0485 117.996C74.7204 117.713 74.3968 117.444 74.0778 117.189C73.7679 116.924 73.4853 116.628 73.2301 116.3C72.984 115.972 72.7834 115.594 72.6285 115.165C72.4827 114.728 72.4097 114.199 72.4097 113.579C72.4097 113.124 72.4781 112.695 72.6148 112.294C72.7607 111.884 72.9657 111.528 73.2301 111.228C73.4944 110.918 73.8134 110.672 74.1872 110.489C74.57 110.307 74.9984 110.216 75.4724 110.216C75.8279 110.216 76.1788 110.266 76.5252 110.366C76.8715 110.467 77.2042 110.599 77.5233 110.763ZM107.849 120.566C108.232 120.566 108.551 120.498 108.806 120.361C109.061 120.224 109.266 120.042 109.421 119.814C109.576 119.577 109.686 119.308 109.749 119.007C109.813 118.697 109.845 118.378 109.845 118.05C109.845 117.695 109.79 117.367 109.681 117.066C109.581 116.765 109.43 116.505 109.23 116.286C109.029 116.068 108.783 115.899 108.492 115.781C108.2 115.653 107.872 115.589 107.507 115.589C107.179 115.589 106.906 115.671 106.687 115.835C106.477 115.999 106.309 116.204 106.181 116.451C106.062 116.697 105.98 116.97 105.935 117.271C105.889 117.563 105.866 117.841 105.866 118.105C105.866 118.36 105.917 118.634 106.017 118.925C106.117 119.217 106.254 119.486 106.427 119.732C106.6 119.969 106.81 120.169 107.056 120.334C107.302 120.488 107.566 120.566 107.849 120.566ZM104.294 110.735C104.449 110.735 104.64 110.667 104.868 110.53C105.105 110.384 105.365 110.23 105.648 110.065C105.93 109.892 106.231 109.737 106.55 109.601C106.878 109.455 107.211 109.382 107.548 109.382C108.323 109.382 109.038 109.55 109.695 109.888C110.351 110.225 110.943 110.672 111.472 111.228C112.001 111.784 112.466 112.426 112.867 113.155C113.277 113.885 113.619 114.641 113.892 115.425C114.166 116.2 114.371 116.979 114.507 117.763C114.644 118.538 114.713 119.258 114.713 119.923C114.713 120.68 114.644 121.464 114.507 122.275C114.38 123.086 114.179 123.884 113.906 124.668C113.632 125.442 113.286 126.181 112.867 126.883C112.457 127.575 111.969 128.186 111.404 128.715C110.93 129.161 110.392 129.508 109.79 129.754C109.189 130 108.56 130.178 107.904 130.287C107.256 130.406 106.596 130.474 105.921 130.492C105.247 130.52 104.595 130.533 103.966 130.533H103.747C103.146 130.533 102.594 130.46 102.093 130.314C101.601 130.178 101.172 129.968 100.808 129.686C100.443 129.394 100.16 129.029 99.9599 128.592C99.7594 128.154 99.6591 127.639 99.6591 127.047C99.6591 126.545 99.732 126.058 99.8779 125.584C100.033 125.101 100.201 124.613 100.384 124.121C100.566 123.619 100.73 123.1 100.876 122.562C101.031 122.024 101.108 121.441 101.108 120.812C101.108 120.165 101.045 119.522 100.917 118.884C100.798 118.246 100.666 117.613 100.52 116.984C100.384 116.346 100.252 115.708 100.124 115.07C100.005 114.432 99.9462 113.784 99.9462 113.128C99.9462 112.836 99.969 112.513 100.015 112.157C100.069 111.793 100.165 111.455 100.302 111.146C100.438 110.836 100.625 110.576 100.862 110.366C101.108 110.157 101.423 110.052 101.806 110.052C102.161 110.052 102.453 110.088 102.681 110.161C102.918 110.234 103.123 110.312 103.296 110.394C103.469 110.476 103.629 110.553 103.775 110.626C103.929 110.699 104.103 110.735 104.294 110.735ZM117.365 109.669C117.693 109.669 118.012 109.724 118.322 109.833C118.632 109.942 118.942 110.061 119.252 110.188C119.571 110.316 119.899 110.435 120.236 110.544C120.574 110.653 120.938 110.708 121.33 110.708C121.795 110.708 122.255 110.672 122.711 110.599C123.167 110.517 123.618 110.43 124.065 110.339C124.52 110.239 124.976 110.152 125.432 110.079C125.888 109.997 126.348 109.956 126.813 109.956C127.241 109.956 127.651 110.011 128.043 110.12C128.435 110.22 128.777 110.384 129.069 110.612C129.37 110.831 129.607 111.114 129.78 111.46C129.962 111.806 130.053 112.217 130.053 112.691C130.053 113.101 130.017 113.515 129.944 113.935C129.871 114.345 129.743 114.719 129.561 115.056C129.379 115.384 129.133 115.658 128.823 115.876C128.513 116.086 128.116 116.191 127.633 116.191C127.186 116.191 126.767 116.136 126.375 116.027C125.983 115.908 125.6 115.781 125.227 115.644C124.862 115.498 124.502 115.37 124.147 115.261C123.791 115.143 123.422 115.083 123.039 115.083C122.884 115.083 122.706 115.115 122.506 115.179C122.305 115.234 122.114 115.316 121.932 115.425C121.749 115.525 121.594 115.648 121.467 115.794C121.348 115.94 121.289 116.104 121.289 116.286C121.289 116.551 121.348 116.774 121.467 116.956C121.594 117.13 121.754 117.271 121.945 117.38C122.137 117.49 122.346 117.567 122.574 117.613C122.802 117.658 123.021 117.681 123.231 117.681C123.358 117.681 123.522 117.676 123.723 117.667C123.932 117.658 124.156 117.658 124.393 117.667C124.63 117.667 124.867 117.681 125.104 117.708C125.35 117.727 125.569 117.768 125.76 117.831C125.951 117.895 126.106 117.986 126.225 118.105C126.352 118.214 126.416 118.365 126.416 118.556C126.416 118.811 126.343 119.048 126.197 119.267C126.061 119.477 125.878 119.659 125.651 119.814C125.423 119.969 125.172 120.092 124.899 120.183C124.625 120.265 124.356 120.306 124.092 120.306C123.891 120.306 123.695 120.297 123.504 120.279C123.313 120.251 123.121 120.238 122.93 120.238C122.611 120.238 122.342 120.32 122.123 120.484C121.904 120.639 121.795 120.89 121.795 121.236C121.795 121.564 121.872 121.837 122.027 122.056C122.182 122.266 122.374 122.435 122.602 122.562C122.839 122.69 123.098 122.781 123.381 122.836C123.673 122.89 123.946 122.918 124.201 122.918C124.803 122.918 125.4 122.872 125.992 122.781C126.594 122.681 127.196 122.63 127.797 122.63C128.618 122.63 129.196 122.826 129.534 123.218C129.88 123.601 130.053 124.221 130.053 125.078C130.053 126.044 129.971 126.887 129.807 127.607C129.643 128.318 129.356 128.911 128.946 129.385C128.545 129.85 127.998 130.196 127.305 130.424C126.612 130.661 125.737 130.779 124.68 130.779C124.16 130.779 123.673 130.693 123.217 130.52C122.77 130.355 122.369 130.178 122.014 129.986C121.658 129.786 121.357 129.603 121.111 129.439C120.865 129.266 120.687 129.18 120.578 129.18C120.414 129.18 120.245 129.243 120.072 129.371C119.908 129.49 119.717 129.626 119.498 129.781C119.288 129.927 119.042 130.064 118.76 130.191C118.477 130.319 118.131 130.383 117.721 130.383C117.392 130.383 117.087 130.342 116.804 130.26C116.522 130.187 116.271 130.073 116.052 129.918C115.843 129.763 115.674 129.572 115.547 129.344C115.428 129.116 115.369 128.847 115.369 128.537C115.369 128.145 115.455 127.712 115.629 127.238C115.802 126.755 115.989 126.249 116.189 125.72C116.399 125.183 116.59 124.627 116.763 124.052C116.937 123.469 117.023 122.877 117.023 122.275V120.962C117.023 120.206 116.937 119.486 116.763 118.802C116.59 118.109 116.399 117.426 116.189 116.751C115.989 116.077 115.802 115.393 115.629 114.7C115.455 114.008 115.369 113.288 115.369 112.54C115.369 112.285 115.41 111.993 115.492 111.665C115.574 111.337 115.697 111.027 115.861 110.735C116.025 110.435 116.23 110.184 116.476 109.983C116.732 109.774 117.028 109.669 117.365 109.669ZM140.458 118.898C140.722 118.898 140.968 118.866 141.196 118.802C141.424 118.729 141.62 118.638 141.784 118.529C141.957 118.419 142.09 118.296 142.181 118.16C142.281 118.014 142.331 117.868 142.331 117.722C142.331 117.558 142.267 117.367 142.14 117.148C142.012 116.929 141.853 116.724 141.661 116.533C141.479 116.332 141.278 116.168 141.06 116.04C140.85 115.904 140.654 115.835 140.472 115.835C140.253 115.835 140.034 115.89 139.815 115.999C139.606 116.1 139.414 116.232 139.241 116.396C139.068 116.56 138.927 116.747 138.817 116.956C138.717 117.157 138.667 117.357 138.667 117.558C138.667 117.667 138.708 117.8 138.79 117.954C138.881 118.109 139.004 118.255 139.159 118.392C139.323 118.529 139.515 118.647 139.733 118.747C139.952 118.848 140.194 118.898 140.458 118.898ZM140.431 110.257C140.786 110.266 141.178 110.271 141.606 110.271C142.044 110.261 142.491 110.271 142.946 110.298C143.402 110.325 143.853 110.38 144.3 110.462C144.747 110.544 145.152 110.676 145.517 110.858C145.881 111.041 146.191 111.287 146.447 111.597C146.711 111.907 146.884 112.303 146.966 112.786C147.039 113.196 147.08 113.625 147.089 114.071C147.098 114.518 147.103 114.974 147.103 115.439C147.112 115.904 147.126 116.378 147.144 116.861C147.162 117.344 147.217 117.827 147.308 118.31C147.454 119.085 147.627 119.864 147.827 120.648C148.037 121.432 148.238 122.207 148.429 122.972C148.62 123.729 148.789 124.467 148.935 125.187C149.09 125.898 149.186 126.577 149.222 127.224C149.24 127.626 149.145 127.995 148.935 128.332C148.725 128.669 148.456 128.938 148.128 129.139C147.928 129.257 147.686 129.371 147.404 129.48C147.121 129.581 146.811 129.672 146.474 129.754C146.137 129.827 145.786 129.886 145.421 129.932C145.056 129.977 144.692 130 144.327 130C144.017 130 143.712 129.982 143.411 129.945C143.12 129.909 142.846 129.85 142.591 129.768C142.336 129.676 142.103 129.562 141.894 129.426C141.693 129.289 141.529 129.125 141.401 128.934C141.173 128.587 140.987 128.223 140.841 127.84C140.704 127.448 140.645 127.042 140.663 126.623C140.672 126.313 140.741 126.03 140.868 125.775C141.005 125.511 141.169 125.265 141.36 125.037C141.552 124.8 141.752 124.577 141.962 124.367C142.181 124.148 142.377 123.934 142.55 123.724C142.723 123.506 142.86 123.287 142.96 123.068C143.06 122.849 143.092 122.621 143.056 122.384C143.028 122.202 142.924 122.056 142.741 121.947C142.568 121.837 142.363 121.755 142.126 121.701C141.898 121.646 141.666 121.614 141.429 121.605C141.192 121.587 141 121.578 140.854 121.578C140.563 121.578 140.257 121.596 139.938 121.632C139.619 121.669 139.332 121.737 139.077 121.837C138.822 121.929 138.617 122.056 138.462 122.22C138.307 122.375 138.243 122.576 138.27 122.822C138.307 123.114 138.361 123.36 138.434 123.56C138.516 123.761 138.603 123.948 138.694 124.121C138.785 124.285 138.876 124.454 138.968 124.627C139.068 124.8 139.154 125.005 139.227 125.242C139.3 125.479 139.355 125.766 139.391 126.103C139.437 126.441 139.451 126.86 139.433 127.361C139.433 127.507 139.401 127.671 139.337 127.853C139.273 128.027 139.191 128.204 139.091 128.387C138.99 128.56 138.881 128.724 138.763 128.879C138.644 129.034 138.53 129.157 138.421 129.248C138.065 129.531 137.628 129.745 137.108 129.891C136.598 130.027 136.064 130.096 135.508 130.096C135.135 130.096 134.761 130.064 134.387 130C134.014 129.936 133.658 129.84 133.321 129.713C132.993 129.585 132.687 129.426 132.405 129.234C132.131 129.043 131.903 128.82 131.721 128.564C131.512 128.273 131.388 127.949 131.352 127.594C131.316 127.238 131.352 126.896 131.461 126.568C131.644 126.021 131.858 125.415 132.104 124.75C132.35 124.084 132.596 123.41 132.842 122.726C133.088 122.033 133.321 121.354 133.54 120.689C133.768 120.014 133.945 119.395 134.073 118.83C134.228 118.146 134.337 117.517 134.401 116.943C134.465 116.368 134.524 115.808 134.579 115.261C134.643 114.714 134.715 114.158 134.798 113.593C134.889 113.019 135.035 112.399 135.235 111.733C135.335 111.387 135.49 111.095 135.7 110.858C135.919 110.612 136.169 110.416 136.452 110.271C136.734 110.116 137.04 110.002 137.368 109.929C137.696 109.856 138.029 109.819 138.366 109.819C138.53 109.819 138.69 109.828 138.845 109.847C139.009 109.856 139.168 109.879 139.323 109.915C139.515 109.961 139.697 110.029 139.87 110.12C140.043 110.202 140.23 110.248 140.431 110.257ZM160.42 115.931C160.146 115.931 159.919 116.013 159.736 116.177C159.554 116.341 159.408 116.542 159.299 116.779C159.189 117.016 159.112 117.271 159.066 117.544C159.021 117.809 158.998 118.046 158.998 118.255C158.998 118.501 159.007 118.747 159.025 118.994C159.043 119.24 159.057 119.486 159.066 119.732C159.084 120.133 159.148 120.525 159.258 120.908C159.367 121.281 159.499 121.651 159.654 122.015C159.809 122.371 159.978 122.726 160.16 123.082C160.342 123.437 160.511 123.797 160.666 124.162C160.821 124.526 160.949 124.9 161.049 125.283C161.149 125.666 161.199 126.062 161.199 126.472C161.199 126.946 161.094 127.452 160.885 127.99C160.675 128.528 160.361 129.025 159.941 129.48C159.531 129.936 159.021 130.314 158.41 130.615C157.799 130.916 157.093 131.066 156.291 131.066C155.489 131.066 154.81 130.921 154.254 130.629C153.707 130.346 153.265 129.973 152.927 129.508C152.59 129.043 152.344 128.519 152.189 127.935C152.043 127.343 151.97 126.746 151.97 126.144C151.97 125.579 152.039 124.996 152.175 124.394C152.312 123.784 152.462 123.177 152.626 122.576C152.8 121.965 152.955 121.359 153.091 120.757C153.228 120.156 153.296 119.572 153.296 119.007C153.296 118.479 153.228 118.073 153.091 117.79C152.964 117.499 152.777 117.285 152.531 117.148C152.294 117.011 152.002 116.934 151.656 116.915C151.318 116.888 150.936 116.874 150.507 116.874C150.143 116.874 149.792 116.861 149.454 116.833C149.117 116.797 148.821 116.71 148.566 116.574C148.311 116.437 148.105 116.227 147.95 115.945C147.805 115.662 147.732 115.27 147.732 114.769C147.732 114.094 147.755 113.461 147.8 112.868C147.846 112.276 147.978 111.761 148.197 111.323C148.424 110.877 148.766 110.526 149.222 110.271C149.687 110.015 150.334 109.888 151.164 109.888C151.61 109.888 152.052 109.92 152.49 109.983C152.927 110.047 153.365 110.12 153.802 110.202C154.24 110.275 154.677 110.343 155.115 110.407C155.552 110.471 155.994 110.503 156.441 110.503C156.87 110.503 157.298 110.48 157.726 110.435C158.155 110.38 158.579 110.321 158.998 110.257C159.426 110.193 159.85 110.138 160.269 110.093C160.698 110.038 161.126 110.011 161.555 110.011C162.047 110.011 162.503 110.061 162.922 110.161C163.35 110.252 163.715 110.412 164.016 110.64C164.326 110.868 164.567 111.173 164.74 111.556C164.923 111.939 165.014 112.417 165.014 112.991C165.014 113.301 165 113.67 164.973 114.099C164.945 114.518 164.873 114.924 164.754 115.316C164.636 115.708 164.462 116.04 164.234 116.314C164.016 116.587 163.706 116.724 163.305 116.724C163.05 116.724 162.794 116.683 162.539 116.601C162.284 116.519 162.033 116.428 161.787 116.327C161.55 116.227 161.313 116.136 161.076 116.054C160.848 115.972 160.629 115.931 160.42 115.931ZM175.952 122.617C175.952 122.38 175.906 122.207 175.815 122.097C175.733 121.979 175.619 121.897 175.473 121.851C175.337 121.806 175.182 121.783 175.008 121.783C174.835 121.783 174.662 121.783 174.489 121.783C174.215 121.783 173.915 121.787 173.586 121.796C173.267 121.796 172.971 121.842 172.698 121.933C172.424 122.015 172.196 122.157 172.014 122.357C171.832 122.558 171.741 122.849 171.741 123.232C171.741 123.542 171.809 123.875 171.946 124.23C172.083 124.577 172.233 124.941 172.397 125.324C172.561 125.707 172.711 126.112 172.848 126.541C172.985 126.96 173.053 127.402 173.053 127.867C173.053 128.177 172.98 128.464 172.834 128.728C172.689 128.993 172.493 129.234 172.247 129.453C172.01 129.672 171.732 129.868 171.413 130.041C171.103 130.205 170.784 130.342 170.455 130.451C170.127 130.57 169.804 130.656 169.485 130.711C169.166 130.775 168.879 130.807 168.623 130.807C168.441 130.807 168.245 130.798 168.035 130.779C167.826 130.77 167.616 130.743 167.406 130.697C167.206 130.661 167.015 130.602 166.832 130.52C166.65 130.438 166.495 130.328 166.367 130.191C165.966 129.763 165.675 129.275 165.492 128.728C165.31 128.182 165.219 127.621 165.219 127.047C165.219 126.4 165.296 125.766 165.451 125.146C165.606 124.517 165.775 123.897 165.957 123.287C166.14 122.667 166.308 122.047 166.463 121.427C166.618 120.798 166.696 120.165 166.696 119.527C166.696 118.934 166.65 118.356 166.559 117.79C166.468 117.225 166.367 116.669 166.258 116.122C166.158 115.566 166.062 115.015 165.971 114.468C165.88 113.912 165.834 113.356 165.834 112.8C165.834 112.125 165.925 111.588 166.108 111.187C166.299 110.786 166.554 110.476 166.873 110.257C167.201 110.038 167.584 109.897 168.022 109.833C168.468 109.76 168.947 109.724 169.457 109.724C170.004 109.724 170.506 109.806 170.961 109.97C171.426 110.125 171.827 110.33 172.165 110.585C172.511 110.831 172.78 111.114 172.971 111.433C173.163 111.752 173.258 112.075 173.258 112.403C173.258 112.805 173.222 113.16 173.149 113.47C173.085 113.78 173.003 114.062 172.903 114.318C172.812 114.564 172.707 114.787 172.588 114.988C172.47 115.188 172.361 115.379 172.26 115.562C172.169 115.744 172.087 115.922 172.014 116.095C171.95 116.268 171.918 116.451 171.918 116.642C171.918 116.934 171.996 117.125 172.151 117.216C172.315 117.307 172.529 117.353 172.793 117.353C173.021 117.353 173.245 117.335 173.463 117.298C173.691 117.253 173.919 117.23 174.147 117.23C174.393 117.23 174.662 117.207 174.954 117.161C175.255 117.116 175.528 117.034 175.774 116.915C176.029 116.788 176.239 116.624 176.403 116.423C176.576 116.214 176.663 115.949 176.663 115.63C176.663 115.366 176.604 115.101 176.485 114.837C176.376 114.564 176.248 114.29 176.102 114.017C175.966 113.743 175.838 113.47 175.719 113.196C175.61 112.914 175.555 112.622 175.555 112.321C175.555 111.92 175.669 111.565 175.897 111.255C176.134 110.936 176.426 110.672 176.772 110.462C177.119 110.243 177.492 110.079 177.893 109.97C178.294 109.851 178.668 109.792 179.014 109.792C179.671 109.792 180.227 109.938 180.683 110.23C181.147 110.521 181.521 110.899 181.804 111.364C182.095 111.829 182.305 112.349 182.433 112.923C182.56 113.497 182.624 114.067 182.624 114.632C182.624 115.097 182.556 115.516 182.419 115.89C182.282 116.255 182.132 116.601 181.968 116.929C181.804 117.248 181.653 117.567 181.517 117.886C181.38 118.196 181.311 118.529 181.311 118.884C181.311 119.513 181.412 120.156 181.612 120.812C181.822 121.468 182.045 122.134 182.282 122.808C182.528 123.474 182.752 124.144 182.952 124.818C183.162 125.484 183.267 126.144 183.267 126.801C183.267 127.375 183.116 127.885 182.815 128.332C182.515 128.779 182.132 129.157 181.667 129.467C181.211 129.768 180.71 130 180.163 130.164C179.616 130.328 179.092 130.41 178.591 130.41C178.098 130.41 177.602 130.355 177.1 130.246C176.608 130.137 176.161 129.968 175.76 129.74C175.368 129.503 175.049 129.198 174.803 128.824C174.557 128.45 174.434 128.004 174.434 127.484C174.434 127.056 174.512 126.632 174.667 126.213C174.831 125.784 175.004 125.365 175.186 124.955C175.378 124.536 175.551 124.13 175.706 123.738C175.87 123.346 175.952 122.972 175.952 122.617ZM200.357 120.566C200.74 120.566 201.059 120.498 201.314 120.361C201.57 120.224 201.775 120.042 201.93 119.814C202.085 119.577 202.194 119.308 202.258 119.007C202.322 118.697 202.353 118.378 202.353 118.05C202.353 117.695 202.299 117.367 202.189 117.066C202.089 116.765 201.939 116.505 201.738 116.286C201.538 116.068 201.292 115.899 201 115.781C200.708 115.653 200.38 115.589 200.015 115.589C199.687 115.589 199.414 115.671 199.195 115.835C198.985 115.999 198.817 116.204 198.689 116.451C198.571 116.697 198.489 116.97 198.443 117.271C198.398 117.563 198.375 117.841 198.375 118.105C198.375 118.36 198.425 118.634 198.525 118.925C198.625 119.217 198.762 119.486 198.935 119.732C199.109 119.969 199.318 120.169 199.564 120.334C199.81 120.488 200.075 120.566 200.357 120.566ZM196.802 110.735C196.957 110.735 197.149 110.667 197.377 110.53C197.614 110.384 197.873 110.23 198.156 110.065C198.439 109.892 198.739 109.737 199.058 109.601C199.387 109.455 199.719 109.382 200.057 109.382C200.831 109.382 201.547 109.55 202.203 109.888C202.859 110.225 203.452 110.672 203.981 111.228C204.509 111.784 204.974 112.426 205.375 113.155C205.785 113.885 206.127 114.641 206.401 115.425C206.674 116.2 206.879 116.979 207.016 117.763C207.153 118.538 207.221 119.258 207.221 119.923C207.221 120.68 207.153 121.464 207.016 122.275C206.888 123.086 206.688 123.884 206.414 124.668C206.141 125.442 205.794 126.181 205.375 126.883C204.965 127.575 204.477 128.186 203.912 128.715C203.438 129.161 202.9 129.508 202.299 129.754C201.697 130 201.068 130.178 200.412 130.287C199.765 130.406 199.104 130.474 198.429 130.492C197.755 130.52 197.103 130.533 196.474 130.533H196.256C195.654 130.533 195.102 130.46 194.601 130.314C194.109 130.178 193.681 129.968 193.316 129.686C192.951 129.394 192.669 129.029 192.468 128.592C192.268 128.154 192.167 127.639 192.167 127.047C192.167 126.545 192.24 126.058 192.386 125.584C192.541 125.101 192.71 124.613 192.892 124.121C193.074 123.619 193.238 123.1 193.384 122.562C193.539 122.024 193.617 121.441 193.617 120.812C193.617 120.165 193.553 119.522 193.425 118.884C193.307 118.246 193.175 117.613 193.029 116.984C192.892 116.346 192.76 115.708 192.632 115.07C192.514 114.432 192.455 113.784 192.455 113.128C192.455 112.836 192.477 112.513 192.523 112.157C192.578 111.793 192.673 111.455 192.81 111.146C192.947 110.836 193.134 110.576 193.371 110.366C193.617 110.157 193.931 110.052 194.314 110.052C194.67 110.052 194.961 110.088 195.189 110.161C195.426 110.234 195.631 110.312 195.804 110.394C195.978 110.476 196.137 110.553 196.283 110.626C196.438 110.699 196.611 110.735 196.802 110.735ZM217.106 118.898C217.37 118.898 217.617 118.866 217.844 118.802C218.072 118.729 218.268 118.638 218.432 118.529C218.606 118.419 218.738 118.296 218.829 118.16C218.929 118.014 218.979 117.868 218.979 117.722C218.979 117.558 218.915 117.367 218.788 117.148C218.66 116.929 218.501 116.724 218.309 116.533C218.127 116.332 217.927 116.168 217.708 116.04C217.498 115.904 217.302 115.835 217.12 115.835C216.901 115.835 216.682 115.89 216.464 115.999C216.254 116.1 216.062 116.232 215.889 116.396C215.716 116.56 215.575 116.747 215.465 116.956C215.365 117.157 215.315 117.357 215.315 117.558C215.315 117.667 215.356 117.8 215.438 117.954C215.529 118.109 215.652 118.255 215.807 118.392C215.971 118.529 216.163 118.647 216.382 118.747C216.6 118.848 216.842 118.898 217.106 118.898ZM217.079 110.257C217.434 110.266 217.826 110.271 218.255 110.271C218.692 110.261 219.139 110.271 219.595 110.298C220.05 110.325 220.502 110.38 220.948 110.462C221.395 110.544 221.8 110.676 222.165 110.858C222.53 111.041 222.84 111.287 223.095 111.597C223.359 111.907 223.532 112.303 223.614 112.786C223.687 113.196 223.728 113.625 223.737 114.071C223.746 114.518 223.751 114.974 223.751 115.439C223.76 115.904 223.774 116.378 223.792 116.861C223.81 117.344 223.865 117.827 223.956 118.31C224.102 119.085 224.275 119.864 224.476 120.648C224.685 121.432 224.886 122.207 225.077 122.972C225.269 123.729 225.437 124.467 225.583 125.187C225.738 125.898 225.834 126.577 225.87 127.224C225.888 127.626 225.793 127.995 225.583 128.332C225.373 128.669 225.105 128.938 224.776 129.139C224.576 129.257 224.334 129.371 224.052 129.48C223.769 129.581 223.459 129.672 223.122 129.754C222.785 129.827 222.434 129.886 222.069 129.932C221.705 129.977 221.34 130 220.975 130C220.666 130 220.36 129.982 220.059 129.945C219.768 129.909 219.494 129.85 219.239 129.768C218.984 129.676 218.751 129.562 218.542 129.426C218.341 129.289 218.177 129.125 218.05 128.934C217.822 128.587 217.635 128.223 217.489 127.84C217.352 127.448 217.293 127.042 217.311 126.623C217.32 126.313 217.389 126.03 217.516 125.775C217.653 125.511 217.817 125.265 218.009 125.037C218.2 124.8 218.4 124.577 218.61 124.367C218.829 124.148 219.025 123.934 219.198 123.724C219.371 123.506 219.508 123.287 219.608 123.068C219.709 122.849 219.74 122.621 219.704 122.384C219.677 122.202 219.572 122.056 219.389 121.947C219.216 121.837 219.011 121.755 218.774 121.701C218.546 121.646 218.314 121.614 218.077 121.605C217.84 121.587 217.649 121.578 217.503 121.578C217.211 121.578 216.906 121.596 216.587 121.632C216.268 121.669 215.98 121.737 215.725 121.837C215.47 121.929 215.265 122.056 215.11 122.22C214.955 122.375 214.891 122.576 214.919 122.822C214.955 123.114 215.01 123.36 215.083 123.56C215.165 123.761 215.251 123.948 215.342 124.121C215.434 124.285 215.525 124.454 215.616 124.627C215.716 124.8 215.803 125.005 215.876 125.242C215.949 125.479 216.003 125.766 216.04 126.103C216.085 126.441 216.099 126.86 216.081 127.361C216.081 127.507 216.049 127.671 215.985 127.853C215.921 128.027 215.839 128.204 215.739 128.387C215.639 128.56 215.529 128.724 215.411 128.879C215.292 129.034 215.178 129.157 215.069 129.248C214.713 129.531 214.276 129.745 213.756 129.891C213.246 130.027 212.713 130.096 212.157 130.096C211.783 130.096 211.409 130.064 211.036 130C210.662 129.936 210.306 129.84 209.969 129.713C209.641 129.585 209.336 129.426 209.053 129.234C208.78 129.043 208.552 128.82 208.369 128.564C208.16 128.273 208.037 127.949 208 127.594C207.964 127.238 208 126.896 208.11 126.568C208.292 126.021 208.506 125.415 208.752 124.75C208.998 124.084 209.244 123.41 209.491 122.726C209.737 122.033 209.969 121.354 210.188 120.689C210.416 120.014 210.593 119.395 210.721 118.83C210.876 118.146 210.985 117.517 211.049 116.943C211.113 116.368 211.172 115.808 211.227 115.261C211.291 114.714 211.364 114.158 211.446 113.593C211.537 113.019 211.683 112.399 211.883 111.733C211.984 111.387 212.138 111.095 212.348 110.858C212.567 110.612 212.818 110.416 213.1 110.271C213.383 110.116 213.688 110.002 214.016 109.929C214.344 109.856 214.677 109.819 215.014 109.819C215.178 109.819 215.338 109.828 215.493 109.847C215.657 109.856 215.816 109.879 215.971 109.915C216.163 109.961 216.345 110.029 216.518 110.12C216.691 110.202 216.878 110.248 217.079 110.257ZM229.48 110.763C229.872 110.708 230.209 110.781 230.492 110.982C230.783 111.182 231.043 111.446 231.271 111.775C231.499 112.103 231.704 112.472 231.886 112.882C232.068 113.283 232.246 113.657 232.419 114.003C232.602 114.35 232.789 114.641 232.98 114.878C233.181 115.115 233.404 115.234 233.65 115.234C233.787 115.234 233.91 115.206 234.019 115.152C234.411 114.969 234.712 114.71 234.921 114.372C235.131 114.026 235.304 113.652 235.441 113.251C235.587 112.841 235.719 112.426 235.838 112.007C235.965 111.579 236.138 111.196 236.357 110.858C236.576 110.512 236.863 110.23 237.218 110.011C237.583 109.792 238.071 109.683 238.681 109.683C239.155 109.683 239.634 109.756 240.117 109.901C240.609 110.047 241.051 110.261 241.443 110.544C241.835 110.827 242.154 111.177 242.4 111.597C242.656 112.007 242.783 112.476 242.783 113.005C242.783 113.178 242.779 113.37 242.77 113.579C242.76 113.789 242.738 113.999 242.701 114.208C242.674 114.418 242.624 114.623 242.551 114.823C242.487 115.015 242.396 115.179 242.277 115.316C242.049 115.589 241.758 115.867 241.402 116.15C241.047 116.432 240.668 116.719 240.267 117.011C239.875 117.294 239.479 117.59 239.078 117.9C238.686 118.201 238.33 118.52 238.011 118.857C237.702 119.194 237.446 119.545 237.246 119.91C237.045 120.274 236.945 120.662 236.945 121.072C236.945 121.737 237.027 122.325 237.191 122.836C237.355 123.337 237.533 123.815 237.724 124.271C237.916 124.727 238.093 125.183 238.258 125.638C238.422 126.094 238.504 126.605 238.504 127.17C238.504 127.48 238.422 127.767 238.258 128.031C238.103 128.295 237.893 128.537 237.629 128.756C237.364 128.975 237.064 129.166 236.726 129.33C236.398 129.494 236.061 129.635 235.714 129.754C235.368 129.863 235.031 129.95 234.703 130.014C234.375 130.068 234.087 130.096 233.841 130.096C233.376 130.096 232.866 130.073 232.31 130.027C231.763 129.973 231.248 129.854 230.765 129.672C230.282 129.49 229.876 129.216 229.548 128.852C229.229 128.478 229.07 127.976 229.07 127.348C229.07 127.083 229.097 126.823 229.152 126.568C229.215 126.313 229.284 126.062 229.357 125.816C229.439 125.561 229.507 125.306 229.562 125.051C229.626 124.786 229.658 124.522 229.658 124.258C229.658 123.328 229.58 122.53 229.425 121.865C229.279 121.199 229.079 120.625 228.824 120.142C228.577 119.659 228.295 119.249 227.976 118.912C227.666 118.574 227.342 118.269 227.005 117.996C226.677 117.713 226.353 117.444 226.034 117.189C225.724 116.924 225.442 116.628 225.187 116.3C224.941 115.972 224.74 115.594 224.585 115.165C224.439 114.728 224.366 114.199 224.366 113.579C224.366 113.124 224.435 112.695 224.571 112.294C224.717 111.884 224.922 111.528 225.187 111.228C225.451 110.918 225.77 110.672 226.144 110.489C226.527 110.307 226.955 110.216 227.429 110.216C227.784 110.216 228.135 110.266 228.482 110.366C228.828 110.467 229.161 110.599 229.48 110.763Z" fill="#FF84AD"/>
</svg>
