<svg width="243" height="146" viewBox="0 0 243 146" fill="none" xmlns="http://www.w3.org/2000/svg">
<path d="M120.053 53.9412C121.304 53.9412 122.243 53.7305 123.077 53.3091C123.911 52.8877 124.536 52.2556 125.057 51.5181C125.578 50.7807 125.891 49.9379 126.1 48.8844C126.308 47.9362 126.412 46.8827 126.412 45.8292C126.412 44.6703 126.204 43.6168 125.891 42.6687C125.578 41.7205 125.057 40.8777 124.432 40.1403C123.806 39.4028 122.972 38.876 122.034 38.56C121.096 38.1386 120.053 37.9279 118.907 37.9279C117.864 37.9279 117.03 38.2439 116.301 38.7707C115.675 39.2975 115.05 39.9296 114.737 40.7724C114.32 41.6152 114.112 42.458 113.903 43.4061C113.799 44.3543 113.695 45.1971 113.695 46.0399C113.695 46.8827 113.903 47.7255 114.216 48.6737C114.528 49.6218 114.945 50.4646 115.571 51.3074C116.092 52.0449 116.822 52.677 117.552 53.2037C118.281 53.7305 119.22 53.9412 120.053 53.9412ZM108.795 22.336C109.316 22.336 109.942 22.1253 110.671 21.7039C111.401 21.2825 112.235 20.7557 113.173 20.229C114.112 19.7022 115.05 19.1755 116.092 18.7541C117.135 18.3327 118.177 18.0166 119.22 18.0166C121.721 18.0166 123.911 18.5434 125.995 19.5969C128.08 20.6504 129.957 22.1253 131.625 23.9163C133.293 25.7072 134.752 27.8142 136.107 30.1319C137.462 32.4497 138.505 34.8727 139.339 37.4011C140.173 39.9296 140.903 42.3526 141.32 44.881C141.736 47.4095 141.945 49.7272 141.945 51.8342C141.945 54.2572 141.736 56.7857 141.32 59.4194C140.903 62.0532 140.277 64.5816 139.443 67.11C138.609 69.6384 137.462 71.9562 136.107 74.2739C134.752 76.4862 133.293 78.4879 131.416 80.1735C129.957 81.6484 128.185 82.7019 126.308 83.5447C124.432 84.3875 122.347 84.9143 120.262 85.2303C118.177 85.6517 116.092 85.8624 114.007 85.8624C111.818 85.9678 109.837 85.9678 107.753 85.9678H107.023C105.146 85.9678 103.374 85.7571 101.811 85.2303C100.247 84.8089 98.8917 84.0715 97.745 83.2287C96.5983 82.2805 95.6601 81.1217 95.0346 79.7521C94.4092 78.3825 94.0964 76.6969 94.0964 74.8006C94.0964 73.2204 94.3049 71.6401 94.8262 70.0598L96.3898 65.3191C97.0153 63.7388 97.5365 62.0532 97.9535 60.2622C98.4747 58.5766 98.6832 56.6803 98.6832 54.6786C98.6832 52.5716 98.4747 50.57 98.0578 48.463C97.6408 46.4613 97.2238 44.3543 96.8068 42.3526C96.3898 40.351 95.9729 38.2439 95.5559 36.2423C95.1389 34.2406 95.0346 32.1336 95.0346 30.0266C95.0346 29.0784 95.1389 28.0249 95.2431 26.8661C95.4516 25.7072 95.7644 24.6537 96.1813 23.6002C96.5983 22.5467 97.2238 21.8092 97.9535 21.0718C98.7875 20.4397 99.7257 20.0183 100.977 20.0183C102.123 20.0183 103.062 20.1236 103.791 20.3343C104.521 20.545 105.146 20.8611 105.772 21.0718C106.293 21.3878 106.814 21.5985 107.336 21.8092C107.648 22.2306 108.17 22.336 108.795 22.336Z" fill="#FFFDFD"/>
<path d="M69.0882 59.7348C69.0882 58.9974 68.9839 58.3653 68.6712 58.0492C68.3585 57.6278 68.0457 57.4171 67.6287 57.2064C67.2118 57.1011 66.6905 56.9957 66.1693 56.9957H61.5825C60.5401 56.9957 59.6019 57.1011 58.7679 57.4171C57.9339 57.7332 57.2042 58.1546 56.5788 58.7867C55.9533 59.4188 55.7448 60.3669 55.7448 61.6311C55.7448 62.5793 55.9533 63.7382 56.3703 64.7917C56.7872 65.9505 57.3085 67.1094 57.8297 68.2682C58.3509 69.5324 58.8722 70.7967 59.2891 72.1662C59.7061 73.5358 59.9146 74.9053 59.9146 76.3802C59.9146 77.3284 59.7061 78.2766 59.1849 79.1194C58.7679 79.9622 58.1424 80.6996 57.3085 81.4371C56.5788 82.1745 55.6406 82.8066 54.7023 83.3334C53.7641 83.8601 52.7217 84.2815 51.6792 84.7029C50.6368 85.1243 49.5943 85.335 48.5519 85.5457C47.5094 85.7564 46.6755 85.8618 45.8415 85.8618C45.216 85.8618 44.5906 85.8618 43.9651 85.7564C43.3396 85.7564 42.6099 85.6511 41.9844 85.4404C41.359 85.335 40.7335 85.1243 40.108 84.9136C39.4825 84.5976 39.0656 84.2815 38.6486 83.8601C37.3976 82.4906 36.4594 80.9103 35.834 79.1194C35.2085 77.3284 35 75.5374 35 73.7465C35 71.6395 35.2085 69.6378 35.7297 67.6361C36.2509 65.6345 36.7722 63.6328 37.2934 61.6311C37.9189 59.6295 38.4401 57.6278 38.8571 55.6262C39.3783 53.6245 39.5868 51.5175 39.5868 49.5158C39.5868 47.6195 39.4825 45.7232 39.1698 43.9322C38.8571 42.1413 38.5443 40.3503 38.2316 38.5594C37.9189 36.7684 37.6061 34.9774 37.2934 33.2918C36.9807 31.5009 36.8764 29.7099 36.8764 27.9189C36.8764 25.7066 37.1891 24.021 37.7104 22.7568C38.3358 21.4925 39.1698 20.439 40.108 19.8069C41.1505 19.0695 42.4014 18.6481 43.7566 18.4374C45.216 18.2267 46.6755 18.1213 48.3434 18.1213C50.1156 18.1213 51.6792 18.4374 53.1387 18.9641C54.5981 19.4909 55.849 20.123 56.9957 20.9658C58.1424 21.8086 58.9764 22.6514 59.6019 23.7049C60.2273 24.7584 60.5401 25.8119 60.5401 26.8654C60.5401 28.1296 60.4358 29.2885 60.2273 30.342C60.0189 31.2902 59.8104 32.2383 59.3934 33.0811C59.0806 33.9239 58.7679 34.556 58.3509 35.1881C57.9339 35.8202 57.6212 36.4523 57.3085 37.0844C56.9957 37.7165 56.7872 38.2433 56.4745 38.7701C56.266 39.2968 56.1618 39.9289 56.1618 40.561C56.1618 41.5092 56.3703 42.1413 56.8915 42.4573C57.4127 42.7734 58.1424 42.8787 58.9764 42.8787C59.7061 42.8787 60.4358 42.7734 61.0613 42.668C61.791 42.5627 62.5207 42.4573 63.2505 42.4573C64.0844 42.4573 64.9184 42.352 65.8566 42.2466C66.7948 42.1413 67.733 41.8252 68.4627 41.4038C69.2967 40.9824 69.9221 40.4557 70.4434 39.8236C70.9646 39.1915 71.2773 38.3487 71.2773 37.2951C71.2773 36.4523 71.0688 35.6095 70.7561 34.7667C70.4434 33.9239 70.0264 32.9758 69.5052 32.133C69.0882 31.2902 68.6712 30.342 68.2542 29.4992C67.9415 28.551 67.733 27.6029 67.733 26.6547C67.733 25.3905 68.0457 24.2317 68.7754 23.1782C69.5052 22.1246 70.4434 21.2818 71.5901 20.6497C72.7368 19.9123 73.8835 19.3855 75.1344 19.0695C76.3853 18.6481 77.6363 18.5427 78.6787 18.5427C80.7636 18.5427 82.5358 18.9641 83.9952 19.9123C85.4547 20.8604 86.7056 22.0193 87.5396 23.5996C88.4778 25.0745 89.1033 26.7601 89.5202 28.6564C89.9372 30.5527 90.1457 32.3437 90.1457 34.1346C90.1457 35.6095 89.9372 36.9791 89.5202 38.1379C89.1033 39.2968 88.582 40.4557 88.0608 41.5092C87.5396 42.5627 87.0184 43.5108 86.6014 44.5643C86.1844 45.5125 85.9759 46.6714 85.9759 47.7249C85.9759 49.7265 86.2886 51.8335 86.9141 53.9405C87.5396 56.0476 88.2693 58.1546 88.999 60.3669C89.833 62.474 90.4585 64.6863 91.0839 66.7933C91.7094 68.9003 92.1264 71.0074 92.1264 73.1144C92.1264 75.0107 91.6052 76.5909 90.6669 78.0659C89.7287 79.5408 88.4778 80.6996 87.0184 81.7531C85.5589 82.7013 83.9952 83.4387 82.2231 83.9655C80.4509 84.4922 78.783 84.8083 77.2193 84.8083C75.6556 84.8083 74.092 84.5976 72.5283 84.2815C70.9646 83.9655 69.5052 83.4387 68.2542 82.7013C67.0033 81.9638 65.9608 80.9103 65.2311 79.7515C64.3971 78.5926 64.0844 77.1177 64.0844 75.4321C64.0844 74.0625 64.2929 72.693 64.8141 71.3234C65.3354 69.9538 65.8566 68.5843 66.4821 67.3201C67.1075 65.9505 67.6287 64.6863 68.15 63.4221C68.8797 62.0525 69.0882 60.7883 69.0882 59.7348Z" fill="#FFFDFD"/>
<path d="M206.9 82.9126C207.37 81.3113 206.067 78.2877 205.347 77.8769C205.045 77.7083 204.711 77.5819 204.711 77.5819C204.586 77.5397 204.169 77.3923 203.638 77.329C203.387 77.308 202.772 77.2553 201.97 77.466C200.27 77.9085 199.614 78.9831 198.603 78.6038C198.603 78.6038 198.582 78.6038 198.561 78.5827C195.85 77.3185 199.801 67.1943 196.09 64.5079C194.673 63.4754 193.88 64.55 191.941 63.5281C189.168 62.0532 188.522 57.6495 188.522 53.5619C188.543 52.9825 188.564 52.4031 188.564 51.8342C188.564 49.7272 188.355 47.4095 187.938 44.881C187.521 42.3526 186.792 39.9296 185.958 37.4011C185.124 34.8727 184.081 32.4497 182.726 30.1319C181.371 27.8142 179.911 25.7072 178.243 23.9163C176.576 22.1253 174.699 20.6504 172.614 19.5969C170.529 18.5434 168.34 18.0166 165.838 18.0166C164.796 18.0166 163.753 18.3327 162.711 18.7541C161.668 19.1755 160.73 19.7022 159.792 20.229C158.854 20.7557 158.02 21.2825 157.29 21.7039C156.56 22.1253 155.935 22.336 155.414 22.336C154.893 22.336 154.267 22.2306 153.954 21.8092C153.433 21.5985 153.016 21.2825 152.391 21.0718C151.765 20.8611 151.14 20.545 150.41 20.3343C149.68 20.1236 148.742 20.0183 147.595 20.0183C146.344 20.0183 145.406 20.4397 144.572 21.0718C143.843 21.8092 143.217 22.5467 142.8 23.6002C142.383 24.6537 142.07 25.7072 141.862 26.8661C141.758 28.0249 141.653 29.0784 141.653 30.0266C141.653 32.1336 141.758 34.2406 142.175 36.2423C142.592 38.2439 143.009 40.351 143.426 42.3526C143.843 44.3543 144.26 46.4613 144.677 48.463C145.094 50.57 145.302 52.5716 145.302 54.6787C145.302 56.7857 145.094 58.5766 144.572 60.2622C144.155 62.0532 143.634 63.7388 143.009 65.3191L141.445 70.0599C140.924 71.6401 140.715 73.2204 140.715 74.8006C140.715 76.6969 141.028 78.3826 141.653 79.7521C142.279 81.1217 143.217 82.2805 144.364 83.2287C145.51 84.0715 146.866 84.8089 148.429 85.2303C149.993 85.7571 151.765 85.9678 153.642 85.9678H154.371C156.456 85.9678 158.437 85.9678 160.626 85.8625C161.898 85.8625 163.17 85.7782 164.431 85.6201C166.401 85.6728 169.341 85.7466 172.896 85.8203C198.978 86.3681 206.077 85.736 206.9 82.9126ZM162.284 51.2969C161.658 50.4541 161.241 49.6113 160.928 48.6631C160.616 47.715 160.407 46.8722 160.407 46.0294C160.407 45.1866 160.511 44.3438 160.616 43.3956C160.824 42.4474 161.033 41.6046 161.45 40.7618C161.762 39.919 162.388 39.2869 163.013 38.7602C163.743 38.2334 164.577 37.9174 165.619 37.9174C166.766 37.9174 167.809 38.1281 168.747 38.5495C169.685 38.8655 170.519 39.3923 171.144 40.1297C171.77 40.8672 172.291 41.71 172.604 42.6581C172.917 43.6063 173.125 44.6598 173.125 45.8187C173.125 46.8722 173.021 47.9257 172.812 48.8738C172.604 49.9273 172.291 50.7701 171.77 51.5076C171.249 52.2451 170.623 52.8772 169.789 53.2986C168.955 53.72 168.017 53.9307 166.766 53.9307C165.828 53.9307 164.994 53.72 164.264 53.1932C163.534 52.6665 162.805 52.0343 162.284 51.2969Z" fill="#FFFDFD"/>
<path d="M107.586 0.168702C107.304 0.168702 107.138 0.263517 107.054 0.326728C106.616 0.66385 106.564 1.53826 107.826 5.65747C107.961 6.09994 108.086 6.50028 108.191 6.81633C108.201 6.85847 108.253 6.99542 108.305 7.17452C108.347 7.31148 108.368 7.41683 108.389 7.49057C108.389 7.59592 108.41 7.75395 108.399 7.93305C108.399 8.18589 108.378 8.41766 108.326 8.76532C108.253 9.29207 108.18 9.65026 108.18 9.65026C107.93 10.8197 107.711 11.9996 107.44 13.1584C107.159 14.391 106.398 18.8052 108.024 19.4163C110.494 20.3434 111.985 18.3838 114.81 16.8773C117.635 15.3813 118.626 16.182 119.553 15.3076C121.43 13.5377 120.293 8.56515 120.168 8.11214C119.949 7.30094 119.678 6.6583 119.512 6.25797C119.397 6.01566 119.23 5.66801 118.98 5.25714C117.072 2.10715 113.966 0.885086 113.507 0.716525C113.028 0.537429 111.162 -0.12628 108.733 0.0212106C108.253 0.0528158 107.857 0.105491 107.576 0.147631L107.586 0.168702Z" fill="#FF84AD"/>
<path d="M154.298 0.168702C154.017 0.168702 153.85 0.263517 153.766 0.326728C153.329 0.66385 153.277 1.53826 154.538 5.65747C154.673 6.09994 154.798 6.50028 154.903 6.81633C154.913 6.85847 154.965 6.99542 155.017 7.17452C155.059 7.31148 155.08 7.41683 155.101 7.49057C155.101 7.59592 155.122 7.75395 155.111 7.93305C155.111 8.18589 155.09 8.41766 155.038 8.76532C154.965 9.29207 154.892 9.65026 154.892 9.65026C154.642 10.8197 154.423 11.9996 154.152 13.1584C153.871 14.391 153.11 18.8052 154.736 19.4163C157.207 20.3434 158.697 18.3838 161.522 16.8773C164.347 15.3813 165.338 16.182 166.265 15.3076C168.142 13.5377 167.006 8.56515 166.881 8.11214C166.662 7.30094 166.391 6.6583 166.224 6.25797C166.109 6.01566 165.942 5.66801 165.692 5.25714C163.784 2.10715 160.678 0.885086 160.219 0.716525C159.74 0.537429 157.874 -0.12628 155.445 0.0212106C154.965 0.0528158 154.569 0.105491 154.288 0.147631L154.298 0.168702Z" fill="#FF84AD"/>
<path d="M11.1978 128.507C11.1978 128.27 11.1522 128.097 11.0611 127.988C10.979 127.869 10.8651 127.787 10.7193 127.742C10.5825 127.696 10.4276 127.673 10.2544 127.673C10.0812 127.673 9.90803 127.673 9.73484 127.673C9.46139 127.673 9.1606 127.678 8.83246 127.687C8.51343 127.687 8.21719 127.733 7.94374 127.824C7.67029 127.906 7.44242 128.047 7.26012 128.248C7.07781 128.448 6.98666 128.74 6.98666 129.123C6.98666 129.433 7.05503 129.765 7.19175 130.121C7.32848 130.467 7.47888 130.832 7.64295 131.215C7.80702 131.597 7.95741 132.003 8.09414 132.431C8.23087 132.851 8.29923 133.293 8.29923 133.758C8.29923 134.068 8.22631 134.355 8.08047 134.619C7.93463 134.883 7.73865 135.125 7.49255 135.344C7.25556 135.562 6.97755 135.758 6.65852 135.932C6.34861 136.096 6.02959 136.232 5.70145 136.342C5.37331 136.46 5.04972 136.547 4.7307 136.602C4.41167 136.665 4.12455 136.697 3.86933 136.697C3.68703 136.697 3.49105 136.688 3.28141 136.67C3.07176 136.661 2.86212 136.633 2.65247 136.588C2.45194 136.551 2.26053 136.492 2.07823 136.41C1.89592 136.328 1.74097 136.219 1.61336 136.082C1.2123 135.654 0.920617 135.166 0.738317 134.619C0.556016 134.072 0.464866 133.512 0.464866 132.937C0.464866 132.29 0.542344 131.657 0.697299 131.037C0.852255 130.408 1.02088 129.788 1.20318 129.177C1.38548 128.558 1.55411 127.938 1.70907 127.318C1.86402 126.689 1.9415 126.056 1.9415 125.417C1.9415 124.825 1.89592 124.246 1.80477 123.681C1.71362 123.116 1.61336 122.56 1.50398 122.013C1.40371 121.457 1.30801 120.906 1.21686 120.359C1.12571 119.803 1.08013 119.247 1.08013 118.691C1.08013 118.016 1.17128 117.478 1.35358 117.077C1.545 116.676 1.80022 116.366 2.11924 116.147C2.44738 115.929 2.83021 115.787 3.26774 115.724C3.71437 115.651 4.19291 115.614 4.70335 115.614C5.25025 115.614 5.75158 115.696 6.20733 115.86C6.6722 116.015 7.07326 116.22 7.41051 116.476C7.75688 116.722 8.02578 117.004 8.21719 117.323C8.40861 117.642 8.50432 117.966 8.50432 118.294C8.50432 118.695 8.46786 119.051 8.39494 119.361C8.33113 119.67 8.2491 119.953 8.14883 120.208C8.05768 120.454 7.95286 120.678 7.83436 120.878C7.71587 121.079 7.60649 121.27 7.50622 121.452C7.41507 121.635 7.33304 121.812 7.26012 121.986C7.19631 122.159 7.16441 122.341 7.16441 122.533C7.16441 122.824 7.24189 123.016 7.39684 123.107C7.56091 123.198 7.77511 123.244 8.03945 123.244C8.26733 123.244 8.49064 123.225 8.7094 123.189C8.93728 123.143 9.16515 123.12 9.39303 123.12C9.63914 123.12 9.90803 123.098 10.1997 123.052C10.5005 123.007 10.774 122.925 11.0201 122.806C11.2753 122.678 11.4849 122.514 11.649 122.314C11.8222 122.104 11.9088 121.84 11.9088 121.521C11.9088 121.256 11.8495 120.992 11.731 120.728C11.6217 120.454 11.494 120.181 11.3482 119.907C11.2115 119.634 11.0839 119.361 10.9654 119.087C10.856 118.805 10.8013 118.513 10.8013 118.212C10.8013 117.811 10.9152 117.455 11.1431 117.146C11.3801 116.827 11.6718 116.562 12.0182 116.353C12.3645 116.134 12.7382 115.97 13.1393 115.86C13.5404 115.742 13.9141 115.683 14.2605 115.683C14.9167 115.683 15.4728 115.828 15.9285 116.12C16.3934 116.412 16.7671 116.79 17.0496 117.255C17.3413 117.72 17.551 118.239 17.6786 118.814C17.8062 119.388 17.87 119.958 17.87 120.523C17.87 120.988 17.8016 121.407 17.6649 121.781C17.5282 122.145 17.3778 122.492 17.2137 122.82C17.0496 123.139 16.8993 123.458 16.7625 123.777C16.6258 124.087 16.5574 124.419 16.5574 124.775C16.5574 125.404 16.6577 126.046 16.8582 126.703C17.0679 127.359 17.2912 128.024 17.5282 128.699C17.7743 129.364 17.9976 130.034 18.1981 130.709C18.4078 131.374 18.5126 132.035 18.5126 132.691C18.5126 133.265 18.3622 133.776 18.0614 134.223C17.7606 134.669 17.3778 135.047 16.9129 135.357C16.4572 135.658 15.9558 135.891 15.4089 136.055C14.862 136.219 14.3379 136.301 13.8366 136.301C13.3444 136.301 12.8476 136.246 12.3463 136.137C11.8541 136.027 11.4075 135.859 11.0064 135.631C10.6144 135.394 10.2954 135.088 10.0493 134.715C9.80321 134.341 9.68015 133.894 9.68015 133.375C9.68015 132.946 9.75763 132.523 9.91259 132.103C10.0767 131.675 10.2498 131.256 10.4321 130.845C10.6236 130.426 10.7967 130.021 10.9517 129.629C11.1158 129.237 11.1978 128.863 11.1978 128.507ZM28.1517 124.789C28.4161 124.789 28.6622 124.757 28.8901 124.693C29.1179 124.62 29.3139 124.529 29.478 124.419C29.6512 124.31 29.7833 124.187 29.8745 124.05C29.9748 123.904 30.0249 123.759 30.0249 123.613C30.0249 123.449 29.9611 123.257 29.8335 123.038C29.7059 122.82 29.5463 122.615 29.3549 122.423C29.1726 122.223 28.9721 122.059 28.7533 121.931C28.5437 121.794 28.3477 121.726 28.1654 121.726C27.9467 121.726 27.7279 121.781 27.5091 121.89C27.2995 121.99 27.1081 122.122 26.9349 122.286C26.7617 122.451 26.6204 122.637 26.511 122.847C26.4108 123.048 26.3606 123.248 26.3606 123.449C26.3606 123.558 26.4017 123.69 26.4837 123.845C26.5748 124 26.6979 124.146 26.8529 124.283C27.0169 124.419 27.2083 124.538 27.4271 124.638C27.6459 124.738 27.8874 124.789 28.1517 124.789ZM28.1244 116.147C28.4799 116.157 28.8718 116.161 29.3002 116.161C29.7378 116.152 30.1844 116.161 30.6401 116.188C31.0959 116.216 31.5471 116.271 31.9937 116.353C32.4404 116.435 32.846 116.567 33.2106 116.749C33.5752 116.931 33.8851 117.177 34.1403 117.487C34.4047 117.797 34.5778 118.194 34.6599 118.677C34.7328 119.087 34.7738 119.515 34.7829 119.962C34.792 120.409 34.7966 120.865 34.7966 121.329C34.8057 121.794 34.8194 122.268 34.8376 122.751C34.8558 123.234 34.9105 123.718 35.0017 124.201C35.1475 124.975 35.3207 125.755 35.5212 126.539C35.7309 127.322 35.9314 128.097 36.1228 128.863C36.3142 129.619 36.4829 130.358 36.6287 131.078C36.7837 131.789 36.8794 132.468 36.9158 133.115C36.9341 133.516 36.8384 133.885 36.6287 134.223C36.4191 134.56 36.1502 134.829 35.822 135.029C35.6215 135.148 35.38 135.262 35.0974 135.371C34.8148 135.471 34.5049 135.562 34.1677 135.645C33.8304 135.717 33.4795 135.777 33.1149 135.822C32.7503 135.868 32.3857 135.891 32.0211 135.891C31.7112 135.891 31.4058 135.872 31.105 135.836C30.8133 135.799 30.5399 135.74 30.2847 135.658C30.0294 135.567 29.797 135.453 29.5874 135.316C29.3868 135.18 29.2228 135.016 29.0952 134.824C28.8673 134.478 28.6804 134.113 28.5346 133.73C28.3979 133.338 28.3386 132.933 28.3568 132.514C28.3659 132.204 28.4343 131.921 28.5619 131.666C28.6986 131.401 28.8627 131.155 29.0541 130.927C29.2455 130.69 29.4461 130.467 29.6557 130.258C29.8745 130.039 30.0705 129.825 30.2436 129.615C30.4168 129.396 30.5536 129.177 30.6538 128.959C30.7541 128.74 30.786 128.512 30.7495 128.275C30.7222 128.093 30.6174 127.947 30.4351 127.837C30.2619 127.728 30.0568 127.646 29.8198 127.591C29.5919 127.537 29.3595 127.505 29.1225 127.496C28.8855 127.477 28.6941 127.468 28.5482 127.468C28.2566 127.468 27.9512 127.487 27.6322 127.523C27.3132 127.559 27.026 127.628 26.7708 127.728C26.5156 127.819 26.3105 127.947 26.1556 128.111C26.0006 128.266 25.9368 128.466 25.9641 128.713C26.0006 129.004 26.0553 129.25 26.1282 129.451C26.2102 129.651 26.2968 129.838 26.388 130.011C26.4791 130.176 26.5703 130.344 26.6614 130.517C26.7617 130.69 26.8483 130.896 26.9212 131.133C26.9941 131.37 27.0488 131.657 27.0853 131.994C27.1309 132.331 27.1445 132.75 27.1263 133.252C27.1263 133.398 27.0944 133.562 27.0306 133.744C26.9668 133.917 26.8848 134.095 26.7845 134.277C26.6842 134.45 26.5748 134.615 26.4564 134.769C26.3379 134.924 26.2239 135.047 26.1145 135.139C25.7591 135.421 25.3215 135.635 24.802 135.781C24.2915 135.918 23.7583 135.986 23.2023 135.986C22.8286 135.986 22.4549 135.954 22.0811 135.891C21.7074 135.827 21.3519 135.731 21.0147 135.603C20.6865 135.476 20.3812 135.316 20.0986 135.125C19.8252 134.934 19.5973 134.71 19.415 134.455C19.2054 134.163 19.0823 133.84 19.0458 133.484C19.0094 133.129 19.0458 132.787 19.1552 132.459C19.3375 131.912 19.5517 131.306 19.7978 130.64C20.0439 129.975 20.29 129.3 20.5361 128.617C20.7823 127.924 21.0147 127.245 21.2334 126.58C21.4613 125.905 21.6391 125.285 21.7667 124.72C21.9216 124.037 22.031 123.408 22.0948 122.833C22.1586 122.259 22.2179 121.699 22.2726 121.152C22.3364 120.605 22.4093 120.049 22.4913 119.484C22.5825 118.909 22.7283 118.29 22.9288 117.624C23.0291 117.278 23.1841 116.986 23.3937 116.749C23.6125 116.503 23.8631 116.307 24.1457 116.161C24.4283 116.006 24.7336 115.892 25.0618 115.819C25.3899 115.746 25.7226 115.71 26.0598 115.71C26.2239 115.71 26.3834 115.719 26.5384 115.737C26.7025 115.746 26.862 115.769 27.0169 115.806C27.2083 115.851 27.3906 115.92 27.5638 116.011C27.737 116.093 27.9239 116.138 28.1244 116.147ZM46.8694 123.722C47.0973 123.722 47.348 123.69 47.6214 123.626C47.904 123.563 48.1683 123.462 48.4144 123.326C48.6605 123.189 48.8656 123.011 49.0297 122.792C49.1938 122.564 49.2758 122.291 49.2758 121.972C49.2758 121.671 49.1892 121.43 49.016 121.247C48.852 121.065 48.6469 120.924 48.4008 120.823C48.1547 120.723 47.8949 120.659 47.6214 120.632C47.348 120.596 47.111 120.577 46.9105 120.577C46.6735 120.577 46.4183 120.632 46.1448 120.741C45.8805 120.842 45.6344 120.988 45.4065 121.179C45.1786 121.361 44.9872 121.585 44.8322 121.849C44.6864 122.104 44.6135 122.382 44.6135 122.683C44.6135 122.92 44.7001 123.107 44.8733 123.244C45.0464 123.38 45.2515 123.485 45.4885 123.558C45.7346 123.631 45.9853 123.676 46.2405 123.695C46.4957 123.713 46.7054 123.722 46.8694 123.722ZM41.3731 115.997C41.5827 115.997 41.7833 116.024 41.9747 116.079C42.1752 116.134 42.3712 116.193 42.5626 116.257C42.7631 116.321 42.9591 116.38 43.1505 116.435C43.351 116.489 43.5516 116.517 43.7521 116.517C44.0529 116.517 44.3446 116.467 44.6271 116.366C44.9188 116.266 45.206 116.157 45.4885 116.038C45.7711 115.91 46.0582 115.797 46.3499 115.696C46.6416 115.596 46.9469 115.546 47.2659 115.546C48.0407 115.546 48.7563 115.646 49.4125 115.847C50.0779 116.038 50.675 116.307 51.2036 116.653C51.7414 116.991 52.2108 117.392 52.6119 117.857C53.0221 118.312 53.3639 118.809 53.6373 119.347C53.9108 119.876 54.1159 120.427 54.2526 121.001C54.3985 121.575 54.4714 122.145 54.4714 122.71C54.4714 123.312 54.3848 123.918 54.2116 124.529C54.0475 125.139 53.8105 125.727 53.5006 126.293C53.1998 126.858 52.8352 127.386 52.4068 127.879C51.9784 128.362 51.5044 128.785 50.9849 129.15C50.4653 129.506 49.9093 129.788 49.3168 129.998C48.7244 130.198 48.1136 130.299 47.4847 130.299C47.2477 130.299 47.0198 130.267 46.8011 130.203C46.5823 130.139 46.3727 130.071 46.1721 129.998C45.9716 129.925 45.7756 129.856 45.5842 129.793C45.3928 129.729 45.2014 129.697 45.01 129.697C44.8368 129.697 44.7229 129.752 44.6682 129.861C44.6226 129.961 44.5998 130.089 44.5998 130.244C44.5998 130.454 44.6545 130.659 44.7639 130.859C44.8733 131.051 45.01 131.242 45.174 131.433C45.3472 131.625 45.5295 131.816 45.721 132.008C45.9215 132.19 46.1038 132.377 46.2679 132.568C46.441 132.76 46.5823 132.956 46.6917 133.156C46.8011 133.348 46.8558 133.548 46.8558 133.758C46.8558 134.223 46.7054 134.637 46.4046 135.002C46.1038 135.367 45.7346 135.681 45.2971 135.945C44.8596 136.201 44.3947 136.397 43.9025 136.533C43.4194 136.67 42.991 136.738 42.6173 136.738C41.9975 136.738 41.4004 136.656 40.8262 136.492C40.2519 136.337 39.7461 136.096 39.3085 135.768C38.871 135.439 38.5201 135.029 38.2557 134.537C37.9914 134.036 37.8592 133.452 37.8592 132.787C37.8592 132.176 37.9367 131.584 38.0917 131.01C38.2466 130.426 38.4198 129.847 38.6112 129.273C38.8026 128.69 38.9758 128.106 39.1308 127.523C39.2857 126.931 39.3632 126.32 39.3632 125.691C39.3632 125.117 39.2857 124.565 39.1308 124.037C38.9758 123.499 38.8026 122.97 38.6112 122.451C38.4198 121.922 38.2466 121.393 38.0917 120.865C37.9367 120.336 37.8592 119.789 37.8592 119.224C37.8592 118.622 37.9458 118.116 38.119 117.706C38.2922 117.287 38.5338 116.954 38.8437 116.708C39.1536 116.453 39.5227 116.271 39.9511 116.161C40.3795 116.052 40.8535 115.997 41.3731 115.997ZM64.1242 123.722C64.3521 123.722 64.6027 123.69 64.8762 123.626C65.1587 123.563 65.4231 123.462 65.6692 123.326C65.9153 123.189 66.1204 123.011 66.2844 122.792C66.4485 122.564 66.5305 122.291 66.5305 121.972C66.5305 121.671 66.444 121.43 66.2708 121.247C66.1067 121.065 65.9016 120.924 65.6555 120.823C65.4094 120.723 65.1496 120.659 64.8762 120.632C64.6027 120.596 64.3657 120.577 64.1652 120.577C63.9282 120.577 63.673 120.632 63.3995 120.741C63.1352 120.842 62.8891 120.988 62.6612 121.179C62.4333 121.361 62.2419 121.585 62.087 121.849C61.9411 122.104 61.8682 122.382 61.8682 122.683C61.8682 122.92 61.9548 123.107 62.128 123.244C62.3012 123.38 62.5063 123.485 62.7433 123.558C62.9894 123.631 63.24 123.676 63.4952 123.695C63.7505 123.713 63.9601 123.722 64.1242 123.722ZM58.6278 115.997C58.8375 115.997 59.038 116.024 59.2294 116.079C59.4299 116.134 59.6259 116.193 59.8173 116.257C60.0179 116.321 60.2138 116.38 60.4053 116.435C60.6058 116.489 60.8063 116.517 61.0068 116.517C61.3076 116.517 61.5993 116.467 61.8819 116.366C62.1736 116.266 62.4607 116.157 62.7433 116.038C63.0258 115.91 63.3129 115.797 63.6046 115.696C63.8963 115.596 64.2017 115.546 64.5207 115.546C65.2955 115.546 66.011 115.646 66.6673 115.847C67.3327 116.038 67.9297 116.307 68.4584 116.653C68.9962 116.991 69.4656 117.392 69.8666 117.857C70.2768 118.312 70.6186 118.809 70.8921 119.347C71.1655 119.876 71.3706 120.427 71.5073 121.001C71.6532 121.575 71.7261 122.145 71.7261 122.71C71.7261 123.312 71.6395 123.918 71.4663 124.529C71.3023 125.139 71.0653 125.727 70.7554 126.293C70.4546 126.858 70.09 127.386 69.6616 127.879C69.2332 128.362 68.7592 128.785 68.2396 129.15C67.7201 129.506 67.164 129.788 66.5716 129.998C65.9791 130.198 65.3684 130.299 64.7394 130.299C64.5025 130.299 64.2746 130.267 64.0558 130.203C63.8371 130.139 63.6274 130.071 63.4269 129.998C63.2264 129.925 63.0304 129.856 62.839 129.793C62.6475 129.729 62.4561 129.697 62.2647 129.697C62.0915 129.697 61.9776 129.752 61.9229 129.861C61.8773 129.961 61.8545 130.089 61.8545 130.244C61.8545 130.454 61.9092 130.659 62.0186 130.859C62.128 131.051 62.2647 131.242 62.4288 131.433C62.602 131.625 62.7843 131.816 62.9757 132.008C63.1762 132.19 63.3585 132.377 63.5226 132.568C63.6958 132.76 63.8371 132.956 63.9464 133.156C64.0558 133.348 64.1105 133.548 64.1105 133.758C64.1105 134.223 63.9601 134.637 63.6593 135.002C63.3585 135.367 62.9894 135.681 62.5518 135.945C62.1143 136.201 61.6495 136.397 61.1572 136.533C60.6741 136.67 60.2457 136.738 59.872 136.738C59.2522 136.738 58.6552 136.656 58.0809 136.492C57.5067 136.337 57.0008 136.096 56.5633 135.768C56.1257 135.439 55.7748 135.029 55.5105 134.537C55.2461 134.036 55.114 133.452 55.114 132.787C55.114 132.176 55.1915 131.584 55.3464 131.01C55.5014 130.426 55.6746 129.847 55.866 129.273C56.0574 128.69 56.2306 128.106 56.3855 127.523C56.5405 126.931 56.618 126.32 56.618 125.691C56.618 125.117 56.5405 124.565 56.3855 124.037C56.2306 123.499 56.0574 122.97 55.866 122.451C55.6746 121.922 55.5014 121.393 55.3464 120.865C55.1915 120.336 55.114 119.789 55.114 119.224C55.114 118.622 55.2006 118.116 55.3738 117.706C55.5469 117.287 55.7885 116.954 56.0984 116.708C56.4083 116.453 56.7775 116.271 57.2059 116.161C57.6343 116.052 58.1083 115.997 58.6278 115.997ZM77.5233 116.653C77.9152 116.599 78.2525 116.672 78.535 116.872C78.8267 117.073 79.0865 117.337 79.3144 117.665C79.5422 117.993 79.7473 118.362 79.9296 118.773C80.1119 119.174 80.2897 119.547 80.4629 119.894C80.6452 120.24 80.832 120.532 81.0234 120.769C81.224 121.006 81.4473 121.124 81.6934 121.124C81.8301 121.124 81.9532 121.097 82.0625 121.042C82.4545 120.86 82.7553 120.6 82.9649 120.263C83.1746 119.917 83.3478 119.543 83.4845 119.142C83.6303 118.732 83.7625 118.317 83.881 117.898C84.0086 117.469 84.1818 117.086 84.4005 116.749C84.6193 116.403 84.9064 116.12 85.2619 115.901C85.6265 115.683 86.1142 115.573 86.7249 115.573C87.1989 115.573 87.6774 115.646 88.1605 115.792C88.6527 115.938 89.0948 116.152 89.4867 116.435C89.8787 116.717 90.1977 117.068 90.4438 117.487C90.699 117.898 90.8266 118.367 90.8266 118.896C90.8266 119.069 90.8221 119.26 90.813 119.47C90.8038 119.68 90.7811 119.889 90.7446 120.099C90.7173 120.308 90.6671 120.514 90.5942 120.714C90.5304 120.906 90.4392 121.07 90.3208 121.206C90.0929 121.48 89.8012 121.758 89.4457 122.04C89.0902 122.323 88.712 122.61 88.3109 122.902C87.9189 123.184 87.5224 123.481 87.1214 123.79C86.7294 124.091 86.3739 124.41 86.0549 124.748C85.745 125.085 85.4898 125.436 85.2893 125.8C85.0887 126.165 84.9885 126.552 84.9885 126.962C84.9885 127.628 85.0705 128.216 85.2346 128.726C85.3986 129.228 85.5764 129.706 85.7678 130.162C85.9592 130.618 86.137 131.073 86.301 131.529C86.4651 131.985 86.5471 132.495 86.5471 133.06C86.5471 133.37 86.4651 133.657 86.301 133.922C86.1461 134.186 85.9364 134.428 85.6721 134.646C85.4078 134.865 85.107 135.057 84.7697 135.221C84.4416 135.385 84.1043 135.526 83.7579 135.645C83.4116 135.754 83.0743 135.84 82.7462 135.904C82.418 135.959 82.1309 135.986 81.8848 135.986C81.4199 135.986 80.9095 135.964 80.3535 135.918C79.8066 135.863 79.2916 135.745 78.8085 135.562C78.3254 135.38 77.9198 135.107 77.5916 134.742C77.2726 134.368 77.1131 133.867 77.1131 133.238C77.1131 132.974 77.1404 132.714 77.1951 132.459C77.2589 132.204 77.3273 131.953 77.4002 131.707C77.4822 131.452 77.5506 131.196 77.6053 130.941C77.6691 130.677 77.701 130.412 77.701 130.148C77.701 129.218 77.6235 128.421 77.4686 127.755C77.3227 127.09 77.1222 126.516 76.867 126.033C76.6209 125.55 76.3383 125.139 76.0193 124.802C75.7094 124.465 75.3858 124.16 75.0485 123.886C74.7204 123.604 74.3968 123.335 74.0778 123.079C73.7679 122.815 73.4853 122.519 73.2301 122.191C72.984 121.863 72.7834 121.484 72.6285 121.056C72.4827 120.618 72.4097 120.09 72.4097 119.47C72.4097 119.014 72.4781 118.586 72.6148 118.185C72.7607 117.775 72.9657 117.419 73.2301 117.118C73.4944 116.808 73.8134 116.562 74.1872 116.38C74.57 116.198 74.9984 116.106 75.4724 116.106C75.8279 116.106 76.1788 116.157 76.5252 116.257C76.8715 116.357 77.2042 116.489 77.5233 116.653ZM107.849 126.457C108.232 126.457 108.551 126.388 108.806 126.251C109.061 126.115 109.266 125.932 109.421 125.705C109.576 125.468 109.686 125.199 109.749 124.898C109.813 124.588 109.845 124.269 109.845 123.941C109.845 123.585 109.79 123.257 109.681 122.956C109.581 122.656 109.43 122.396 109.23 122.177C109.029 121.958 108.783 121.79 108.492 121.671C108.2 121.544 107.872 121.48 107.507 121.48C107.179 121.48 106.906 121.562 106.687 121.726C106.477 121.89 106.309 122.095 106.181 122.341C106.062 122.587 105.98 122.861 105.935 123.161C105.889 123.453 105.866 123.731 105.866 123.996C105.866 124.251 105.917 124.524 106.017 124.816C106.117 125.108 106.254 125.376 106.427 125.623C106.6 125.86 106.81 126.06 107.056 126.224C107.302 126.379 107.566 126.457 107.849 126.457ZM104.294 116.626C104.449 116.626 104.64 116.558 104.868 116.421C105.105 116.275 105.365 116.12 105.648 115.956C105.93 115.783 106.231 115.628 106.55 115.491C106.878 115.345 107.211 115.272 107.548 115.272C108.323 115.272 109.038 115.441 109.695 115.778C110.351 116.116 110.943 116.562 111.472 117.118C112.001 117.674 112.466 118.317 112.867 119.046C113.277 119.775 113.619 120.532 113.892 121.316C114.166 122.09 114.371 122.87 114.507 123.654C114.644 124.428 114.713 125.149 114.713 125.814C114.713 126.571 114.644 127.354 114.507 128.166C114.38 128.977 114.179 129.774 113.906 130.558C113.632 131.333 113.286 132.071 112.867 132.773C112.457 133.466 111.969 134.077 111.404 134.605C110.93 135.052 110.392 135.398 109.79 135.645C109.189 135.891 108.56 136.068 107.904 136.178C107.256 136.296 106.596 136.365 105.921 136.383C105.247 136.41 104.595 136.424 103.966 136.424H103.747C103.146 136.424 102.594 136.351 102.093 136.205C101.601 136.068 101.172 135.859 100.808 135.576C100.443 135.284 100.16 134.92 99.9599 134.482C99.7594 134.045 99.6591 133.53 99.6591 132.937C99.6591 132.436 99.732 131.948 99.8779 131.474C100.033 130.991 100.201 130.504 100.384 130.011C100.566 129.51 100.73 128.991 100.876 128.453C101.031 127.915 101.108 127.332 101.108 126.703C101.108 126.056 101.045 125.413 100.917 124.775C100.798 124.137 100.666 123.503 100.52 122.874C100.384 122.236 100.252 121.598 100.124 120.96C100.005 120.322 99.9462 119.675 99.9462 119.019C99.9462 118.727 99.969 118.403 100.015 118.048C100.069 117.683 100.165 117.346 100.302 117.036C100.438 116.726 100.625 116.467 100.862 116.257C101.108 116.047 101.423 115.942 101.806 115.942C102.161 115.942 102.453 115.979 102.681 116.052C102.918 116.125 103.123 116.202 103.296 116.284C103.469 116.366 103.629 116.444 103.775 116.517C103.929 116.59 104.103 116.626 104.294 116.626ZM117.365 115.56C117.693 115.56 118.012 115.614 118.322 115.724C118.632 115.833 118.942 115.952 119.252 116.079C119.571 116.207 119.899 116.325 120.236 116.435C120.574 116.544 120.938 116.599 121.33 116.599C121.795 116.599 122.255 116.562 122.711 116.489C123.167 116.407 123.618 116.321 124.065 116.23C124.52 116.129 124.976 116.043 125.432 115.97C125.888 115.888 126.348 115.847 126.813 115.847C127.241 115.847 127.651 115.901 128.043 116.011C128.435 116.111 128.777 116.275 129.069 116.503C129.37 116.722 129.607 117.004 129.78 117.351C129.962 117.697 130.053 118.107 130.053 118.581C130.053 118.991 130.017 119.406 129.944 119.825C129.871 120.236 129.743 120.609 129.561 120.947C129.379 121.275 129.133 121.548 128.823 121.767C128.513 121.977 128.116 122.081 127.633 122.081C127.186 122.081 126.767 122.027 126.375 121.917C125.983 121.799 125.6 121.671 125.227 121.534C124.862 121.389 124.502 121.261 124.147 121.152C123.791 121.033 123.422 120.974 123.039 120.974C122.884 120.974 122.706 121.006 122.506 121.07C122.305 121.124 122.114 121.206 121.932 121.316C121.749 121.416 121.594 121.539 121.467 121.685C121.348 121.831 121.289 121.995 121.289 122.177C121.289 122.441 121.348 122.665 121.467 122.847C121.594 123.02 121.754 123.161 121.945 123.271C122.137 123.38 122.346 123.458 122.574 123.503C122.802 123.549 123.021 123.572 123.231 123.572C123.358 123.572 123.522 123.567 123.723 123.558C123.932 123.549 124.156 123.549 124.393 123.558C124.63 123.558 124.867 123.572 125.104 123.599C125.35 123.617 125.569 123.658 125.76 123.722C125.951 123.786 126.106 123.877 126.225 123.996C126.352 124.105 126.416 124.255 126.416 124.447C126.416 124.702 126.343 124.939 126.197 125.158C126.061 125.367 125.878 125.55 125.651 125.705C125.423 125.86 125.172 125.983 124.899 126.074C124.625 126.156 124.356 126.197 124.092 126.197C123.891 126.197 123.695 126.188 123.504 126.169C123.313 126.142 123.121 126.128 122.93 126.128C122.611 126.128 122.342 126.21 122.123 126.375C121.904 126.529 121.795 126.78 121.795 127.127C121.795 127.455 121.872 127.728 122.027 127.947C122.182 128.157 122.374 128.325 122.602 128.453C122.839 128.58 123.098 128.672 123.381 128.726C123.673 128.781 123.946 128.808 124.201 128.808C124.803 128.808 125.4 128.763 125.992 128.672C126.594 128.571 127.196 128.521 127.797 128.521C128.618 128.521 129.196 128.717 129.534 129.109C129.88 129.492 130.053 130.112 130.053 130.969C130.053 131.935 129.971 132.778 129.807 133.498C129.643 134.209 129.356 134.801 128.946 135.275C128.545 135.74 127.998 136.087 127.305 136.314C126.612 136.551 125.737 136.67 124.68 136.67C124.16 136.67 123.673 136.583 123.217 136.41C122.77 136.246 122.369 136.068 122.014 135.877C121.658 135.676 121.357 135.494 121.111 135.33C120.865 135.157 120.687 135.07 120.578 135.07C120.414 135.07 120.245 135.134 120.072 135.262C119.908 135.38 119.717 135.517 119.498 135.672C119.288 135.818 119.042 135.954 118.76 136.082C118.477 136.21 118.131 136.273 117.721 136.273C117.392 136.273 117.087 136.232 116.804 136.15C116.522 136.077 116.271 135.964 116.052 135.809C115.843 135.654 115.674 135.462 115.547 135.234C115.428 135.006 115.369 134.738 115.369 134.428C115.369 134.036 115.455 133.603 115.629 133.129C115.802 132.646 115.989 132.14 116.189 131.611C116.399 131.073 116.59 130.517 116.763 129.943C116.937 129.36 117.023 128.767 117.023 128.166V126.853C117.023 126.097 116.937 125.376 116.763 124.693C116.59 124 116.399 123.316 116.189 122.642C115.989 121.967 115.802 121.284 115.629 120.591C115.455 119.898 115.369 119.178 115.369 118.431C115.369 118.176 115.41 117.884 115.492 117.556C115.574 117.228 115.697 116.918 115.861 116.626C116.025 116.325 116.23 116.075 116.476 115.874C116.732 115.664 117.028 115.56 117.365 115.56ZM140.458 124.789C140.722 124.789 140.968 124.757 141.196 124.693C141.424 124.62 141.62 124.529 141.784 124.419C141.957 124.31 142.09 124.187 142.181 124.05C142.281 123.904 142.331 123.759 142.331 123.613C142.331 123.449 142.267 123.257 142.14 123.038C142.012 122.82 141.853 122.615 141.661 122.423C141.479 122.223 141.278 122.059 141.06 121.931C140.85 121.794 140.654 121.726 140.472 121.726C140.253 121.726 140.034 121.781 139.815 121.89C139.606 121.99 139.414 122.122 139.241 122.286C139.068 122.451 138.927 122.637 138.817 122.847C138.717 123.048 138.667 123.248 138.667 123.449C138.667 123.558 138.708 123.69 138.79 123.845C138.881 124 139.004 124.146 139.159 124.283C139.323 124.419 139.515 124.538 139.733 124.638C139.952 124.738 140.194 124.789 140.458 124.789ZM140.431 116.147C140.786 116.157 141.178 116.161 141.606 116.161C142.044 116.152 142.491 116.161 142.946 116.188C143.402 116.216 143.853 116.271 144.3 116.353C144.747 116.435 145.152 116.567 145.517 116.749C145.881 116.931 146.191 117.177 146.447 117.487C146.711 117.797 146.884 118.194 146.966 118.677C147.039 119.087 147.08 119.515 147.089 119.962C147.098 120.409 147.103 120.865 147.103 121.329C147.112 121.794 147.126 122.268 147.144 122.751C147.162 123.234 147.217 123.718 147.308 124.201C147.454 124.975 147.627 125.755 147.827 126.539C148.037 127.322 148.238 128.097 148.429 128.863C148.62 129.619 148.789 130.358 148.935 131.078C149.09 131.789 149.186 132.468 149.222 133.115C149.24 133.516 149.145 133.885 148.935 134.223C148.725 134.56 148.456 134.829 148.128 135.029C147.928 135.148 147.686 135.262 147.404 135.371C147.121 135.471 146.811 135.562 146.474 135.645C146.137 135.717 145.786 135.777 145.421 135.822C145.056 135.868 144.692 135.891 144.327 135.891C144.017 135.891 143.712 135.872 143.411 135.836C143.12 135.799 142.846 135.74 142.591 135.658C142.336 135.567 142.103 135.453 141.894 135.316C141.693 135.18 141.529 135.016 141.401 134.824C141.173 134.478 140.987 134.113 140.841 133.73C140.704 133.338 140.645 132.933 140.663 132.514C140.672 132.204 140.741 131.921 140.868 131.666C141.005 131.401 141.169 131.155 141.36 130.927C141.552 130.69 141.752 130.467 141.962 130.258C142.181 130.039 142.377 129.825 142.55 129.615C142.723 129.396 142.86 129.177 142.96 128.959C143.06 128.74 143.092 128.512 143.056 128.275C143.028 128.093 142.924 127.947 142.741 127.837C142.568 127.728 142.363 127.646 142.126 127.591C141.898 127.537 141.666 127.505 141.429 127.496C141.192 127.477 141 127.468 140.854 127.468C140.563 127.468 140.257 127.487 139.938 127.523C139.619 127.559 139.332 127.628 139.077 127.728C138.822 127.819 138.617 127.947 138.462 128.111C138.307 128.266 138.243 128.466 138.27 128.713C138.307 129.004 138.361 129.25 138.434 129.451C138.516 129.651 138.603 129.838 138.694 130.011C138.785 130.176 138.876 130.344 138.968 130.517C139.068 130.69 139.154 130.896 139.227 131.133C139.3 131.37 139.355 131.657 139.391 131.994C139.437 132.331 139.451 132.75 139.433 133.252C139.433 133.398 139.401 133.562 139.337 133.744C139.273 133.917 139.191 134.095 139.091 134.277C138.99 134.45 138.881 134.615 138.763 134.769C138.644 134.924 138.53 135.047 138.421 135.139C138.065 135.421 137.628 135.635 137.108 135.781C136.598 135.918 136.064 135.986 135.508 135.986C135.135 135.986 134.761 135.954 134.387 135.891C134.014 135.827 133.658 135.731 133.321 135.603C132.993 135.476 132.687 135.316 132.405 135.125C132.131 134.934 131.903 134.71 131.721 134.455C131.512 134.163 131.388 133.84 131.352 133.484C131.316 133.129 131.352 132.787 131.461 132.459C131.644 131.912 131.858 131.306 132.104 130.64C132.35 129.975 132.596 129.3 132.842 128.617C133.088 127.924 133.321 127.245 133.54 126.58C133.768 125.905 133.945 125.285 134.073 124.72C134.228 124.037 134.337 123.408 134.401 122.833C134.465 122.259 134.524 121.699 134.579 121.152C134.643 120.605 134.715 120.049 134.798 119.484C134.889 118.909 135.035 118.29 135.235 117.624C135.335 117.278 135.49 116.986 135.7 116.749C135.919 116.503 136.169 116.307 136.452 116.161C136.734 116.006 137.04 115.892 137.368 115.819C137.696 115.746 138.029 115.71 138.366 115.71C138.53 115.71 138.69 115.719 138.845 115.737C139.009 115.746 139.168 115.769 139.323 115.806C139.515 115.851 139.697 115.92 139.87 116.011C140.043 116.093 140.23 116.138 140.431 116.147ZM160.42 121.822C160.146 121.822 159.919 121.904 159.736 122.068C159.554 122.232 159.408 122.432 159.299 122.669C159.189 122.906 159.112 123.161 159.066 123.435C159.021 123.699 158.998 123.936 158.998 124.146C158.998 124.392 159.007 124.638 159.025 124.884C159.043 125.13 159.057 125.376 159.066 125.623C159.084 126.024 159.148 126.416 159.258 126.798C159.367 127.172 159.499 127.541 159.654 127.906C159.809 128.261 159.978 128.617 160.16 128.972C160.342 129.328 160.511 129.688 160.666 130.052C160.821 130.417 160.949 130.791 161.049 131.174C161.149 131.556 161.199 131.953 161.199 132.363C161.199 132.837 161.094 133.343 160.885 133.881C160.675 134.419 160.361 134.915 159.941 135.371C159.531 135.827 159.021 136.205 158.41 136.506C157.799 136.807 157.093 136.957 156.291 136.957C155.489 136.957 154.81 136.811 154.254 136.52C153.707 136.237 153.265 135.863 152.927 135.398C152.59 134.934 152.344 134.409 152.189 133.826C152.043 133.234 151.97 132.637 151.97 132.035C151.97 131.47 152.039 130.886 152.175 130.285C152.312 129.674 152.462 129.068 152.626 128.466C152.8 127.856 152.955 127.25 153.091 126.648C153.228 126.046 153.296 125.463 153.296 124.898C153.296 124.369 153.228 123.964 153.091 123.681C152.964 123.389 152.777 123.175 152.531 123.038C152.294 122.902 152.002 122.824 151.656 122.806C151.318 122.779 150.936 122.765 150.507 122.765C150.143 122.765 149.792 122.751 149.454 122.724C149.117 122.688 148.821 122.601 148.566 122.464C148.311 122.327 148.105 122.118 147.95 121.835C147.805 121.553 147.732 121.161 147.732 120.659C147.732 119.985 147.755 119.351 147.8 118.759C147.846 118.166 147.978 117.651 148.197 117.214C148.424 116.767 148.766 116.416 149.222 116.161C149.687 115.906 150.334 115.778 151.164 115.778C151.61 115.778 152.052 115.81 152.49 115.874C152.927 115.938 153.365 116.011 153.802 116.093C154.24 116.166 154.677 116.234 155.115 116.298C155.552 116.362 155.994 116.394 156.441 116.394C156.87 116.394 157.298 116.371 157.726 116.325C158.155 116.271 158.579 116.211 158.998 116.147C159.426 116.084 159.85 116.029 160.269 115.983C160.698 115.929 161.126 115.901 161.555 115.901C162.047 115.901 162.503 115.952 162.922 116.052C163.35 116.143 163.715 116.302 164.016 116.53C164.326 116.758 164.567 117.064 164.74 117.446C164.923 117.829 165.014 118.308 165.014 118.882C165.014 119.192 165 119.561 164.973 119.989C164.945 120.409 164.873 120.814 164.754 121.206C164.636 121.598 164.462 121.931 164.234 122.204C164.016 122.478 163.706 122.615 163.305 122.615C163.05 122.615 162.794 122.574 162.539 122.492C162.284 122.41 162.033 122.318 161.787 122.218C161.55 122.118 161.313 122.027 161.076 121.945C160.848 121.863 160.629 121.822 160.42 121.822ZM175.952 128.507C175.952 128.27 175.906 128.097 175.815 127.988C175.733 127.869 175.619 127.787 175.473 127.742C175.337 127.696 175.182 127.673 175.008 127.673C174.835 127.673 174.662 127.673 174.489 127.673C174.215 127.673 173.915 127.678 173.586 127.687C173.267 127.687 172.971 127.733 172.698 127.824C172.424 127.906 172.196 128.047 172.014 128.248C171.832 128.448 171.741 128.74 171.741 129.123C171.741 129.433 171.809 129.765 171.946 130.121C172.083 130.467 172.233 130.832 172.397 131.215C172.561 131.597 172.711 132.003 172.848 132.431C172.985 132.851 173.053 133.293 173.053 133.758C173.053 134.068 172.98 134.355 172.834 134.619C172.689 134.883 172.493 135.125 172.247 135.344C172.01 135.562 171.732 135.758 171.413 135.932C171.103 136.096 170.784 136.232 170.455 136.342C170.127 136.46 169.804 136.547 169.485 136.602C169.166 136.665 168.879 136.697 168.623 136.697C168.441 136.697 168.245 136.688 168.035 136.67C167.826 136.661 167.616 136.633 167.406 136.588C167.206 136.551 167.015 136.492 166.832 136.41C166.65 136.328 166.495 136.219 166.367 136.082C165.966 135.654 165.675 135.166 165.492 134.619C165.31 134.072 165.219 133.512 165.219 132.937C165.219 132.29 165.296 131.657 165.451 131.037C165.606 130.408 165.775 129.788 165.957 129.177C166.14 128.558 166.308 127.938 166.463 127.318C166.618 126.689 166.696 126.056 166.696 125.417C166.696 124.825 166.65 124.246 166.559 123.681C166.468 123.116 166.367 122.56 166.258 122.013C166.158 121.457 166.062 120.906 165.971 120.359C165.88 119.803 165.834 119.247 165.834 118.691C165.834 118.016 165.925 117.478 166.108 117.077C166.299 116.676 166.554 116.366 166.873 116.147C167.201 115.929 167.584 115.787 168.022 115.724C168.468 115.651 168.947 115.614 169.457 115.614C170.004 115.614 170.506 115.696 170.961 115.86C171.426 116.015 171.827 116.22 172.165 116.476C172.511 116.722 172.78 117.004 172.971 117.323C173.163 117.642 173.258 117.966 173.258 118.294C173.258 118.695 173.222 119.051 173.149 119.361C173.085 119.67 173.003 119.953 172.903 120.208C172.812 120.454 172.707 120.678 172.588 120.878C172.47 121.079 172.361 121.27 172.26 121.452C172.169 121.635 172.087 121.812 172.014 121.986C171.95 122.159 171.918 122.341 171.918 122.533C171.918 122.824 171.996 123.016 172.151 123.107C172.315 123.198 172.529 123.244 172.793 123.244C173.021 123.244 173.245 123.225 173.463 123.189C173.691 123.143 173.919 123.12 174.147 123.12C174.393 123.12 174.662 123.098 174.954 123.052C175.255 123.007 175.528 122.925 175.774 122.806C176.029 122.678 176.239 122.514 176.403 122.314C176.576 122.104 176.663 121.84 176.663 121.521C176.663 121.256 176.604 120.992 176.485 120.728C176.376 120.454 176.248 120.181 176.102 119.907C175.966 119.634 175.838 119.361 175.719 119.087C175.61 118.805 175.555 118.513 175.555 118.212C175.555 117.811 175.669 117.455 175.897 117.146C176.134 116.827 176.426 116.562 176.772 116.353C177.119 116.134 177.492 115.97 177.893 115.86C178.294 115.742 178.668 115.683 179.014 115.683C179.671 115.683 180.227 115.828 180.683 116.12C181.147 116.412 181.521 116.79 181.804 117.255C182.095 117.72 182.305 118.239 182.433 118.814C182.56 119.388 182.624 119.958 182.624 120.523C182.624 120.988 182.556 121.407 182.419 121.781C182.282 122.145 182.132 122.492 181.968 122.82C181.804 123.139 181.653 123.458 181.517 123.777C181.38 124.087 181.311 124.419 181.311 124.775C181.311 125.404 181.412 126.046 181.612 126.703C181.822 127.359 182.045 128.024 182.282 128.699C182.528 129.364 182.752 130.034 182.952 130.709C183.162 131.374 183.267 132.035 183.267 132.691C183.267 133.265 183.116 133.776 182.815 134.223C182.515 134.669 182.132 135.047 181.667 135.357C181.211 135.658 180.71 135.891 180.163 136.055C179.616 136.219 179.092 136.301 178.591 136.301C178.098 136.301 177.602 136.246 177.1 136.137C176.608 136.027 176.161 135.859 175.76 135.631C175.368 135.394 175.049 135.088 174.803 134.715C174.557 134.341 174.434 133.894 174.434 133.375C174.434 132.946 174.512 132.523 174.667 132.103C174.831 131.675 175.004 131.256 175.186 130.845C175.378 130.426 175.551 130.021 175.706 129.629C175.87 129.237 175.952 128.863 175.952 128.507ZM200.357 126.457C200.74 126.457 201.059 126.388 201.314 126.251C201.57 126.115 201.775 125.932 201.93 125.705C202.085 125.468 202.194 125.199 202.258 124.898C202.322 124.588 202.353 124.269 202.353 123.941C202.353 123.585 202.299 123.257 202.189 122.956C202.089 122.656 201.939 122.396 201.738 122.177C201.538 121.958 201.292 121.79 201 121.671C200.708 121.544 200.38 121.48 200.015 121.48C199.687 121.48 199.414 121.562 199.195 121.726C198.985 121.89 198.817 122.095 198.689 122.341C198.571 122.587 198.489 122.861 198.443 123.161C198.398 123.453 198.375 123.731 198.375 123.996C198.375 124.251 198.425 124.524 198.525 124.816C198.625 125.108 198.762 125.376 198.935 125.623C199.109 125.86 199.318 126.06 199.564 126.224C199.81 126.379 200.075 126.457 200.357 126.457ZM196.802 116.626C196.957 116.626 197.149 116.558 197.377 116.421C197.614 116.275 197.873 116.12 198.156 115.956C198.439 115.783 198.739 115.628 199.058 115.491C199.387 115.345 199.719 115.272 200.057 115.272C200.831 115.272 201.547 115.441 202.203 115.778C202.859 116.116 203.452 116.562 203.981 117.118C204.509 117.674 204.974 118.317 205.375 119.046C205.785 119.775 206.127 120.532 206.401 121.316C206.674 122.09 206.879 122.87 207.016 123.654C207.153 124.428 207.221 125.149 207.221 125.814C207.221 126.571 207.153 127.354 207.016 128.166C206.888 128.977 206.688 129.774 206.414 130.558C206.141 131.333 205.794 132.071 205.375 132.773C204.965 133.466 204.477 134.077 203.912 134.605C203.438 135.052 202.9 135.398 202.299 135.645C201.697 135.891 201.068 136.068 200.412 136.178C199.765 136.296 199.104 136.365 198.429 136.383C197.755 136.41 197.103 136.424 196.474 136.424H196.256C195.654 136.424 195.102 136.351 194.601 136.205C194.109 136.068 193.681 135.859 193.316 135.576C192.951 135.284 192.669 134.92 192.468 134.482C192.268 134.045 192.167 133.53 192.167 132.937C192.167 132.436 192.24 131.948 192.386 131.474C192.541 130.991 192.71 130.504 192.892 130.011C193.074 129.51 193.238 128.991 193.384 128.453C193.539 127.915 193.617 127.332 193.617 126.703C193.617 126.056 193.553 125.413 193.425 124.775C193.307 124.137 193.175 123.503 193.029 122.874C192.892 122.236 192.76 121.598 192.632 120.96C192.514 120.322 192.455 119.675 192.455 119.019C192.455 118.727 192.477 118.403 192.523 118.048C192.578 117.683 192.673 117.346 192.81 117.036C192.947 116.726 193.134 116.467 193.371 116.257C193.617 116.047 193.931 115.942 194.314 115.942C194.67 115.942 194.961 115.979 195.189 116.052C195.426 116.125 195.631 116.202 195.804 116.284C195.978 116.366 196.137 116.444 196.283 116.517C196.438 116.59 196.611 116.626 196.802 116.626ZM217.106 124.789C217.37 124.789 217.617 124.757 217.844 124.693C218.072 124.62 218.268 124.529 218.432 124.419C218.606 124.31 218.738 124.187 218.829 124.05C218.929 123.904 218.979 123.759 218.979 123.613C218.979 123.449 218.915 123.257 218.788 123.038C218.66 122.82 218.501 122.615 218.309 122.423C218.127 122.223 217.927 122.059 217.708 121.931C217.498 121.794 217.302 121.726 217.12 121.726C216.901 121.726 216.682 121.781 216.464 121.89C216.254 121.99 216.062 122.122 215.889 122.286C215.716 122.451 215.575 122.637 215.465 122.847C215.365 123.048 215.315 123.248 215.315 123.449C215.315 123.558 215.356 123.69 215.438 123.845C215.529 124 215.652 124.146 215.807 124.283C215.971 124.419 216.163 124.538 216.382 124.638C216.6 124.738 216.842 124.789 217.106 124.789ZM217.079 116.147C217.434 116.157 217.826 116.161 218.255 116.161C218.692 116.152 219.139 116.161 219.595 116.188C220.05 116.216 220.502 116.271 220.948 116.353C221.395 116.435 221.8 116.567 222.165 116.749C222.53 116.931 222.84 117.177 223.095 117.487C223.359 117.797 223.532 118.194 223.614 118.677C223.687 119.087 223.728 119.515 223.737 119.962C223.746 120.409 223.751 120.865 223.751 121.329C223.76 121.794 223.774 122.268 223.792 122.751C223.81 123.234 223.865 123.718 223.956 124.201C224.102 124.975 224.275 125.755 224.476 126.539C224.685 127.322 224.886 128.097 225.077 128.863C225.269 129.619 225.437 130.358 225.583 131.078C225.738 131.789 225.834 132.468 225.87 133.115C225.888 133.516 225.793 133.885 225.583 134.223C225.373 134.56 225.105 134.829 224.776 135.029C224.576 135.148 224.334 135.262 224.052 135.371C223.769 135.471 223.459 135.562 223.122 135.645C222.785 135.717 222.434 135.777 222.069 135.822C221.705 135.868 221.34 135.891 220.975 135.891C220.666 135.891 220.36 135.872 220.059 135.836C219.768 135.799 219.494 135.74 219.239 135.658C218.984 135.567 218.751 135.453 218.542 135.316C218.341 135.18 218.177 135.016 218.05 134.824C217.822 134.478 217.635 134.113 217.489 133.73C217.352 133.338 217.293 132.933 217.311 132.514C217.32 132.204 217.389 131.921 217.516 131.666C217.653 131.401 217.817 131.155 218.009 130.927C218.2 130.69 218.4 130.467 218.61 130.258C218.829 130.039 219.025 129.825 219.198 129.615C219.371 129.396 219.508 129.177 219.608 128.959C219.709 128.74 219.74 128.512 219.704 128.275C219.677 128.093 219.572 127.947 219.389 127.837C219.216 127.728 219.011 127.646 218.774 127.591C218.546 127.537 218.314 127.505 218.077 127.496C217.84 127.477 217.649 127.468 217.503 127.468C217.211 127.468 216.906 127.487 216.587 127.523C216.268 127.559 215.98 127.628 215.725 127.728C215.47 127.819 215.265 127.947 215.11 128.111C214.955 128.266 214.891 128.466 214.919 128.713C214.955 129.004 215.01 129.25 215.083 129.451C215.165 129.651 215.251 129.838 215.342 130.011C215.434 130.176 215.525 130.344 215.616 130.517C215.716 130.69 215.803 130.896 215.876 131.133C215.949 131.37 216.003 131.657 216.04 131.994C216.085 132.331 216.099 132.75 216.081 133.252C216.081 133.398 216.049 133.562 215.985 133.744C215.921 133.917 215.839 134.095 215.739 134.277C215.639 134.45 215.529 134.615 215.411 134.769C215.292 134.924 215.178 135.047 215.069 135.139C214.713 135.421 214.276 135.635 213.756 135.781C213.246 135.918 212.713 135.986 212.157 135.986C211.783 135.986 211.409 135.954 211.036 135.891C210.662 135.827 210.306 135.731 209.969 135.603C209.641 135.476 209.336 135.316 209.053 135.125C208.78 134.934 208.552 134.71 208.369 134.455C208.16 134.163 208.037 133.84 208 133.484C207.964 133.129 208 132.787 208.11 132.459C208.292 131.912 208.506 131.306 208.752 130.64C208.998 129.975 209.244 129.3 209.491 128.617C209.737 127.924 209.969 127.245 210.188 126.58C210.416 125.905 210.593 125.285 210.721 124.72C210.876 124.037 210.985 123.408 211.049 122.833C211.113 122.259 211.172 121.699 211.227 121.152C211.291 120.605 211.364 120.049 211.446 119.484C211.537 118.909 211.683 118.29 211.883 117.624C211.984 117.278 212.138 116.986 212.348 116.749C212.567 116.503 212.818 116.307 213.1 116.161C213.383 116.006 213.688 115.892 214.016 115.819C214.344 115.746 214.677 115.71 215.014 115.71C215.178 115.71 215.338 115.719 215.493 115.737C215.657 115.746 215.816 115.769 215.971 115.806C216.163 115.851 216.345 115.92 216.518 116.011C216.691 116.093 216.878 116.138 217.079 116.147ZM229.48 116.653C229.872 116.599 230.209 116.672 230.492 116.872C230.783 117.073 231.043 117.337 231.271 117.665C231.499 117.993 231.704 118.362 231.886 118.773C232.068 119.174 232.246 119.547 232.419 119.894C232.602 120.24 232.789 120.532 232.98 120.769C233.181 121.006 233.404 121.124 233.65 121.124C233.787 121.124 233.91 121.097 234.019 121.042C234.411 120.86 234.712 120.6 234.921 120.263C235.131 119.917 235.304 119.543 235.441 119.142C235.587 118.732 235.719 118.317 235.838 117.898C235.965 117.469 236.138 117.086 236.357 116.749C236.576 116.403 236.863 116.12 237.218 115.901C237.583 115.683 238.071 115.573 238.681 115.573C239.155 115.573 239.634 115.646 240.117 115.792C240.609 115.938 241.051 116.152 241.443 116.435C241.835 116.717 242.154 117.068 242.4 117.487C242.656 117.898 242.783 118.367 242.783 118.896C242.783 119.069 242.779 119.26 242.77 119.47C242.76 119.68 242.738 119.889 242.701 120.099C242.674 120.308 242.624 120.514 242.551 120.714C242.487 120.906 242.396 121.07 242.277 121.206C242.049 121.48 241.758 121.758 241.402 122.04C241.047 122.323 240.668 122.61 240.267 122.902C239.875 123.184 239.479 123.481 239.078 123.79C238.686 124.091 238.33 124.41 238.011 124.748C237.702 125.085 237.446 125.436 237.246 125.8C237.045 126.165 236.945 126.552 236.945 126.962C236.945 127.628 237.027 128.216 237.191 128.726C237.355 129.228 237.533 129.706 237.724 130.162C237.916 130.618 238.093 131.073 238.258 131.529C238.422 131.985 238.504 132.495 238.504 133.06C238.504 133.37 238.422 133.657 238.258 133.922C238.103 134.186 237.893 134.428 237.629 134.646C237.364 134.865 237.064 135.057 236.726 135.221C236.398 135.385 236.061 135.526 235.714 135.645C235.368 135.754 235.031 135.84 234.703 135.904C234.375 135.959 234.087 135.986 233.841 135.986C233.376 135.986 232.866 135.964 232.31 135.918C231.763 135.863 231.248 135.745 230.765 135.562C230.282 135.38 229.876 135.107 229.548 134.742C229.229 134.368 229.07 133.867 229.07 133.238C229.07 132.974 229.097 132.714 229.152 132.459C229.215 132.204 229.284 131.953 229.357 131.707C229.439 131.452 229.507 131.196 229.562 130.941C229.626 130.677 229.658 130.412 229.658 130.148C229.658 129.218 229.58 128.421 229.425 127.755C229.279 127.09 229.079 126.516 228.824 126.033C228.577 125.55 228.295 125.139 227.976 124.802C227.666 124.465 227.342 124.16 227.005 123.886C226.677 123.604 226.353 123.335 226.034 123.079C225.724 122.815 225.442 122.519 225.187 122.191C224.941 121.863 224.74 121.484 224.585 121.056C224.439 120.618 224.366 120.09 224.366 119.47C224.366 119.014 224.435 118.586 224.571 118.185C224.717 117.775 224.922 117.419 225.187 117.118C225.451 116.808 225.77 116.562 226.144 116.38C226.527 116.198 226.955 116.106 227.429 116.106C227.784 116.106 228.135 116.157 228.482 116.257C228.828 116.357 229.161 116.489 229.48 116.653Z" fill="#FF84AD"/>
</svg>
