<svg width="196" height="192" viewBox="0 0 196 192" fill="none" xmlns="http://www.w3.org/2000/svg">
<path d="M23.2927 28.1173C23.2927 27.6044 23.1992 27.2243 23.0121 26.9769C22.8251 26.7294 22.5777 26.5575 22.2699 26.4579C21.9622 26.3583 21.6212 26.31 21.2471 26.31H20.1187C19.5243 26.31 18.8786 26.3161 18.1756 26.3251C17.4726 26.3342 16.8269 26.4338 16.2325 26.6208C15.6381 26.8079 15.1463 27.1217 14.748 27.5562C14.3528 27.9906 14.1537 28.6242 14.1537 29.454C14.1537 30.1268 14.3015 30.8449 14.5972 31.6052C14.8929 32.3656 15.2187 33.1621 15.5748 33.9918C15.9308 34.8216 16.2566 35.6965 16.5523 36.6168C16.848 37.537 16.9959 38.4995 16.9959 39.5073C16.9959 40.1801 16.8359 40.8016 16.5222 41.3749C16.2054 41.9482 15.786 42.4732 15.261 42.9469C14.736 43.4206 14.1325 43.843 13.4507 44.208C12.7688 44.5731 12.0718 44.8809 11.3597 45.1283C10.6477 45.3757 9.94467 45.5628 9.25374 45.6925C8.5628 45.8192 7.93824 45.8856 7.38609 45.8856C6.99084 45.8856 6.56542 45.8705 6.10982 45.8403C5.65422 45.8102 5.20466 45.7529 4.76113 45.6623C4.31761 45.5718 3.8952 45.4391 3.49995 45.261C3.10469 45.083 2.76677 44.8447 2.4922 44.549C1.62325 43.6197 0.98964 42.5607 0.594387 41.3749C0.199135 40.1891 0 38.9732 0 37.7271C0 36.3241 0.168963 34.9453 0.503872 33.5905C0.83878 32.2358 1.20688 30.8902 1.60213 29.5566C1.99738 28.223 2.36246 26.8773 2.70039 25.5226C3.0353 24.1678 3.20426 22.798 3.20426 21.4131C3.20426 20.1278 3.10469 18.8727 2.90858 17.6477C2.70944 16.4227 2.49824 15.2098 2.27195 14.015C2.04566 12.8202 1.83144 11.6223 1.63532 10.4245C1.43618 9.22971 1.33963 8.02585 1.33963 6.82199C1.33963 5.35865 1.54179 4.19099 1.94911 3.32204C2.35341 2.45309 2.90858 1.78025 3.60857 1.30655C4.31157 0.832852 5.1413 0.519064 6.10077 0.371222C7.06024 0.223379 8.09212 0.147949 9.19943 0.147949C10.3852 0.147949 11.4774 0.319929 12.4761 0.666907C13.4748 1.01388 14.3437 1.45741 15.086 2.00051C15.8282 2.5436 16.4045 3.16213 16.8209 3.85307C17.2372 4.544 17.4424 5.24701 17.4424 5.95907C17.4424 6.82802 17.367 7.60042 17.2191 8.27326C17.0713 8.94609 16.8933 9.55255 16.6851 10.0987C16.4769 10.6418 16.2446 11.1305 15.9881 11.568C15.7317 12.0025 15.4993 12.4189 15.2911 12.8141C15.083 13.2094 14.9049 13.5956 14.7571 13.9697C14.6093 14.3469 14.5338 14.7421 14.5338 15.1555C14.5338 15.7891 14.7058 16.2024 15.0528 16.4016C15.3998 16.6007 15.8584 16.6973 16.4316 16.6973C16.9265 16.6973 17.4152 16.652 17.901 16.5645C18.3868 16.477 18.8756 16.4318 19.3704 16.4318C19.9044 16.4318 20.4928 16.3835 21.1354 16.2839C21.7781 16.1843 22.3725 16.0033 22.9156 15.7348C23.4587 15.4693 23.9143 15.1132 24.2794 14.6667C24.6444 14.2232 24.8285 13.6529 24.8285 12.962C24.8285 12.3887 24.7048 11.8094 24.4574 11.2271C24.21 10.6448 23.9324 10.0564 23.6277 9.46203C23.3199 8.86764 23.0453 8.27024 22.7979 7.6668C22.5505 7.06336 22.4268 6.43578 22.4268 5.78407C22.4268 4.91512 22.6803 4.13668 23.1841 3.4548C23.688 2.77291 24.3156 2.19964 25.0669 1.73499C25.8181 1.27035 26.6298 0.914317 27.4987 0.666907C28.3677 0.419497 29.1793 0.295792 29.9306 0.295792C31.3547 0.295792 32.5646 0.612597 33.5633 1.24621C34.562 1.87982 35.3736 2.7005 35.9951 3.70824C36.6167 4.71598 37.0662 5.84441 37.3438 7.09052C37.6214 8.33662 37.7602 9.57065 37.7602 10.7986C37.7602 11.8064 37.6124 12.7115 37.3167 13.5141C37.021 14.3137 36.6951 15.068 36.3391 15.768C35.9831 16.471 35.6572 17.1619 35.3615 17.8438C35.0658 18.5257 34.918 19.2528 34.918 20.0252C34.918 21.389 35.1413 22.7829 35.5848 24.2071C36.0283 25.6312 36.5141 27.0704 37.0391 28.5217C37.5641 29.9759 38.0468 31.4272 38.4934 32.8815C38.9369 34.3358 39.1602 35.772 39.1602 37.1961C39.1602 38.4422 38.8343 39.5495 38.1826 40.518C37.5309 41.4865 36.7042 42.3042 35.7055 42.965C34.7068 43.6287 33.6146 44.1356 32.4288 44.4917C31.2431 44.8477 30.1056 45.0257 29.0194 45.0257C27.9332 45.0257 26.8772 44.908 25.8 44.6697C24.7229 44.4313 23.7544 44.0602 22.8945 43.5563C22.0346 43.0525 21.3376 42.3947 20.8036 41.5831C20.2695 40.7715 20.004 39.8029 20.004 38.6775C20.004 37.7482 20.176 36.825 20.523 35.9047C20.8699 34.9845 21.2441 34.0763 21.6514 33.1772C22.0557 32.2781 22.4328 31.4031 22.7798 30.5522C23.1268 29.7014 23.2988 28.8898 23.2988 28.1204L23.2927 28.1173Z" fill="#FF84AD"/>
<path d="M60.012 1.30664C60.7844 1.32776 61.6382 1.33077 62.5766 1.32172C63.5149 1.31267 64.4804 1.33681 65.4671 1.39715C66.4567 1.4575 67.4343 1.57517 68.4028 1.75318C69.3713 1.9312 70.2523 2.21783 71.0428 2.61308C71.8333 3.00833 72.5122 3.54238 73.0734 4.21521C73.6376 4.88805 74.0088 5.74795 74.1868 6.79491C74.3437 7.68499 74.4342 8.61428 74.4523 9.5828C74.4704 10.5513 74.4855 11.541 74.4975 12.5487C74.5066 13.5564 74.5307 14.5853 74.573 15.6323C74.6122 16.6792 74.7299 17.7292 74.929 18.7762C75.2458 20.4568 75.626 22.1464 76.0695 23.8481C76.513 25.5498 76.9445 27.2243 77.3609 28.8747C77.7772 30.5252 78.1453 32.1273 78.4742 33.6811C78.8001 35.235 79.0022 36.7104 79.0837 38.1164C79.1229 38.9854 78.9147 39.7879 78.4621 40.5181C78.0065 41.2483 77.4242 41.8336 76.7122 42.2681C76.2777 42.5245 75.7527 42.7689 75.1402 42.9952C74.5277 43.2215 73.8549 43.4206 73.1247 43.5896C72.3915 43.7586 71.6312 43.8913 70.8407 43.9909C70.0502 44.0905 69.2597 44.1387 68.4692 44.1387C67.7963 44.1387 67.1386 44.0995 66.4959 44.0211C65.8533 43.9426 65.2559 43.8099 64.7007 43.6198C64.1455 43.4327 63.6477 43.1883 63.2042 42.8926C62.7606 42.597 62.3986 42.2409 62.121 41.8246C61.6262 41.0733 61.2249 40.2767 60.9202 39.438C60.6124 38.5992 60.4796 37.7242 60.5189 36.813C60.537 36.1402 60.6909 35.5216 60.9775 34.9604C61.2641 34.3962 61.6141 33.8622 62.0305 33.3583C62.4469 32.8544 62.8843 32.3687 63.349 31.904C63.8136 31.4394 64.233 30.9747 64.6102 30.5101C64.9843 30.0454 65.283 29.5747 65.5003 29.101C65.7175 28.6273 65.7869 28.1325 65.7084 27.6166C65.6481 27.2213 65.4278 26.9045 65.0416 26.6662C64.6554 26.4278 64.2119 26.2498 63.708 26.1321C63.2042 26.0144 62.6943 25.939 62.1813 25.9088C61.6654 25.8787 61.252 25.8636 60.9352 25.8636C60.3016 25.8636 59.6409 25.9028 58.9469 25.9813C58.256 26.0597 57.6314 26.2045 57.0793 26.4127C56.5241 26.6209 56.0806 26.8985 55.7457 27.2424C55.4077 27.5894 55.272 28.0269 55.3293 28.561C55.4077 29.1946 55.5314 29.7286 55.7004 30.1631C55.8694 30.5976 56.0504 30.9989 56.2495 31.3639C56.4457 31.729 56.6508 32.1001 56.859 32.4773C57.0672 32.8544 57.2482 33.298 57.4081 33.8109C57.565 34.3268 57.6887 34.9484 57.7793 35.6785C57.8668 36.4117 57.8939 37.3199 57.8547 38.4061C57.8547 38.7229 57.7853 39.0729 57.6465 39.4591C57.5077 39.8453 57.3297 40.2315 57.1125 40.6147C56.8952 41.0009 56.6569 41.3599 56.4004 41.6978C56.1439 42.0358 55.8965 42.3013 55.6582 42.4974C54.8858 43.1099 53.9414 43.5715 52.825 43.8762C51.7087 44.184 50.547 44.3349 49.3402 44.3349C48.5285 44.3349 47.7199 44.2655 46.9083 44.1267C46.0967 43.9879 45.3303 43.7797 44.6092 43.5051C43.8881 43.2275 43.2243 42.8836 42.6209 42.4672C42.0174 42.0508 41.5196 41.5681 41.1243 41.0129C40.6687 40.3793 40.4032 39.6793 40.3248 38.9069C40.2463 38.1345 40.3248 37.3953 40.5631 36.6832C40.9584 35.4975 41.423 34.182 41.9571 32.7398C42.4911 31.2976 43.0252 29.8282 43.5592 28.3347C44.0933 26.8412 44.6032 25.3688 45.0859 23.9145C45.5717 22.4602 45.9518 21.1206 46.2264 19.8956C46.5613 18.4111 46.7997 17.0473 46.9385 15.8012C47.0773 14.5551 47.21 13.3392 47.3398 12.1535C47.4695 10.9677 47.6264 9.75478 47.8135 8.52075C48.0005 7.2837 48.3113 5.94407 48.7488 4.50185C48.966 3.75056 49.307 3.11394 49.7716 2.58894C50.2363 2.06395 50.7763 1.63853 51.3888 1.31267C52.0013 0.986813 52.6651 0.745438 53.3772 0.585526C54.0892 0.428632 54.8103 0.347168 55.5435 0.347168C55.8995 0.347168 56.2495 0.362254 56.5965 0.392426C56.9435 0.422598 57.2844 0.476907 57.6193 0.555354C58.0357 0.654922 58.431 0.79673 58.8051 0.986813C59.1792 1.17388 59.5866 1.27948 60.021 1.29758L60.012 1.30664ZM60.0723 20.0525C60.6456 20.0525 61.1796 19.977 61.6745 19.8292C62.1693 19.6814 62.5977 19.4883 62.9658 19.2499C63.3309 19.0115 63.6175 18.74 63.8257 18.4353C64.0339 18.1305 64.1365 17.8167 64.1365 17.4999C64.1365 17.1439 63.9977 16.7275 63.7201 16.2538C63.4425 15.7801 63.1016 15.3306 62.6973 14.9051C62.293 14.4797 61.8555 14.1237 61.3908 13.837C60.9262 13.5504 60.4947 13.4056 60.0995 13.4056C59.6258 13.4056 59.1551 13.5202 58.6905 13.7465C58.2258 13.9728 57.8064 14.2655 57.4293 14.6215C57.0521 14.9775 56.7504 15.3788 56.5241 15.8224C56.2978 16.2659 56.1832 16.7064 56.1832 17.1439C56.1832 17.3823 56.2767 17.6689 56.4638 18.0038C56.6508 18.3417 56.9194 18.6555 57.2633 18.9542C57.6103 19.2499 58.0206 19.5094 58.4943 19.7266C58.968 19.9438 59.493 20.0525 60.0663 20.0525H60.0723Z" fill="#FF84AD"/>
<path d="M88.7237 0.977571C89.1793 0.977571 89.6168 1.03792 90.0422 1.15559C90.4677 1.27326 90.8931 1.403 91.3185 1.54179C91.7439 1.68058 92.1694 1.8073 92.5948 1.92799C93.0202 2.04566 93.4487 2.106 93.8862 2.106C94.5379 2.106 95.1775 1.99738 95.7991 1.78015C96.4206 1.56291 97.0391 1.32153 97.6516 1.053C98.2641 0.787488 98.8856 0.543095 99.5193 0.325857C100.153 0.108619 100.814 0 101.508 0C103.188 0 104.745 0.214221 106.178 0.636628C107.611 1.06205 108.906 1.64437 110.064 2.3866C111.22 3.12883 112.24 3.99778 113.121 4.99647C114.002 5.99517 114.738 7.0723 115.329 8.22789C115.921 9.38348 116.373 10.5873 116.678 11.8304C116.986 13.0765 117.137 14.3106 117.137 15.5386C117.137 16.845 116.953 18.1575 116.588 19.482C116.222 20.8066 115.707 22.0828 115.046 23.3078C114.382 24.5328 113.588 25.6763 112.659 26.7323C111.73 27.7914 110.701 28.7086 109.576 29.4901C108.447 30.2715 107.243 30.884 105.958 31.3275C104.673 31.7711 103.348 31.9943 101.984 31.9943C101.468 31.9943 100.977 31.9249 100.5 31.7861C100.026 31.6474 99.5706 31.4995 99.1361 31.3426C98.7016 31.1857 98.2762 31.0349 97.8598 30.8991C97.4434 30.7603 97.0301 30.6909 96.6137 30.6909C96.2365 30.6909 95.9952 30.8056 95.8866 31.0318C95.7779 31.2581 95.7236 31.5418 95.7236 31.8767C95.7236 32.3323 95.8413 32.7728 96.0797 33.1952C96.318 33.6206 96.6197 34.04 96.9848 34.4564C97.3499 34.8727 97.7451 35.2831 98.1706 35.6874C98.596 36.0917 98.9912 36.502 99.3563 36.9184C99.7214 37.3348 100.023 37.7542 100.261 38.1796C100.5 38.605 100.618 39.0455 100.618 39.4981C100.618 40.5058 100.292 41.408 99.6399 42.1985C98.9882 42.989 98.1857 43.6679 97.2383 44.2291C96.2878 44.7933 95.2861 45.2217 94.2271 45.5204C93.1681 45.8161 92.2358 45.9639 91.4241 45.9639C90.0785 45.9639 88.7841 45.792 87.538 45.445C86.2919 45.098 85.1936 44.57 84.2462 43.8579C83.2958 43.1459 82.5355 42.2528 81.9622 41.1726C81.3889 40.0955 81.1023 38.8343 81.1023 37.3921C81.1023 36.0675 81.2713 34.7762 81.6062 33.521C81.9411 32.2659 82.3182 31.0107 82.7346 29.7556C83.151 28.5004 83.5251 27.2332 83.863 25.9599C84.1979 24.6837 84.3669 23.3652 84.3669 22.0014C84.3669 20.7553 84.1979 19.5544 83.863 18.3989C83.5251 17.2433 83.151 16.0967 82.7346 14.9593C82.3182 13.8218 81.9441 12.6813 81.6062 11.5347C81.2713 10.3882 81.1023 9.20244 81.1023 7.97445C81.1023 6.668 81.2894 5.56672 81.6665 4.6676C82.0407 3.76848 82.5656 3.04737 83.2385 2.50125C83.9113 1.95816 84.7109 1.56592 85.6402 1.33058C86.5695 1.09222 87.5983 0.974554 88.7237 0.974554V0.977571ZM100.648 17.7351C101.143 17.7351 101.692 17.6657 102.295 17.5269C102.899 17.3881 103.466 17.1709 104 16.8752C104.534 16.5795 104.977 16.1873 105.333 15.7045C105.689 15.2217 105.867 14.6334 105.867 13.9394C105.867 13.2877 105.683 12.7627 105.318 12.3675C104.953 11.9722 104.504 11.6645 103.97 11.4472C103.436 11.23 102.871 11.0852 102.28 11.0158C101.686 10.9464 101.173 10.9132 100.738 10.9132C100.222 10.9132 99.6762 11.0278 99.0908 11.2541C98.5085 11.4804 97.9684 11.7972 97.4736 12.2046C96.9788 12.6089 96.5684 13.0946 96.2426 13.6588C95.9167 14.2231 95.7538 14.8295 95.7538 15.4812C95.7538 15.9972 95.9409 16.4015 96.318 16.6972C96.6921 16.9928 97.1447 17.2221 97.6667 17.379C98.1917 17.539 98.7288 17.6355 99.2839 17.6747C99.8361 17.714 100.292 17.7351 100.648 17.7351Z" fill="#FF84AD"/>
<path d="M126.155 0.977571C126.611 0.977571 127.048 1.03792 127.474 1.15559C127.899 1.27326 128.324 1.403 128.75 1.54179C129.175 1.68058 129.601 1.8073 130.026 1.92799C130.452 2.04566 130.88 2.106 131.318 2.106C131.969 2.106 132.609 1.99738 133.23 1.78015C133.852 1.56291 134.471 1.32153 135.083 1.053C135.695 0.787488 136.317 0.543095 136.951 0.325857C137.584 0.108619 138.245 0 138.939 0C140.62 0 142.176 0.214221 143.61 0.636628C145.043 1.06205 146.337 1.64437 147.496 2.3866C148.651 3.12883 149.671 3.99778 150.552 4.99647C151.433 5.99517 152.169 7.0723 152.761 8.22789C153.352 9.38348 153.805 10.5873 154.109 11.8304C154.417 13.0765 154.568 14.3106 154.568 15.5386C154.568 16.845 154.384 18.1575 154.019 19.482C153.654 20.8066 153.138 22.0828 152.477 23.3078C151.813 24.5328 151.02 25.6763 150.091 26.7323C149.161 27.7914 148.132 28.7086 147.007 29.4901C145.879 30.2715 144.675 30.884 143.389 31.3275C142.104 31.7711 140.779 31.9943 139.416 31.9943C138.9 31.9943 138.408 31.9249 137.931 31.7861C137.458 31.6474 137.002 31.4995 136.567 31.3426C136.133 31.1857 135.708 31.0349 135.291 30.8991C134.875 30.7603 134.461 30.6909 134.045 30.6909C133.668 30.6909 133.427 30.8056 133.318 31.0318C133.209 31.2581 133.155 31.5418 133.155 31.8767C133.155 32.3323 133.273 32.7728 133.511 33.1952C133.749 33.6206 134.051 34.04 134.416 34.4564C134.781 34.8727 135.177 35.2831 135.602 35.6874C136.027 36.0917 136.423 36.502 136.788 36.9184C137.153 37.3348 137.455 37.7542 137.693 38.1796C137.931 38.605 138.049 39.0455 138.049 39.4981C138.049 40.5058 137.723 41.408 137.071 42.1985C136.42 42.989 135.617 43.6679 134.67 44.2291C133.719 44.7933 132.718 45.2217 131.658 45.5204C130.599 45.8161 129.667 45.9639 128.856 45.9639C127.51 45.9639 126.215 45.792 124.969 45.445C123.723 45.098 122.625 44.57 121.678 43.8579C120.727 43.1459 119.967 42.2528 119.394 41.1726C118.82 40.0955 118.534 38.8343 118.534 37.3921C118.534 36.0675 118.703 34.7762 119.038 33.521C119.372 32.2659 119.75 31.0107 120.166 29.7556C120.582 28.5004 120.957 27.2332 121.294 25.9599C121.629 24.6837 121.798 23.3652 121.798 22.0014C121.798 20.7553 121.629 19.5544 121.294 18.3989C120.957 17.2433 120.582 16.0967 120.166 14.9593C119.75 13.8218 119.375 12.6813 119.038 11.5347C118.703 10.3882 118.534 9.20244 118.534 7.97445C118.534 6.668 118.721 5.56672 119.098 4.6676C119.472 3.76848 119.997 3.04737 120.67 2.50125C121.343 1.95816 122.142 1.56592 123.072 1.33058C124.001 1.09222 125.03 0.974554 126.155 0.974554V0.977571ZM138.079 17.7351C138.574 17.7351 139.123 17.6657 139.726 17.5269C140.33 17.3881 140.897 17.1709 141.431 16.8752C141.965 16.5795 142.409 16.1873 142.765 15.7045C143.121 15.2217 143.299 14.6334 143.299 13.9394C143.299 13.2877 143.115 12.7627 142.75 12.3675C142.385 11.9722 141.935 11.6645 141.401 11.4472C140.867 11.23 140.303 11.0852 139.711 11.0158C139.117 10.9464 138.604 10.9132 138.17 10.9132C137.654 10.9132 137.108 11.0278 136.522 11.2541C135.94 11.4804 135.4 11.7972 134.905 12.2046C134.41 12.6089 134 13.0946 133.674 13.6588C133.348 14.2231 133.185 14.8295 133.185 15.4812C133.185 15.9972 133.372 16.4015 133.749 16.6972C134.124 16.9928 134.576 17.2221 135.098 17.379C135.623 17.539 136.16 17.6355 136.715 17.6747C137.267 17.714 137.723 17.7351 138.079 17.7351Z" fill="#FF84AD"/>
<path d="M167.147 2.40207C167.997 2.28439 168.734 2.44129 169.355 2.87576C169.977 3.31024 170.538 3.88351 171.03 4.59557C171.524 5.30762 171.968 6.10416 172.363 6.98217C172.759 7.86319 173.148 8.67783 173.534 9.42911C173.92 10.1804 174.324 10.814 174.75 11.3269C175.175 11.8429 175.655 12.0993 176.189 12.0993C176.485 12.0993 176.753 12.039 176.989 11.9213C177.839 11.5261 178.491 10.9558 178.947 10.2166C179.402 9.47437 179.783 8.66576 180.087 7.78474C180.395 6.90372 180.682 6.0046 180.947 5.08435C181.213 4.16411 181.584 3.33438 182.061 2.59215C182.534 1.84992 183.162 1.24346 183.943 0.766746C184.725 0.293046 185.778 0.0546875 187.102 0.0546875C188.131 0.0546875 189.172 0.214599 190.231 0.528387C191.29 0.845193 192.244 1.30984 193.094 1.92233C193.945 2.53482 194.642 3.29214 195.185 4.19126C195.728 5.09039 196 6.11322 196 7.25975C196 7.6369 195.991 8.05025 195.97 8.50585C195.949 8.96145 195.906 9.41704 195.837 9.86962C195.768 10.3252 195.659 10.7657 195.511 11.1881C195.363 11.6136 195.161 11.9756 194.902 12.2713C194.407 12.8657 193.773 13.4691 193.004 14.0816C192.232 14.6941 191.417 15.3126 190.557 15.9342C189.697 16.5557 188.837 17.1984 187.977 17.8622C187.117 18.526 186.345 19.2229 185.663 19.9531C184.981 20.6832 184.423 21.4466 183.989 22.2371C183.554 23.0276 183.337 23.8694 183.337 24.7595C183.337 26.2047 183.515 27.475 183.871 28.5702C184.227 29.6685 184.613 30.7124 185.026 31.699C185.443 32.6887 185.826 33.6753 186.182 34.6649C186.538 35.6546 186.716 36.7619 186.716 37.9869C186.716 38.6597 186.544 39.2812 186.197 39.8545C185.85 40.4278 185.392 40.9528 184.818 41.4265C184.245 41.9002 183.596 42.3165 182.875 42.6726C182.154 43.0286 181.418 43.3303 180.667 43.5777C179.915 43.8251 179.182 44.0122 178.473 44.1419C177.761 44.2717 177.139 44.335 176.605 44.335C175.598 44.335 174.493 44.2807 173.299 44.1721C172.101 44.0635 170.981 43.8101 169.931 43.4148C168.884 43.0195 168.009 42.4221 167.306 41.6196C166.603 40.82 166.253 39.7368 166.253 38.3731C166.253 37.7998 166.317 37.2356 166.447 36.6834C166.576 36.1313 166.724 35.5822 166.89 35.036C167.059 34.493 167.207 33.9378 167.334 33.3766C167.463 32.8124 167.527 32.2451 167.527 31.6719C167.527 29.6564 167.364 27.9245 167.038 26.4823C166.712 25.0401 166.278 23.794 165.731 22.744C165.188 21.697 164.576 20.807 163.894 20.0738C163.212 19.3436 162.509 18.6738 161.788 18.0704C161.067 17.4669 160.364 16.8846 159.682 16.3204C159 15.7562 158.388 15.1195 157.841 14.4075C157.298 13.6954 156.864 12.8717 156.535 11.9304C156.209 10.992 156.046 9.8485 156.046 8.50585C156.046 7.51621 156.2 6.5839 156.505 5.70288C156.813 4.82186 157.25 4.05247 157.823 3.38869C158.397 2.7249 159.094 2.1969 159.914 1.80164C160.735 1.40639 161.658 1.20726 162.687 1.20726C163.46 1.20726 164.22 1.31588 164.971 1.53311C165.722 1.75035 166.444 2.03698 167.137 2.39301L167.147 2.40207Z" fill="#FF84AD"/>
<path d="M17.4938 75.2369C17.8287 75.2369 18.2511 75.083 18.755 74.7783C19.2589 74.4705 19.8171 74.1356 20.4295 73.7706C21.042 73.4055 21.6998 73.0676 22.4028 72.7628C23.1058 72.4551 23.8209 72.3042 24.554 72.3042C26.2346 72.3042 27.7855 72.6693 29.2096 73.4025C30.6337 74.1356 31.919 75.1042 33.0656 76.308C34.2121 77.5149 35.2259 78.9088 36.1069 80.4898C36.9879 82.0709 37.7241 83.7092 38.3155 85.3988C38.9099 87.0885 39.3534 88.7811 39.6491 90.4707C39.9448 92.1604 40.0926 93.7293 40.0926 95.1715C40.0926 96.8129 39.9478 98.5146 39.6611 100.274C39.3745 102.033 38.934 103.758 38.3426 105.448C37.7482 107.138 37.003 108.74 36.1039 110.254C35.2047 111.766 34.1397 113.097 32.9147 114.243C31.8858 115.212 30.7212 115.963 29.4147 116.497C28.1083 117.031 26.7506 117.42 25.3355 117.668C23.9204 117.915 22.4843 118.063 21.0209 118.111C19.5576 118.16 18.1425 118.187 16.7787 118.187H16.305C14.9986 118.187 13.8098 118.033 12.7297 117.728C11.6525 117.42 10.7172 116.956 9.92669 116.334C9.13618 115.713 8.52369 114.925 8.08921 113.975C7.65474 113.024 7.4375 111.908 7.4375 110.623C7.4375 109.536 7.60043 108.471 7.92629 107.433C8.25214 106.395 8.61421 105.336 9.00946 104.259C9.40471 103.182 9.76677 102.06 10.0926 100.892C10.4185 99.7245 10.5814 98.4603 10.5814 97.0965C10.5814 95.7327 10.4487 94.2996 10.1801 92.9147C9.91462 91.5298 9.62497 90.1509 9.32023 88.7781C9.01248 87.4053 8.72584 86.0264 8.46033 84.6415C8.19482 83.2566 8.05904 81.8536 8.05904 80.4295C8.05904 79.7959 8.11335 79.0899 8.22197 78.3084C8.33059 77.527 8.53274 76.7998 8.83144 76.127C9.12713 75.4542 9.53747 74.893 10.0625 74.4374C10.5875 73.9818 11.2633 73.7555 12.093 73.7555C12.8654 73.7555 13.5021 73.8339 14.0059 73.9938C14.5098 74.1537 14.9503 74.3197 15.3244 74.4977C15.6986 74.6757 16.0516 74.8447 16.3774 75.0016C16.7033 75.1615 17.0744 75.2399 17.4908 75.2399L17.4938 75.2369ZM25.2058 96.5625C26.0355 96.5625 26.7294 96.4146 27.2816 96.1189C27.8337 95.8232 28.2803 95.4219 28.6152 94.9181C28.9501 94.4142 29.1885 93.8319 29.3272 93.1681C29.466 92.5043 29.5354 91.8194 29.5354 91.1074C29.5354 90.335 29.4208 89.6229 29.1945 88.9712C28.9682 88.3195 28.6363 87.7553 28.2018 87.2816C27.7674 86.8079 27.2333 86.4367 26.5997 86.1682C25.9661 85.9027 25.254 85.7669 24.4635 85.7669C23.7515 85.7669 23.1631 85.9449 22.6985 86.301C22.2338 86.657 21.8687 87.1005 21.6002 87.6346C21.3317 88.1686 21.1507 88.757 21.0511 89.3996C20.9515 90.0423 20.9032 90.6518 20.9032 91.225C20.9032 91.7983 21.0119 92.3716 21.2291 93.0052C21.4463 93.6388 21.742 94.2151 22.1192 94.7401C22.4933 95.2651 22.9489 95.6995 23.4829 96.0465C24.017 96.3935 24.5903 96.5655 25.2027 96.5655L25.2058 96.5625Z" fill="#FF84AD"/>
<path d="M45.8796 72.9229C46.5916 72.9229 47.2826 73.0405 47.9554 73.2789C48.6282 73.5172 49.3041 73.7737 49.986 74.0513C50.6679 74.3289 51.3739 74.5853 52.1071 74.8237C52.8372 75.062 53.6307 75.1797 54.4786 75.1797C55.4863 75.1797 56.485 75.0952 57.4746 74.9263C58.4643 74.7573 59.4479 74.5702 60.4255 74.3621C61.403 74.1539 62.3866 73.9668 63.3763 73.7978C64.3659 73.6289 65.3646 73.5444 66.3724 73.5444C67.3016 73.5444 68.1917 73.659 69.0426 73.8853C69.8934 74.1116 70.6387 74.4677 71.2813 74.9534C71.924 75.4392 72.4369 76.0547 72.8231 76.806C73.2093 77.5573 73.4024 78.4473 73.4024 79.4762C73.4024 80.3663 73.324 81.2624 73.1641 82.1615C73.0042 83.0606 72.7296 83.8722 72.3343 84.5934C71.9391 85.3145 71.405 85.9089 70.7322 86.3735C70.0594 86.8382 69.1995 87.0705 68.1525 87.0705C67.184 87.0705 66.2728 86.9468 65.425 86.6994C64.5741 86.452 63.7504 86.1744 62.9478 85.8696C62.1483 85.5649 61.3608 85.2873 60.5884 85.0399C59.816 84.7925 59.0164 84.6688 58.1867 84.6688C57.8488 84.6688 57.4656 84.7322 57.0311 84.8619C56.5966 84.9916 56.1803 85.1696 55.785 85.3959C55.3898 85.6222 55.0579 85.8968 54.7924 86.2106C54.5269 86.5274 54.3911 86.8834 54.3911 87.2787C54.3911 87.8519 54.5238 88.3317 54.7924 88.7179C55.0609 89.1041 55.4018 89.4148 55.8152 89.6532C56.2316 89.8916 56.6841 90.0575 57.179 90.1571C57.6738 90.2566 58.1475 90.3049 58.6031 90.3049C58.8807 90.3049 59.2397 90.2959 59.6862 90.2747C60.1298 90.2566 60.6095 90.2506 61.1255 90.2597C61.6384 90.2687 62.1573 90.2989 62.6823 90.3472C63.2073 90.3954 63.675 90.492 64.0914 90.6277C64.5077 90.7665 64.8487 90.9596 65.1142 91.2071C65.3797 91.4545 65.5155 91.7863 65.5155 92.1997C65.5155 92.7549 65.3616 93.2618 65.0569 93.7264C64.7491 94.1911 64.3508 94.5923 63.856 94.9273C63.3612 95.2652 62.8181 95.5247 62.2237 95.7147C61.6293 95.9018 61.047 95.9953 60.4737 95.9953C60.0393 95.9953 59.6138 95.9712 59.1975 95.9199C58.7811 95.8716 58.3677 95.8445 57.9514 95.8445C57.2604 95.8445 56.6751 96.0165 56.2014 96.3634C55.7277 96.7104 55.4893 97.2595 55.4893 98.0108C55.4893 98.7229 55.6583 99.3112 55.9932 99.7759C56.3281 100.241 56.7505 100.612 57.2544 100.889C57.7583 101.167 58.3225 101.363 58.944 101.484C59.5656 101.601 60.1539 101.662 60.7091 101.662C62.0155 101.662 63.3129 101.559 64.6103 101.351C65.9047 101.143 67.2051 101.04 68.5115 101.04C70.2917 101.04 71.5529 101.459 72.2921 102.301C73.0343 103.143 73.4054 104.492 73.4054 106.35C73.4054 108.447 73.2274 110.27 72.8714 111.824C72.5154 113.377 71.8968 114.663 71.0188 115.68C70.1378 116.699 68.946 117.46 67.4435 117.964C65.9409 118.467 64.0431 118.721 61.75 118.721C60.6216 118.721 59.5686 118.537 58.591 118.172C57.6134 117.807 56.7385 117.411 55.9661 116.986C55.1936 116.561 54.5419 116.165 54.0079 115.8C53.4738 115.435 53.0876 115.251 52.8523 115.251C52.4963 115.251 52.1342 115.384 51.7691 115.652C51.4041 115.918 50.9877 116.217 50.523 116.542C50.0584 116.868 49.5183 117.17 48.9058 117.448C48.2933 117.725 47.542 117.864 46.652 117.864C45.9399 117.864 45.2761 117.779 44.6636 117.614C44.0511 117.445 43.5111 117.194 43.0464 116.856C42.5818 116.521 42.2167 116.105 41.9482 115.61C41.6826 115.115 41.5469 114.533 41.5469 113.86C41.5469 113.009 41.7339 112.065 42.1111 111.027C42.4852 109.989 42.8956 108.891 43.3421 107.735C43.7856 106.58 44.196 105.373 44.5731 104.118C44.9473 102.862 45.1373 101.58 45.1373 100.277V97.4285C45.1373 95.7872 44.9503 94.2212 44.5731 92.7277C44.196 91.2342 43.7886 89.7558 43.3421 88.2924C42.8986 86.8291 42.4852 85.3477 42.1111 83.8421C41.7339 82.3395 41.5469 80.7766 41.5469 79.1564C41.5469 78.6042 41.6344 77.9706 41.8124 77.2586C41.9904 76.5465 42.2559 75.8707 42.6119 75.228C42.968 74.5853 43.4175 74.0422 43.9606 73.5957C44.5037 73.1522 45.1434 72.9289 45.8735 72.9289L45.8796 72.9229Z" fill="#FF84AD"/>
<path d="M95.8865 74.1992C96.6589 74.2203 97.5128 74.2234 98.4511 74.2143C99.3894 74.2052 100.355 74.2294 101.342 74.2897C102.331 74.3501 103.309 74.4677 104.277 74.6458C105.246 74.8238 106.127 75.1104 106.917 75.5057C107.708 75.9009 108.387 76.435 108.948 77.1078C109.512 77.7806 109.883 78.6405 110.061 79.6875C110.218 80.5776 110.309 81.5069 110.327 82.4754C110.345 83.4439 110.36 84.4335 110.372 85.4413C110.381 86.449 110.405 87.4779 110.447 88.5249C110.487 89.5718 110.604 90.6218 110.803 91.6688C111.12 93.3494 111.5 95.039 111.944 96.7407C112.388 98.4424 112.819 100.117 113.235 101.767C113.652 103.418 114.02 105.02 114.349 106.574C114.675 108.128 114.877 109.603 114.958 111.009C114.997 111.878 114.789 112.681 114.337 113.411C113.881 114.141 113.299 114.726 112.587 115.161C112.152 115.417 111.627 115.662 111.015 115.888C110.402 116.114 109.729 116.313 108.999 116.482C108.266 116.651 107.506 116.784 106.715 116.883C105.925 116.983 105.134 117.031 104.344 117.031C103.671 117.031 103.013 116.992 102.37 116.914C101.728 116.835 101.13 116.702 100.575 116.512C100.02 116.325 99.5222 116.081 99.0787 115.785C98.6352 115.49 98.2731 115.133 97.9955 114.717C97.5007 113.966 97.0994 113.169 96.7947 112.331C96.4869 111.492 96.3542 110.617 96.3934 109.706C96.4115 109.033 96.5654 108.414 96.852 107.853C97.1386 107.289 97.4886 106.755 97.905 106.251C98.3214 105.747 98.7589 105.261 99.2235 104.797C99.6882 104.332 100.108 103.867 100.485 103.403C100.859 102.938 101.158 102.467 101.375 101.994C101.592 101.52 101.661 101.025 101.583 100.509C101.523 100.114 101.302 99.7971 100.916 99.5587C100.53 99.3204 100.086 99.1424 99.5826 99.0247C99.0787 98.907 98.5688 98.8316 98.0559 98.8014C97.5399 98.7712 97.1266 98.7562 96.8097 98.7562C96.1761 98.7562 95.5154 98.7954 94.8214 98.8738C94.1305 98.9523 93.5059 99.0971 92.9538 99.3053C92.3986 99.5135 91.9551 99.7911 91.6202 100.135C91.2823 100.482 91.1465 100.919 91.2038 101.454C91.2823 102.087 91.406 102.621 91.5749 103.056C91.7439 103.49 91.9249 103.891 92.124 104.257C92.3202 104.622 92.5253 104.993 92.7335 105.37C92.9417 105.747 93.1227 106.191 93.2827 106.703C93.4395 107.219 93.5632 107.841 93.6538 108.571C93.7413 109.304 93.7684 110.212 93.7292 111.299C93.7292 111.615 93.6598 111.965 93.521 112.352C93.3822 112.738 93.2042 113.124 92.987 113.507C92.7697 113.893 92.5314 114.252 92.2749 114.59C92.0184 114.928 91.771 115.194 91.5327 115.39C90.7603 116.002 89.8159 116.464 88.6995 116.769C87.5832 117.077 86.4215 117.227 85.2147 117.227C84.403 117.227 83.5944 117.158 82.7828 117.019C81.9712 116.88 81.2048 116.672 80.4837 116.398C79.7626 116.12 79.0988 115.776 78.4954 115.36C77.8919 114.943 77.3941 114.461 76.9988 113.905C76.5433 113.272 76.2777 112.572 76.1993 111.8C76.1208 111.027 76.1993 110.288 76.4376 109.576C76.8329 108.39 77.2975 107.075 77.8316 105.632C78.3656 104.19 78.8997 102.721 79.4337 101.227C79.9678 99.7337 80.4777 98.2613 80.9604 96.8071C81.4462 95.3528 81.8264 94.0131 82.1009 92.7882C82.4358 91.3037 82.6742 89.9399 82.813 88.6938C82.9518 87.4477 83.0845 86.2318 83.2143 85.046C83.344 83.8603 83.5009 82.6474 83.688 81.4133C83.875 80.1763 84.1858 78.8366 84.6233 77.3944C84.8405 76.6431 85.1815 76.0065 85.6461 75.4815C86.1108 74.9565 86.6509 74.5311 87.2633 74.2052C87.8758 73.8794 88.5396 73.638 89.2517 73.4781C89.9637 73.3212 90.6848 73.2397 91.418 73.2397C91.7741 73.2397 92.1241 73.2548 92.471 73.285C92.818 73.3152 93.1589 73.3695 93.4939 73.4479C93.9102 73.5475 94.3055 73.6893 94.6796 73.8794C95.0537 74.0665 95.4611 74.1721 95.8955 74.1902L95.8865 74.1992ZM95.9468 92.945C96.5201 92.945 97.0541 92.8696 97.549 92.7218C98.0438 92.5739 98.4722 92.3808 98.8403 92.1425C99.2054 91.9041 99.492 91.6326 99.7002 91.3278C99.9084 91.0231 100.011 90.7093 100.011 90.3925C100.011 90.0365 99.8722 89.6201 99.5946 89.1464C99.317 88.6727 98.9761 88.2231 98.5718 87.7977C98.1675 87.3723 97.73 87.0163 97.2653 86.7296C96.8007 86.443 96.3692 86.2982 95.974 86.2982C95.5003 86.2982 95.0296 86.4128 94.565 86.6391C94.1003 86.8654 93.6809 87.1581 93.3038 87.5141C92.9266 87.8701 92.6249 88.2714 92.3986 88.7149C92.1723 89.1585 92.0577 89.599 92.0577 90.0365C92.0577 90.2748 92.1512 90.5615 92.3383 90.8964C92.5253 91.2343 92.7939 91.5481 93.1378 91.8468C93.4848 92.1425 93.8951 92.402 94.3688 92.6192C94.8425 92.8364 95.3675 92.945 95.9408 92.945H95.9468Z" fill="#FF84AD"/>
<path d="M139.25 86.509C138.655 86.509 138.163 86.687 137.765 87.043C137.37 87.399 137.053 87.8335 136.815 88.3494C136.576 88.8654 136.41 89.4115 136.311 89.9968C136.211 90.5791 136.163 91.0981 136.163 91.5537C136.163 92.0877 136.181 92.6218 136.223 93.1558C136.263 93.6899 136.293 94.2239 136.311 94.758C136.35 95.6269 136.489 96.4747 136.727 97.2954C136.966 98.1161 137.252 98.9157 137.587 99.6971C137.922 100.479 138.29 101.254 138.685 102.026C139.081 102.799 139.446 103.58 139.784 104.371C140.119 105.161 140.396 105.973 140.613 106.803C140.831 107.632 140.939 108.492 140.939 109.382C140.939 110.411 140.713 111.509 140.257 112.674C139.802 113.842 139.126 114.919 138.227 115.905C137.328 116.895 136.214 117.716 134.89 118.368C133.565 119.019 132.032 119.345 130.292 119.345C128.551 119.345 127.084 119.034 125.886 118.41C124.689 117.788 123.726 116.971 122.996 115.963C122.263 114.955 121.735 113.812 121.409 112.538C121.083 111.262 120.92 109.974 120.92 108.667C120.92 107.442 121.068 106.172 121.364 104.857C121.659 103.541 121.991 102.229 122.356 100.913C122.721 99.5975 123.053 98.2881 123.349 96.9816C123.645 95.6752 123.793 94.411 123.793 93.186C123.793 92.0395 123.648 91.1554 123.361 90.5309C123.074 89.9093 122.67 89.4477 122.145 89.152C121.62 88.8563 120.99 88.6813 120.247 88.6331C119.505 88.5848 118.669 88.5576 117.74 88.5576C116.95 88.5576 116.186 88.5244 115.456 88.455C114.723 88.3857 114.08 88.2016 113.528 87.9059C112.973 87.6102 112.535 87.1546 112.209 86.5421C111.884 85.9296 111.721 85.0788 111.721 83.9926C111.721 82.5293 111.769 81.1564 111.869 79.8711C111.968 78.5858 112.258 77.4634 112.744 76.5039C113.226 75.5445 113.969 74.7871 114.967 74.235C115.966 73.6829 117.366 73.4053 119.164 73.4053C120.133 73.4053 121.092 73.4747 122.043 73.6135C122.993 73.7523 123.94 73.9061 124.891 74.0721C125.841 74.241 126.789 74.3949 127.739 74.5307C128.689 74.6695 129.646 74.7389 130.617 74.7389C131.589 74.7389 132.476 74.6846 133.405 74.5759C134.335 74.4673 135.258 74.3436 136.178 74.2048C137.098 74.066 138.019 73.9423 138.936 73.8337C139.856 73.7251 140.779 73.6708 141.709 73.6708C142.777 73.6708 143.769 73.7734 144.69 73.9816C145.61 74.1897 146.4 74.5397 147.061 75.0346C147.722 75.5294 148.247 76.1901 148.633 77.0229C149.019 77.8526 149.212 78.8905 149.212 80.1366C149.212 80.8095 149.182 81.606 149.125 82.5232C149.065 83.4435 148.908 84.3275 148.651 85.1784C148.395 86.0292 148.024 86.7503 147.538 87.3447C147.052 87.9391 146.376 88.2348 145.507 88.2348C144.952 88.2348 144.4 88.1473 143.848 87.9693C143.293 87.7913 142.756 87.5951 142.231 87.3749C141.706 87.1576 141.193 86.9585 140.689 86.7805C140.185 86.6025 139.705 86.515 139.25 86.515V86.509Z" fill="#FF84AD"/>
<path d="M172.915 101.012C172.915 100.499 172.822 100.119 172.635 99.8719C172.448 99.6245 172.2 99.4525 171.893 99.3529C171.585 99.2533 171.244 99.2051 170.87 99.2051H169.741C169.147 99.2051 168.501 99.2111 167.798 99.2202C167.095 99.2292 166.45 99.3288 165.855 99.5158C165.261 99.7029 164.769 100.017 164.371 100.451C163.975 100.886 163.776 101.519 163.776 102.349C163.776 103.022 163.924 103.74 164.22 104.5C164.516 105.261 164.841 106.057 165.197 106.887C165.553 107.717 165.879 108.592 166.175 109.512C166.471 110.432 166.619 111.395 166.619 112.402C166.619 113.075 166.459 113.697 166.145 114.27C165.828 114.843 165.409 115.368 164.884 115.842C164.359 116.316 163.755 116.738 163.073 117.103C162.391 117.468 161.694 117.776 160.982 118.023C160.27 118.271 159.567 118.458 158.876 118.588C158.185 118.714 157.561 118.781 157.009 118.781C156.614 118.781 156.188 118.766 155.733 118.735C155.277 118.705 154.827 118.648 154.384 118.557C153.94 118.467 153.518 118.334 153.123 118.156C152.727 117.978 152.389 117.74 152.115 117.444C151.246 116.515 150.612 115.456 150.217 114.27C149.822 113.084 149.623 111.868 149.623 110.622C149.623 109.219 149.792 107.84 150.127 106.486C150.461 105.131 150.83 103.785 151.225 102.452C151.62 101.118 151.985 99.7723 152.323 98.4176C152.658 97.0629 152.827 95.6931 152.827 94.3082C152.827 93.0228 152.727 91.7677 152.531 90.5427C152.332 89.3177 152.121 88.1048 151.895 86.91C151.668 85.7152 151.454 84.5174 151.258 83.3195C151.059 82.1247 150.962 80.9209 150.962 79.717C150.962 78.2537 151.164 77.086 151.572 76.2171C151.976 75.3481 152.531 74.6753 153.231 74.2016C153.934 73.7279 154.764 73.4141 155.723 73.2662C156.683 73.1184 157.715 73.043 158.822 73.043C160.008 73.043 161.1 73.2149 162.099 73.5619C163.097 73.9089 163.966 74.3524 164.709 74.8955C165.451 75.4386 166.027 76.0571 166.444 76.7481C166.86 77.439 167.065 78.142 167.065 78.8541C167.065 79.723 166.99 80.4954 166.842 81.1683C166.694 81.8411 166.516 82.4476 166.308 82.9937C166.1 83.5368 165.867 84.0256 165.611 84.4631C165.354 84.8975 165.122 85.3139 164.914 85.7092C164.706 86.1044 164.528 86.4906 164.38 86.8647C164.232 87.2419 164.157 87.6371 164.157 88.0505C164.157 88.6841 164.328 89.0975 164.675 89.2966C165.022 89.4957 165.481 89.5923 166.054 89.5923C166.549 89.5923 167.038 89.547 167.524 89.4595C168.009 89.372 168.498 89.3268 168.993 89.3268C169.527 89.3268 170.115 89.2785 170.758 89.1789C171.401 89.0794 171.995 88.8983 172.538 88.6298C173.081 88.3643 173.537 88.0083 173.902 87.5617C174.267 87.1182 174.451 86.5479 174.451 85.857C174.451 85.2837 174.327 84.7044 174.08 84.1221C173.833 83.5398 173.555 82.9514 173.25 82.357C172.943 81.7627 172.668 81.1653 172.421 80.5618C172.173 79.9584 172.049 79.3308 172.049 78.6791C172.049 77.8101 172.303 77.0317 172.807 76.3498C173.311 75.6679 173.938 75.0947 174.69 74.63C175.441 74.1654 176.252 73.8093 177.121 73.5619C177.99 73.3145 178.802 73.1908 179.553 73.1908C180.977 73.1908 182.187 73.5076 183.186 74.1412C184.185 74.7748 184.996 75.5955 185.618 76.6033C186.239 77.611 186.689 78.7394 186.967 79.9855C187.244 81.2316 187.383 82.4657 187.383 83.6937C187.383 84.7014 187.235 85.6066 186.939 86.4091C186.644 87.2087 186.318 87.963 185.962 88.663C185.606 89.366 185.28 90.0569 184.984 90.7388C184.689 91.4207 184.541 92.1479 184.541 92.9203C184.541 94.284 184.764 95.678 185.207 97.1021C185.651 98.5262 186.137 99.9654 186.662 101.417C187.187 102.871 187.67 104.322 188.116 105.777C188.56 107.231 188.783 108.667 188.783 110.091C188.783 111.337 188.457 112.445 187.805 113.413C187.154 114.382 186.327 115.199 185.328 115.86C184.329 116.524 183.237 117.031 182.051 117.387C180.866 117.743 179.728 117.921 178.642 117.921C177.556 117.921 176.5 117.803 175.423 117.565C174.346 117.326 173.377 116.955 172.517 116.451C171.657 115.947 170.96 115.29 170.426 114.478C169.892 113.666 169.627 112.698 169.627 111.573C169.627 110.643 169.799 109.72 170.146 108.8C170.493 107.88 170.867 106.971 171.274 106.072C171.678 105.173 172.056 104.298 172.403 103.447C172.749 102.596 172.921 101.785 172.921 101.015L172.915 101.012Z" fill="#FF84AD"/>
<path d="M62.0155 148.129C62.3504 148.129 62.7729 147.975 63.2767 147.67C63.7806 147.363 64.3388 147.028 64.9513 146.663C65.5638 146.298 66.2215 145.96 66.9245 145.655C67.6275 145.347 68.3426 145.196 69.0758 145.196C70.7564 145.196 72.3072 145.561 73.7313 146.295C75.1554 147.028 76.4408 147.996 77.5873 149.2C78.7338 150.407 79.7476 151.801 80.6286 153.382C81.5096 154.963 82.2458 156.601 82.8372 158.291C83.4316 159.981 83.8751 161.673 84.1708 163.363C84.4665 165.052 84.6143 166.621 84.6143 168.064C84.6143 169.705 84.4695 171.407 84.1829 173.166C83.8962 174.925 83.4557 176.651 82.8644 178.34C82.27 180.03 81.5247 181.632 80.6256 183.147C79.7265 184.658 78.6614 185.989 77.4364 187.135C76.4076 188.104 75.2429 188.855 73.9365 189.389C72.63 189.923 71.2723 190.312 69.8572 190.56C68.4422 190.807 67.006 190.955 65.5426 191.003C64.0793 191.052 62.6642 191.079 61.3005 191.079H60.8268C59.5203 191.079 58.3315 190.925 57.2514 190.62C56.1743 190.312 55.2389 189.848 54.4484 189.226C53.6579 188.605 53.0454 187.817 52.6109 186.867C52.1765 185.916 51.9592 184.8 51.9592 183.515C51.9592 182.428 52.1222 181.363 52.448 180.325C52.7739 179.288 53.1359 178.229 53.5312 177.151C53.9264 176.074 54.2885 174.952 54.6144 173.784C54.9402 172.617 55.1031 171.352 55.1031 169.989C55.1031 168.625 54.9704 167.192 54.7019 165.807C54.4363 164.422 54.1467 163.043 53.842 161.67C53.5342 160.297 53.2476 158.918 52.9821 157.534C52.7165 156.149 52.5808 154.746 52.5808 153.322C52.5808 152.688 52.6351 151.982 52.7437 151.201C52.8523 150.419 53.0545 149.692 53.3532 149.019C53.6489 148.346 54.0592 147.785 54.5842 147.329C55.1092 146.874 55.785 146.648 56.6148 146.648C57.3872 146.648 58.0238 146.726 58.5277 146.886C59.0315 147.046 59.472 147.212 59.8462 147.39C60.2203 147.568 60.5733 147.737 60.8992 147.894C61.225 148.054 61.5962 148.132 62.0125 148.132L62.0155 148.129ZM69.7275 169.455C70.5572 169.455 71.2512 169.307 71.8033 169.011C72.3555 168.715 72.802 168.314 73.1369 167.81C73.4718 167.306 73.7102 166.724 73.849 166.06C73.9878 165.396 74.0572 164.711 74.0572 163.999C74.0572 163.227 73.9425 162.515 73.7162 161.863C73.4899 161.212 73.158 160.647 72.7236 160.174C72.2891 159.7 71.755 159.329 71.1214 159.06C70.4878 158.795 69.7758 158.659 68.9853 158.659C68.2732 158.659 67.6849 158.837 67.2202 159.193C66.7556 159.549 66.3905 159.993 66.1219 160.527C65.8534 161.061 65.6724 161.649 65.5728 162.292C65.4732 162.934 65.425 163.544 65.425 164.117C65.425 164.69 65.5336 165.264 65.7508 165.897C65.9681 166.531 66.2638 167.107 66.6409 167.632C67.015 168.157 67.4706 168.592 68.0047 168.939C68.5387 169.286 69.112 169.458 69.7245 169.458L69.7275 169.455Z" fill="#FF84AD"/>
<path d="M106 147.091C106.772 147.112 107.626 147.115 108.565 147.106C109.503 147.097 110.468 147.121 111.455 147.182C112.445 147.242 113.422 147.36 114.391 147.538C115.359 147.716 116.24 148.002 117.031 148.398C117.821 148.793 118.5 149.327 119.061 150C119.626 150.673 119.997 151.533 120.175 152.58C120.332 153.47 120.422 154.399 120.44 155.367C120.458 156.336 120.473 157.326 120.486 158.333C120.495 159.341 120.519 160.37 120.561 161.417C120.6 162.464 120.718 163.514 120.917 164.561C121.234 166.241 121.614 167.931 122.058 169.633C122.501 171.334 122.933 173.009 123.349 174.659C123.765 176.31 124.133 177.912 124.462 179.466C124.788 181.02 124.99 182.495 125.072 183.901C125.111 184.77 124.903 185.573 124.45 186.303C123.995 187.033 123.412 187.618 122.7 188.053C122.266 188.309 121.741 188.554 121.128 188.78C120.516 189.006 119.843 189.205 119.113 189.374C118.38 189.543 117.619 189.676 116.829 189.776C116.038 189.875 115.248 189.923 114.457 189.923C113.784 189.923 113.127 189.884 112.484 189.806C111.841 189.727 111.244 189.595 110.689 189.404C110.134 189.217 109.636 188.973 109.192 188.677C108.749 188.382 108.387 188.026 108.109 187.609C107.614 186.858 107.213 186.061 106.908 185.223C106.6 184.384 106.468 183.509 106.507 182.598C106.525 181.925 106.679 181.306 106.966 180.745C107.252 180.181 107.602 179.647 108.019 179.143C108.435 178.639 108.872 178.153 109.337 177.689C109.802 177.224 110.221 176.759 110.598 176.295C110.972 175.83 111.271 175.359 111.488 174.886C111.706 174.412 111.775 173.917 111.696 173.401C111.636 173.006 111.416 172.689 111.03 172.451C110.643 172.212 110.2 172.034 109.696 171.917C109.192 171.799 108.682 171.724 108.169 171.694C107.653 171.663 107.24 171.648 106.923 171.648C106.29 171.648 105.629 171.687 104.935 171.766C104.244 171.844 103.619 171.989 103.067 172.197C102.512 172.406 102.069 172.683 101.734 173.027C101.396 173.374 101.26 173.812 101.317 174.346C101.396 174.979 101.519 175.513 101.688 175.948C101.857 176.382 102.038 176.784 102.238 177.149C102.434 177.514 102.639 177.885 102.847 178.262C103.055 178.639 103.236 179.083 103.396 179.596C103.553 180.111 103.677 180.733 103.767 181.463C103.855 182.196 103.882 183.105 103.843 184.191C103.843 184.508 103.773 184.858 103.635 185.244C103.496 185.63 103.318 186.016 103.1 186.399C102.883 186.786 102.645 187.145 102.388 187.483C102.132 187.82 101.885 188.086 101.646 188.282C100.874 188.895 99.9294 189.356 98.8131 189.661C97.6967 189.969 96.5351 190.12 95.3282 190.12C94.5166 190.12 93.708 190.05 92.8963 189.911C92.0847 189.773 91.3183 189.564 90.5972 189.29C89.8761 189.012 89.2123 188.668 88.6089 188.252C88.0055 187.836 87.5076 187.353 87.1124 186.798C86.6568 186.164 86.3913 185.464 86.3128 184.692C86.2344 183.919 86.3128 183.18 86.5512 182.468C86.9464 181.282 87.4111 179.967 87.9451 178.524C88.4792 177.082 89.0132 175.613 89.5473 174.119C90.0813 172.626 90.5912 171.153 91.074 169.699C91.5597 168.245 91.9399 166.905 92.2145 165.68C92.5494 164.196 92.7877 162.832 92.9265 161.586C93.0653 160.34 93.1981 159.124 93.3278 157.938C93.4575 156.752 93.6144 155.539 93.8015 154.305C93.9886 153.068 94.2993 151.729 94.7368 150.287C94.9541 149.535 95.295 148.899 95.7597 148.374C96.2243 147.849 96.7644 147.423 97.3769 147.097C97.9894 146.771 98.6531 146.53 99.3652 146.37C100.077 146.213 100.798 146.132 101.532 146.132C101.888 146.132 102.238 146.147 102.585 146.177C102.932 146.207 103.272 146.262 103.607 146.34C104.024 146.44 104.419 146.581 104.793 146.771C105.167 146.959 105.575 147.064 106.009 147.082L106 147.091ZM106.06 165.837C106.634 165.837 107.168 165.762 107.662 165.614C108.157 165.466 108.586 165.273 108.954 165.035C109.319 164.796 109.606 164.525 109.814 164.22C110.022 163.915 110.125 163.601 110.125 163.285C110.125 162.929 109.986 162.512 109.708 162.038C109.431 161.565 109.09 161.115 108.685 160.69C108.281 160.264 107.844 159.908 107.379 159.622C106.914 159.335 106.483 159.19 106.088 159.19C105.614 159.19 105.143 159.305 104.678 159.531C104.214 159.757 103.794 160.05 103.417 160.406C103.04 160.762 102.738 161.164 102.512 161.607C102.286 162.051 102.171 162.491 102.171 162.929C102.171 163.167 102.265 163.454 102.452 163.788C102.639 164.126 102.907 164.44 103.251 164.739C103.598 165.035 104.009 165.294 104.482 165.511C104.956 165.729 105.481 165.837 106.054 165.837H106.06Z" fill="#FF84AD"/>
<path d="M132.902 148.19C133.752 148.072 134.489 148.229 135.11 148.663C135.732 149.098 136.293 149.671 136.785 150.383C137.279 151.095 137.723 151.892 138.118 152.77C138.514 153.651 138.903 154.465 139.289 155.217C139.675 155.968 140.079 156.602 140.505 157.115C140.93 157.63 141.41 157.887 141.944 157.887C142.24 157.887 142.508 157.827 142.744 157.709C143.594 157.314 144.246 156.743 144.702 156.004C145.157 155.262 145.538 154.453 145.842 153.572C146.15 152.691 146.437 151.792 146.702 150.872C146.968 149.952 147.339 149.122 147.816 148.38C148.289 147.638 148.917 147.031 149.698 146.554C150.48 146.081 151.533 145.842 152.857 145.842C153.886 145.842 154.927 146.002 155.986 146.316C157.045 146.633 157.999 147.097 158.849 147.71C159.7 148.322 160.397 149.08 160.94 149.979C161.483 150.878 161.755 151.901 161.755 153.047C161.755 153.424 161.746 153.838 161.725 154.293C161.704 154.749 161.661 155.205 161.592 155.657C161.523 156.113 161.414 156.553 161.266 156.976C161.118 157.401 160.916 157.763 160.657 158.059C160.162 158.653 159.528 159.257 158.759 159.869C157.986 160.482 157.172 161.1 156.312 161.722C155.452 162.343 154.592 162.986 153.732 163.65C152.872 164.314 152.1 165.011 151.418 165.741C150.736 166.471 150.178 167.234 149.744 168.025C149.309 168.815 149.092 169.657 149.092 170.547C149.092 171.992 149.27 173.263 149.626 174.358C149.982 175.456 150.368 176.5 150.781 177.487C151.198 178.476 151.581 179.463 151.937 180.453C152.293 181.442 152.471 182.549 152.471 183.774C152.471 184.447 152.299 185.069 151.952 185.642C151.605 186.215 151.147 186.74 150.573 187.214C150 187.688 149.351 188.104 148.63 188.46C147.909 188.816 147.173 189.118 146.422 189.365C145.67 189.613 144.937 189.8 144.228 189.93C143.516 190.059 142.894 190.123 142.36 190.123C141.353 190.123 140.248 190.068 139.054 189.96C137.856 189.851 136.736 189.598 135.686 189.202C134.639 188.807 133.764 188.21 133.061 187.407C132.358 186.608 132.008 185.524 132.008 184.161C132.008 183.587 132.072 183.023 132.202 182.471C132.331 181.919 132.479 181.37 132.645 180.824C132.814 180.281 132.962 179.725 133.089 179.164C133.218 178.6 133.282 178.033 133.282 177.459C133.282 175.444 133.119 173.712 132.793 172.27C132.467 170.828 132.033 169.582 131.486 168.532C130.943 167.485 130.331 166.595 129.649 165.861C128.967 165.131 128.264 164.461 127.543 163.858C126.822 163.255 126.119 162.672 125.437 162.108C124.755 161.544 124.143 160.907 123.596 160.195C123.053 159.483 122.619 158.659 122.29 157.718C121.964 156.78 121.801 155.636 121.801 154.293C121.801 153.304 121.955 152.371 122.26 151.49C122.568 150.609 123.005 149.84 123.578 149.176C124.152 148.513 124.849 147.984 125.669 147.589C126.49 147.194 127.413 146.995 128.442 146.995C129.215 146.995 129.975 147.103 130.726 147.321C131.477 147.538 132.199 147.825 132.892 148.181L132.902 148.19Z" fill="#FF84AD"/>
</svg>
